M48
;DRILL file {KiCad 4.0.7-e2-6376~58~ubuntu16.04.1} date Mon Jun 18 09:55:08 2018
;FORMAT={-:-/ absolute / metric / decimal}
FMAT,2
METRIC,TZ
T1C0.300
T2C0.650
T3C1.000
T4C1.200
T5C3.200
%
G90
G05
M71
T1
X76.25Y-94.5
X77.95Y-102.55
X79.Y-116.5
X79.Y-119.75
X80.75Y-99.25
X82.5Y-112.75
X83.25Y-105.75
X83.25Y-108.5
X83.25Y-110.25
X83.25Y-111.75
X83.75Y-94.75
X84.75Y-94.25
X85.Y-114.
X86.25Y-118.5
X87.Y-105.75
X87.Y-110.25
X87.75Y-113.
X87.75Y-117.
X88.5Y-112.25
X88.75Y-102.5
X89.5Y-70.
X89.5Y-72.
X89.75Y-102.5
X89.75Y-113.
X89.75Y-119.
X90.25Y-73.75
X90.25Y-101.75
X90.75Y-110.75
X91.25Y-74.75
X91.25Y-94.25
X91.25Y-101.5
X91.75Y-100.75
X92.Y-75.5
X92.Y-93.5
X92.25Y-103.25
X92.25Y-104.25
X92.5Y-71.
X92.5Y-111.5
X92.75Y-92.75
X92.75Y-97.25
X93.Y-118.5
X93.Y-119.5
X93.25Y-75.25
X93.5Y-92.
X93.5Y-103.25
X94.25Y-106.25
X94.5Y-117.5
X95.5Y-77.
X95.5Y-79.5
X95.5Y-103.
X96.25Y-97.25
X96.5Y-100.75
X97.Y-116.5
X98.Y-113.
X98.25Y-106.5
X99.Y-66.
X99.Y-68.
X99.Y-70.237
X99.Y-72.
X99.Y-74.
X99.Y-76.
X99.Y-78.
X99.Y-79.5
X99.Y-82.
X99.Y-84.
X99.25Y-102.
X99.25Y-108.25
X99.25Y-109.25
X99.5Y-97.75
X100.75Y-94.
X100.75Y-97.
X102.25Y-108.5
X102.5Y-116.
X102.5Y-120.25
X102.75Y-101.25
X102.75Y-103.75
X103.Y-109.
X103.Y-110.
X103.Y-114.5
X103.5Y-103.25
X104.Y-110.
X104.25Y-107.25
X105.Y-100.5
X105.Y-112.
X105.Y-120.25
X105.25Y-66.5
X105.25Y-67.
X105.25Y-68.
X105.25Y-70.
X105.25Y-71.75
X105.25Y-73.75
X105.25Y-74.75
X105.25Y-75.25
X105.25Y-76.25
X105.25Y-78.25
X105.25Y-80.
X105.25Y-82.
X105.25Y-83.
X105.25Y-83.75
X105.25Y-85.5
X105.25Y-104.75
X106.Y-105.25
X106.75Y-113.
X108.25Y-106.5
X108.75Y-68.
X108.75Y-69.75
X108.75Y-71.75
X108.75Y-73.75
X108.75Y-76.25
X108.75Y-78.
X108.75Y-80.
X108.75Y-81.75
X108.75Y-82.75
X108.75Y-84.
X109.25Y-110.5
X109.5Y-70.
X109.5Y-74.5
X109.5Y-78.5
X110.25Y-69.75
X110.25Y-73.75
X110.25Y-78.
X110.25Y-106.75
X110.25Y-119.75
X110.5Y-116.25
X111.75Y-114.5
X112.Y-116.25
X112.25Y-119.75
X113.25Y-110.5
X114.5Y-118.75
X115.Y-65.
X115.Y-77.
X115.Y-89.
X115.Y-112.5
X115.Y-114.5
X115.Y-117.25
X117.Y-65.
X117.Y-77.
X117.Y-89.
X117.Y-115.75
X117.Y-117.5
X117.75Y-120.
X118.Y-115.75
X118.Y-118.25
X119.Y-65.
X119.Y-77.
X119.Y-89.
X119.Y-113.25
X119.Y-114.25
X121.Y-65.
X121.Y-77.
X121.Y-89.
X123.Y-65.
X123.Y-77.
X123.Y-89.
X123.5Y-113.25
X124.5Y-115.75
X124.5Y-118.25
X125.Y-65.
X125.Y-77.
X125.Y-89.
X125.75Y-99.
X129.Y-117.
X129.25Y-119.
X130.Y-55.75
X130.Y-105.5
X130.Y-106.5
X130.75Y-113.25
X130.75Y-120.5
X131.Y-104.5
X131.Y-105.5
X132.25Y-120.5
X133.25Y-120.25
X134.Y-119.75
X134.5Y-55.5
X140.25Y-114.5
X140.25Y-118.75
X142.Y-109.25
X143.25Y-116.75
X144.75Y-116.75
X146.Y-119.75
X147.25Y-116.75
X148.5Y-119.75
X149.5Y-84.5
X149.5Y-87.25
X151.5Y-113.25
X152.Y-117.5
X154.5Y-90.25
X156.Y-91.75
X160.5Y-91.5
X161.Y-109.25
X161.75Y-120.
X162.5Y-91.5
X162.75Y-116.75
X164.25Y-116.75
X164.5Y-91.5
X165.5Y-120.
X166.5Y-91.5
X166.75Y-116.75
X168.Y-120.
X168.5Y-91.5
X169.75Y-115.5
X170.5Y-91.5
X170.75Y-118.25
X171.Y-112.5
X180.25Y-112.25
X189.25Y-109.5
X192.Y-92.75
X192.75Y-71.75
X193.Y-103.
X194.Y-103.
X194.75Y-109.
X194.75Y-111.
X195.5Y-116.
X197.5Y-116.
X198.Y-100.
X198.Y-101.5
X198.Y-103.
X198.Y-104.5
X198.Y-106.
T2
X76.23Y-97.
X77.5Y-97.
T3
X77.Y-54.
X77.Y-89.
X79.54Y-54.
X79.54Y-89.
X82.08Y-54.
X82.08Y-89.
X84.62Y-54.
X84.62Y-89.
X87.16Y-54.
X87.16Y-89.
X89.7Y-54.
X89.7Y-89.
X92.24Y-54.
X92.24Y-89.
X94.78Y-54.
X94.78Y-89.
X138.78Y-98.45
X138.78Y-100.99
X138.98Y-69.4
X138.98Y-71.94
X138.98Y-74.48
X138.98Y-77.02
X138.98Y-79.56
X138.98Y-82.1
X138.98Y-84.64
X138.98Y-87.18
X141.32Y-98.45
X141.32Y-100.99
X143.86Y-98.45
X143.86Y-100.99
X144.48Y-69.4
X144.48Y-71.94
X144.48Y-74.48
X144.48Y-77.02
X144.48Y-79.56
X144.48Y-82.1
X144.48Y-84.64
X144.48Y-87.18
X146.4Y-98.45
X146.4Y-100.99
X148.94Y-98.45
X148.94Y-100.99
X151.48Y-98.45
X151.48Y-100.99
X151.98Y-69.4
X151.98Y-71.94
X151.98Y-74.48
X151.98Y-77.02
X151.98Y-79.56
X151.98Y-82.1
X151.98Y-84.64
X151.98Y-87.18
X157.48Y-69.4
X157.48Y-71.94
X157.48Y-74.48
X157.48Y-77.02
X157.48Y-79.56
X157.48Y-82.1
X157.48Y-84.64
X157.48Y-87.18
X158.52Y-98.45
X158.52Y-100.99
X161.06Y-98.45
X161.06Y-100.99
X163.6Y-98.45
X163.6Y-100.99
X166.14Y-98.45
X166.14Y-100.99
X168.68Y-98.45
X168.68Y-100.99
X171.22Y-98.45
X171.22Y-100.99
T4
X164.Y-84.6
X172.1Y-84.6
T5
X102.Y-60.
X102.Y-90.
T0
M30
