G04 #@! TF.FileFunction,Soldermask,Bot*
%FSLAX46Y46*%
G04 Gerber Fmt 4.6, Leading zero omitted, Abs format (unit mm)*
G04 Created by KiCad (PCBNEW 4.0.7-e2-6376~58~ubuntu16.04.1) date Mon Jun 18 09:55:01 2018*
%MOMM*%
%LPD*%
G01*
G04 APERTURE LIST*
%ADD10C,0.100000*%
%ADD11C,3.500000*%
%ADD12R,1.300000X1.550000*%
%ADD13R,1.050000X1.100000*%
%ADD14R,1.550000X1.300000*%
%ADD15R,1.100000X1.050000*%
%ADD16R,1.500000X0.700000*%
%ADD17R,3.000000X3.900000*%
%ADD18R,0.800000X1.200000*%
%ADD19R,1.300000X1.300000*%
%ADD20O,1.300000X1.300000*%
%ADD21R,1.100000X1.200000*%
%ADD22R,2.000000X2.000000*%
%ADD23O,2.000000X2.000000*%
%ADD24C,5.900000*%
%ADD25R,2.100000X1.500000*%
%ADD26C,1.900000*%
%ADD27C,3.700000*%
%ADD28C,2.100000*%
G04 APERTURE END LIST*
D10*
D11*
X79000000Y-75000000D03*
D12*
X94500000Y-85500000D03*
X92500000Y-85500000D03*
D13*
X94500000Y-73250000D03*
X94500000Y-71750000D03*
D12*
X93750000Y-79250000D03*
X91750000Y-79250000D03*
X93750000Y-77000000D03*
X91750000Y-77000000D03*
D14*
X128500000Y-61000000D03*
X128500000Y-63000000D03*
X128500000Y-73000000D03*
X128500000Y-75000000D03*
X128500000Y-85000000D03*
X128500000Y-87000000D03*
X128500000Y-97000000D03*
X128500000Y-99000000D03*
D13*
X128500000Y-55750000D03*
X128500000Y-57250000D03*
X128500000Y-67750000D03*
X128500000Y-69250000D03*
X128500000Y-79750000D03*
X128500000Y-81250000D03*
X128500000Y-91750000D03*
X128500000Y-93250000D03*
D15*
X86000000Y-111750000D03*
X84500000Y-111750000D03*
D13*
X154250000Y-100500000D03*
X154250000Y-99000000D03*
D15*
X86000000Y-105750000D03*
X84500000Y-105750000D03*
X86000000Y-110250000D03*
X84500000Y-110250000D03*
D13*
X87750000Y-114250000D03*
X87750000Y-115750000D03*
D15*
X100000000Y-101250000D03*
X101500000Y-101250000D03*
D13*
X98500000Y-117750000D03*
X98500000Y-116250000D03*
X107500000Y-116250000D03*
X107500000Y-117750000D03*
D15*
X112750000Y-114500000D03*
X114250000Y-114500000D03*
D13*
X110500000Y-117250000D03*
X110500000Y-118750000D03*
X112000000Y-117250000D03*
X112000000Y-118750000D03*
D15*
X128000000Y-115750000D03*
X126500000Y-115750000D03*
X128000000Y-118250000D03*
X126500000Y-118250000D03*
X122000000Y-113500000D03*
X120500000Y-113500000D03*
X136250000Y-105500000D03*
X134750000Y-105500000D03*
X162750000Y-115500000D03*
X164250000Y-115500000D03*
X143250000Y-115500000D03*
X144750000Y-115500000D03*
X168250000Y-115500000D03*
X166750000Y-115500000D03*
X148750000Y-115500000D03*
X147250000Y-115500000D03*
D16*
X97300000Y-83572500D03*
X97300000Y-82937500D03*
X97300000Y-82302500D03*
X97300000Y-81667500D03*
X97300000Y-81032500D03*
X97300000Y-80397500D03*
X97300000Y-79762500D03*
X97300000Y-79127500D03*
X97300000Y-78492500D03*
X97300000Y-77857500D03*
X97300000Y-77222500D03*
X97300000Y-76587500D03*
X97300000Y-75952500D03*
X97300000Y-75317500D03*
X97300000Y-74682500D03*
X97300000Y-74047500D03*
X97300000Y-73412500D03*
X97300000Y-72777500D03*
X97300000Y-72142500D03*
X97300000Y-71507500D03*
X97300000Y-70872500D03*
X97300000Y-70237500D03*
X97300000Y-69602500D03*
X97300000Y-68967500D03*
X97300000Y-68332500D03*
X97300000Y-67697500D03*
X97300000Y-67062500D03*
X97300000Y-66427500D03*
X106700000Y-66427500D03*
X106700000Y-67062500D03*
X106700000Y-67697500D03*
X106700000Y-68332500D03*
X106700000Y-68967500D03*
X106700000Y-69602500D03*
X106700000Y-70237500D03*
X106700000Y-70872500D03*
X106700000Y-71507500D03*
X106700000Y-72142500D03*
X106700000Y-72777500D03*
X106700000Y-73412500D03*
X106700000Y-74047500D03*
X106700000Y-74682500D03*
X106700000Y-75317500D03*
X106700000Y-75952500D03*
X106700000Y-76587500D03*
X106700000Y-77222500D03*
X106700000Y-77857500D03*
X106700000Y-78492500D03*
X106700000Y-79127500D03*
X106700000Y-79762500D03*
X106700000Y-80397500D03*
X106700000Y-81032500D03*
X106700000Y-81667500D03*
X106700000Y-82302500D03*
X106700000Y-82937500D03*
X106700000Y-83572500D03*
D17*
X115850000Y-59000000D03*
X124150000Y-59000000D03*
X115850000Y-71000000D03*
X124150000Y-71000000D03*
X115850000Y-83000000D03*
X124150000Y-83000000D03*
X115850000Y-95000000D03*
X124150000Y-95000000D03*
D18*
X155750000Y-105750000D03*
X154250000Y-105750000D03*
X155750000Y-103750000D03*
X154250000Y-103750000D03*
X163250000Y-107000000D03*
X161750000Y-107000000D03*
X163250000Y-105000000D03*
X161750000Y-105000000D03*
X119000000Y-115750000D03*
X120500000Y-115750000D03*
X119000000Y-118250000D03*
X120500000Y-118250000D03*
X122000000Y-115750000D03*
X123500000Y-115750000D03*
X122000000Y-118250000D03*
X123500000Y-118250000D03*
X134750000Y-98500000D03*
X136250000Y-98500000D03*
X134750000Y-101000000D03*
X136250000Y-101000000D03*
X136250000Y-103500000D03*
X134750000Y-103500000D03*
D19*
X77500000Y-97000000D03*
D20*
X76230000Y-97000000D03*
D21*
X154050000Y-93500000D03*
X155950000Y-93500000D03*
X155000000Y-95500000D03*
X145200000Y-95500000D03*
X143300000Y-95500000D03*
X144250000Y-93500000D03*
D22*
X77000000Y-89000000D03*
D23*
X79540000Y-89000000D03*
X82080000Y-89000000D03*
X84620000Y-89000000D03*
X87160000Y-89000000D03*
X89700000Y-89000000D03*
X92240000Y-89000000D03*
X94780000Y-89000000D03*
D22*
X77000000Y-54000000D03*
D23*
X79540000Y-54000000D03*
X82080000Y-54000000D03*
X84620000Y-54000000D03*
X87160000Y-54000000D03*
X89700000Y-54000000D03*
X92240000Y-54000000D03*
X94780000Y-54000000D03*
D24*
X102000000Y-90000000D03*
X102000000Y-60000000D03*
D11*
X175000000Y-116000000D03*
D25*
X101000000Y-115800000D03*
X105000000Y-115800000D03*
X105000000Y-118200000D03*
X101000000Y-118200000D03*
D26*
X138780000Y-98450000D03*
X141320000Y-98450000D03*
X143860000Y-98450000D03*
X146400000Y-98450000D03*
X148940000Y-98450000D03*
X151480000Y-98450000D03*
X138780000Y-100990000D03*
X141320000Y-100990000D03*
X143860000Y-100990000D03*
X146400000Y-100990000D03*
X148940000Y-100990000D03*
X151480000Y-100990000D03*
X158520000Y-98450000D03*
X161060000Y-98450000D03*
X163600000Y-98450000D03*
X166140000Y-98450000D03*
X168680000Y-98450000D03*
X171220000Y-98450000D03*
X158520000Y-100990000D03*
X161060000Y-100990000D03*
X163600000Y-100990000D03*
X166140000Y-100990000D03*
X168680000Y-100990000D03*
X171220000Y-100990000D03*
X138980000Y-69400000D03*
X138980000Y-74480000D03*
X138980000Y-79560000D03*
X138980000Y-84640000D03*
X144480000Y-69400000D03*
X144480000Y-74480000D03*
X144480000Y-79560000D03*
X144480000Y-84640000D03*
X151980000Y-69400000D03*
X151980000Y-74480000D03*
X151980000Y-79560000D03*
X151980000Y-84640000D03*
X157480000Y-69400000D03*
X157480000Y-74480000D03*
X157480000Y-79560000D03*
X157480000Y-84640000D03*
X138980000Y-71940000D03*
X138980000Y-77020000D03*
X138980000Y-82100000D03*
X138980000Y-87180000D03*
X144480000Y-71940000D03*
X144480000Y-77020000D03*
X144480000Y-82100000D03*
X144480000Y-87180000D03*
X151980000Y-71940000D03*
X151980000Y-77020000D03*
X151980000Y-82100000D03*
X151980000Y-87180000D03*
X157480000Y-71940000D03*
X157480000Y-77020000D03*
X157480000Y-82100000D03*
X157480000Y-87180000D03*
D27*
X135000000Y-91000000D03*
X175000000Y-91000000D03*
X133500000Y-70700000D03*
D28*
X164000000Y-84600000D03*
X172100000Y-84600000D03*
D15*
X92000000Y-82750000D03*
X93500000Y-82750000D03*
X92000000Y-81000000D03*
X93500000Y-81000000D03*
M02*
