G04 #@! TF.FileFunction,Legend,Top*
%FSLAX46Y46*%
G04 Gerber Fmt 4.6, Leading zero omitted, Abs format (unit mm)*
G04 Created by KiCad (PCBNEW 4.0.7-e2-6376~58~ubuntu16.04.1) date Mon Jun 18 09:55:01 2018*
%MOMM*%
%LPD*%
G01*
G04 APERTURE LIST*
%ADD10C,0.100000*%
%ADD11C,0.120000*%
%ADD12C,0.150000*%
G04 APERTURE END LIST*
D10*
D11*
X107890000Y-112390000D02*
X108600000Y-112390000D01*
X114110000Y-118610000D02*
X113400000Y-118610000D01*
X114110000Y-112390000D02*
X113400000Y-112390000D01*
X114110000Y-118610000D02*
X114110000Y-117900000D01*
X114110000Y-112390000D02*
X114110000Y-113100000D01*
X107890000Y-112390000D02*
X107890000Y-113100000D01*
X107890000Y-117900000D02*
X107890000Y-118610000D01*
X101000000Y-66980000D02*
X103000000Y-66980000D01*
X103000000Y-64020000D02*
X101000000Y-64020000D01*
X101650000Y-67650000D02*
X102350000Y-67650000D01*
X102350000Y-68850000D02*
X101650000Y-68850000D01*
X101000000Y-76480000D02*
X103000000Y-76480000D01*
X103000000Y-73520000D02*
X101000000Y-73520000D01*
X101650000Y-71650000D02*
X102350000Y-71650000D01*
X102350000Y-72850000D02*
X101650000Y-72850000D01*
X101000000Y-85980000D02*
X103000000Y-85980000D01*
X103000000Y-83020000D02*
X101000000Y-83020000D01*
X101650000Y-81150000D02*
X102350000Y-81150000D01*
X102350000Y-82350000D02*
X101650000Y-82350000D01*
X128350000Y-62500000D02*
X128350000Y-61500000D01*
X126650000Y-61500000D02*
X126650000Y-62500000D01*
X128350000Y-74500000D02*
X128350000Y-73500000D01*
X126650000Y-73500000D02*
X126650000Y-74500000D01*
X128350000Y-86500000D02*
X128350000Y-85500000D01*
X126650000Y-85500000D02*
X126650000Y-86500000D01*
X128350000Y-98500000D02*
X128350000Y-97500000D01*
X126650000Y-97500000D02*
X126650000Y-98500000D01*
X128100000Y-56150000D02*
X128100000Y-56850000D01*
X126900000Y-56850000D02*
X126900000Y-56150000D01*
X128100000Y-68150000D02*
X128100000Y-68850000D01*
X126900000Y-68850000D02*
X126900000Y-68150000D01*
X128100000Y-80150000D02*
X128100000Y-80850000D01*
X126900000Y-80850000D02*
X126900000Y-80150000D01*
X128100000Y-92150000D02*
X128100000Y-92850000D01*
X126900000Y-92850000D02*
X126900000Y-92150000D01*
X77100000Y-117100000D02*
X76400000Y-117100000D01*
X76400000Y-115900000D02*
X77100000Y-115900000D01*
X76400000Y-117900000D02*
X77100000Y-117900000D01*
X77100000Y-119100000D02*
X76400000Y-119100000D01*
X96650000Y-116900000D02*
X97350000Y-116900000D01*
X97350000Y-118100000D02*
X96650000Y-118100000D01*
X104350000Y-100900000D02*
X104350000Y-101600000D01*
X103150000Y-101600000D02*
X103150000Y-100900000D01*
X81350000Y-110600000D02*
X80650000Y-110600000D01*
X80650000Y-109400000D02*
X81350000Y-109400000D01*
X81100000Y-104650000D02*
X81100000Y-105350000D01*
X79900000Y-105350000D02*
X79900000Y-104650000D01*
X80650000Y-115900000D02*
X81350000Y-115900000D01*
X81350000Y-117100000D02*
X80650000Y-117100000D01*
X82100000Y-100650000D02*
X82100000Y-101350000D01*
X80900000Y-101350000D02*
X80900000Y-100650000D01*
X195600000Y-117850000D02*
X194900000Y-117850000D01*
X194900000Y-116650000D02*
X195600000Y-116650000D01*
X188050000Y-116900000D02*
X183500000Y-116900000D01*
X188050000Y-113600000D02*
X183500000Y-113600000D01*
X188050000Y-116900000D02*
X188050000Y-113600000D01*
X188050000Y-112400000D02*
X183500000Y-112400000D01*
X188050000Y-109100000D02*
X183500000Y-109100000D01*
X188050000Y-112400000D02*
X188050000Y-109100000D01*
X100850000Y-118100000D02*
X100150000Y-118100000D01*
X100150000Y-116900000D02*
X100850000Y-116900000D01*
X87600000Y-96850000D02*
X86900000Y-96850000D01*
X86900000Y-95650000D02*
X87600000Y-95650000D01*
X130150000Y-119100000D02*
X130150000Y-118400000D01*
X131350000Y-118400000D02*
X131350000Y-119100000D01*
X116850000Y-109650000D02*
X116850000Y-110350000D01*
X115650000Y-110350000D02*
X115650000Y-109650000D01*
X114850000Y-109650000D02*
X114850000Y-110350000D01*
X113650000Y-110350000D02*
X113650000Y-109650000D01*
X108600000Y-109150000D02*
X108600000Y-109850000D01*
X107400000Y-109850000D02*
X107400000Y-109150000D01*
X115400000Y-118850000D02*
X115400000Y-118150000D01*
X116600000Y-118150000D02*
X116600000Y-118850000D01*
X117100000Y-115100000D02*
X116400000Y-115100000D01*
X116400000Y-113900000D02*
X117100000Y-113900000D01*
X126100000Y-105400000D02*
X126100000Y-106100000D01*
X124900000Y-106100000D02*
X124900000Y-105400000D01*
X128350000Y-105400000D02*
X128350000Y-106100000D01*
X127150000Y-106100000D02*
X127150000Y-105400000D01*
X167850000Y-110600000D02*
X167150000Y-110600000D01*
X167150000Y-109400000D02*
X167850000Y-109400000D01*
X148350000Y-110600000D02*
X147650000Y-110600000D01*
X147650000Y-109400000D02*
X148350000Y-109400000D01*
X163500000Y-60480000D02*
X161500000Y-60480000D01*
X161500000Y-62520000D02*
X163500000Y-62520000D01*
X161100000Y-55650000D02*
X161100000Y-56350000D01*
X159900000Y-56350000D02*
X159900000Y-55650000D01*
X183350000Y-55000000D02*
X183350000Y-54000000D01*
X181650000Y-54000000D02*
X181650000Y-55000000D01*
X143710000Y-61950000D02*
X143710000Y-59060000D01*
X143710000Y-53050000D02*
X143710000Y-55940000D01*
X133290000Y-52290000D02*
X133290000Y-55940000D01*
X133290000Y-62710000D02*
X133290000Y-59060000D01*
X133290000Y-52290000D02*
X142950000Y-52290000D01*
X142950000Y-52290000D02*
X143710000Y-53050000D01*
X143710000Y-61950000D02*
X142950000Y-62710000D01*
X142950000Y-62710000D02*
X133290000Y-62710000D01*
X179710000Y-61950000D02*
X179710000Y-59060000D01*
X179710000Y-53050000D02*
X179710000Y-55940000D01*
X169290000Y-52290000D02*
X169290000Y-55940000D01*
X169290000Y-62710000D02*
X169290000Y-59060000D01*
X169290000Y-52290000D02*
X178950000Y-52290000D01*
X178950000Y-52290000D02*
X179710000Y-53050000D01*
X179710000Y-61950000D02*
X178950000Y-62710000D01*
X178950000Y-62710000D02*
X169290000Y-62710000D01*
X183350000Y-71900000D02*
X183350000Y-72600000D01*
X182150000Y-72600000D02*
X182150000Y-71900000D01*
X192100000Y-77350000D02*
X191400000Y-77350000D01*
X191400000Y-76150000D02*
X192100000Y-76150000D01*
X186350000Y-104150000D02*
X186350000Y-104850000D01*
X185150000Y-104850000D02*
X185150000Y-104150000D01*
X184000000Y-93600000D02*
X192400000Y-93600000D01*
X184000000Y-98400000D02*
X192400000Y-98400000D01*
X184000000Y-93600000D02*
X184000000Y-98400000D01*
X196850000Y-95650000D02*
X196850000Y-96350000D01*
X195650000Y-96350000D02*
X195650000Y-95650000D01*
D12*
X85875000Y-99875000D02*
X85875000Y-100525000D01*
X100125000Y-99875000D02*
X100125000Y-100635000D01*
X100125000Y-114125000D02*
X100125000Y-113365000D01*
X85875000Y-114125000D02*
X85875000Y-113365000D01*
X85875000Y-99875000D02*
X86635000Y-99875000D01*
X85875000Y-114125000D02*
X86635000Y-114125000D01*
X100125000Y-114125000D02*
X99365000Y-114125000D01*
X100125000Y-99875000D02*
X99365000Y-99875000D01*
X85875000Y-100525000D02*
X84350000Y-100525000D01*
X195825000Y-115325000D02*
X195825000Y-115275000D01*
X191675000Y-115325000D02*
X191675000Y-115180000D01*
X191675000Y-110175000D02*
X191675000Y-110320000D01*
X195825000Y-110175000D02*
X195825000Y-110320000D01*
X195825000Y-115325000D02*
X191675000Y-115325000D01*
X195825000Y-110175000D02*
X191675000Y-110175000D01*
X195825000Y-115275000D02*
X197225000Y-115275000D01*
X186175000Y-69925000D02*
X186175000Y-69975000D01*
X190325000Y-69925000D02*
X190325000Y-70070000D01*
X190325000Y-75075000D02*
X190325000Y-74930000D01*
X186175000Y-75075000D02*
X186175000Y-74930000D01*
X186175000Y-69925000D02*
X190325000Y-69925000D01*
X186175000Y-75075000D02*
X190325000Y-75075000D01*
X186175000Y-69975000D02*
X184775000Y-69975000D01*
D11*
X124300000Y-61100000D02*
X124300000Y-64300000D01*
X124300000Y-64300000D02*
X113700000Y-64300000D01*
X113700000Y-64300000D02*
X113700000Y-61100000D01*
X113700000Y-56900000D02*
X113700000Y-53700000D01*
X113700000Y-53700000D02*
X124300000Y-53700000D01*
X124300000Y-53700000D02*
X124300000Y-56900000D01*
X124300000Y-73100000D02*
X124300000Y-76300000D01*
X124300000Y-76300000D02*
X113700000Y-76300000D01*
X113700000Y-76300000D02*
X113700000Y-73100000D01*
X113700000Y-68900000D02*
X113700000Y-65700000D01*
X113700000Y-65700000D02*
X124300000Y-65700000D01*
X124300000Y-65700000D02*
X124300000Y-68900000D01*
X124300000Y-85100000D02*
X124300000Y-88300000D01*
X124300000Y-88300000D02*
X113700000Y-88300000D01*
X113700000Y-88300000D02*
X113700000Y-85100000D01*
X113700000Y-80900000D02*
X113700000Y-77700000D01*
X113700000Y-77700000D02*
X124300000Y-77700000D01*
X124300000Y-77700000D02*
X124300000Y-80900000D01*
X124300000Y-97100000D02*
X124300000Y-100300000D01*
X124300000Y-100300000D02*
X113700000Y-100300000D01*
X113700000Y-100300000D02*
X113700000Y-97100000D01*
X113700000Y-92900000D02*
X113700000Y-89700000D01*
X113700000Y-89700000D02*
X124300000Y-89700000D01*
X124300000Y-89700000D02*
X124300000Y-92900000D01*
X76400000Y-111870000D02*
X77600000Y-111870000D01*
X77600000Y-113630000D02*
X76400000Y-113630000D01*
X121850000Y-116630000D02*
X120650000Y-116630000D01*
X120650000Y-114870000D02*
X121850000Y-114870000D01*
X121850000Y-119130000D02*
X120650000Y-119130000D01*
X120650000Y-117370000D02*
X121850000Y-117370000D01*
X131630000Y-114400000D02*
X131630000Y-115600000D01*
X129870000Y-115600000D02*
X129870000Y-114400000D01*
X121850000Y-113630000D02*
X120650000Y-113630000D01*
X120650000Y-111870000D02*
X121850000Y-111870000D01*
X118630000Y-105650000D02*
X118630000Y-106850000D01*
X116870000Y-106850000D02*
X116870000Y-105650000D01*
X147200000Y-55400000D02*
X147200000Y-52200000D01*
X147200000Y-52200000D02*
X157800000Y-52200000D01*
X157800000Y-52200000D02*
X157800000Y-55400000D01*
X157800000Y-59600000D02*
X157800000Y-62800000D01*
X157800000Y-62800000D02*
X147200000Y-62800000D01*
X147200000Y-62800000D02*
X147200000Y-59600000D01*
X187700000Y-65300000D02*
X184700000Y-65300000D01*
X184700000Y-65300000D02*
X184700000Y-52700000D01*
X184700000Y-52700000D02*
X187700000Y-52700000D01*
X194300000Y-52700000D02*
X197300000Y-52700000D01*
X197300000Y-52700000D02*
X197300000Y-65300000D01*
X197300000Y-65300000D02*
X194300000Y-65300000D01*
X184200000Y-81700000D02*
X184200000Y-78700000D01*
X184200000Y-78700000D02*
X196800000Y-78700000D01*
X196800000Y-78700000D02*
X196800000Y-81700000D01*
X196800000Y-88300000D02*
X196800000Y-91300000D01*
X196800000Y-91300000D02*
X184200000Y-91300000D01*
X184200000Y-91300000D02*
X184200000Y-88300000D01*
X80500000Y-107320000D02*
X81500000Y-107320000D01*
X81500000Y-108680000D02*
X80500000Y-108680000D01*
X103070000Y-117250000D02*
X103070000Y-116250000D01*
X104430000Y-116250000D02*
X104430000Y-117250000D01*
X80500000Y-117820000D02*
X81500000Y-117820000D01*
X81500000Y-119180000D02*
X80500000Y-119180000D01*
X88000000Y-85680000D02*
X87000000Y-85680000D01*
X87000000Y-84320000D02*
X88000000Y-84320000D01*
X88000000Y-83680000D02*
X87000000Y-83680000D01*
X87000000Y-82320000D02*
X88000000Y-82320000D01*
X85180000Y-117000000D02*
X85180000Y-118000000D01*
X83820000Y-118000000D02*
X83820000Y-117000000D01*
X88000000Y-72680000D02*
X87000000Y-72680000D01*
X87000000Y-71320000D02*
X88000000Y-71320000D01*
X88000000Y-70680000D02*
X87000000Y-70680000D01*
X87000000Y-69320000D02*
X88000000Y-69320000D01*
X79320000Y-98250000D02*
X79320000Y-97250000D01*
X80680000Y-97250000D02*
X80680000Y-98250000D01*
X108930000Y-104250000D02*
X108930000Y-105250000D01*
X107570000Y-105250000D02*
X107570000Y-104250000D01*
X91000000Y-118180000D02*
X90000000Y-118180000D01*
X90000000Y-116820000D02*
X91000000Y-116820000D01*
X110930000Y-104250000D02*
X110930000Y-105250000D01*
X109570000Y-105250000D02*
X109570000Y-104250000D01*
X112930000Y-104250000D02*
X112930000Y-105250000D01*
X111570000Y-105250000D02*
X111570000Y-104250000D01*
X114930000Y-104250000D02*
X114930000Y-105250000D01*
X113570000Y-105250000D02*
X113570000Y-104250000D01*
X122000000Y-110680000D02*
X121000000Y-110680000D01*
X121000000Y-109320000D02*
X122000000Y-109320000D01*
X122000000Y-108930000D02*
X121000000Y-108930000D01*
X121000000Y-107570000D02*
X122000000Y-107570000D01*
X163000000Y-109320000D02*
X164000000Y-109320000D01*
X164000000Y-110680000D02*
X163000000Y-110680000D01*
X143500000Y-109320000D02*
X144500000Y-109320000D01*
X144500000Y-110680000D02*
X143500000Y-110680000D01*
X155750000Y-109820000D02*
X156750000Y-109820000D01*
X156750000Y-111180000D02*
X155750000Y-111180000D01*
X136500000Y-109820000D02*
X137500000Y-109820000D01*
X137500000Y-111180000D02*
X136500000Y-111180000D01*
X182070000Y-69250000D02*
X182070000Y-68250000D01*
X183430000Y-68250000D02*
X183430000Y-69250000D01*
X75535000Y-95890000D02*
X75535000Y-96692470D01*
X75535000Y-97307530D02*
X75535000Y-98110000D01*
X76740000Y-95890000D02*
X75535000Y-95890000D01*
X76740000Y-98110000D02*
X75535000Y-98110000D01*
X76740000Y-95890000D02*
X76740000Y-96436529D01*
X76740000Y-97563471D02*
X76740000Y-98110000D01*
X77500000Y-95890000D02*
X78260000Y-95890000D01*
X78260000Y-95890000D02*
X78260000Y-97000000D01*
X127260000Y-118580000D02*
X127260000Y-117650000D01*
X127260000Y-115420000D02*
X127260000Y-116350000D01*
X127260000Y-115420000D02*
X125100000Y-115420000D01*
X127260000Y-118580000D02*
X125800000Y-118580000D01*
X165650000Y-52100000D02*
X162350000Y-52100000D01*
X162350000Y-52100000D02*
X162350000Y-57500000D01*
X165650000Y-52100000D02*
X165650000Y-57500000D01*
X193850000Y-76150000D02*
X197150000Y-76150000D01*
X197150000Y-76150000D02*
X197150000Y-70750000D01*
X193850000Y-76150000D02*
X193850000Y-70750000D01*
X96110000Y-90330000D02*
X96110000Y-87670000D01*
X78270000Y-90330000D02*
X96110000Y-90330000D01*
X78270000Y-87670000D02*
X96110000Y-87670000D01*
X78270000Y-90330000D02*
X78270000Y-87670000D01*
X77000000Y-90330000D02*
X75670000Y-90330000D01*
X75670000Y-90330000D02*
X75670000Y-89000000D01*
X96110000Y-55330000D02*
X96110000Y-52670000D01*
X78270000Y-55330000D02*
X96110000Y-55330000D01*
X78270000Y-52670000D02*
X96110000Y-52670000D01*
X78270000Y-55330000D02*
X78270000Y-52670000D01*
X77000000Y-55330000D02*
X75670000Y-55330000D01*
X75670000Y-55330000D02*
X75670000Y-54000000D01*
X194910000Y-106410000D02*
X194910000Y-105150000D01*
X194910000Y-99590000D02*
X194910000Y-100850000D01*
X191150000Y-106410000D02*
X194910000Y-106410000D01*
X188900000Y-99590000D02*
X194910000Y-99590000D01*
D12*
X161050000Y-117575000D02*
X161075000Y-117575000D01*
X161050000Y-113425000D02*
X161165000Y-113425000D01*
X169950000Y-113425000D02*
X169835000Y-113425000D01*
X169950000Y-117575000D02*
X169835000Y-117575000D01*
X161050000Y-117575000D02*
X161050000Y-113425000D01*
X169950000Y-117575000D02*
X169950000Y-113425000D01*
X161075000Y-117575000D02*
X161075000Y-118950000D01*
X141550000Y-117575000D02*
X141575000Y-117575000D01*
X141550000Y-113425000D02*
X141665000Y-113425000D01*
X150450000Y-113425000D02*
X150335000Y-113425000D01*
X150450000Y-117575000D02*
X150335000Y-117575000D01*
X141550000Y-117575000D02*
X141550000Y-113425000D01*
X150450000Y-117575000D02*
X150450000Y-113425000D01*
X141575000Y-117575000D02*
X141575000Y-118950000D01*
D11*
X107100000Y-68600000D02*
X106400000Y-68600000D01*
X106400000Y-67400000D02*
X107100000Y-67400000D01*
X107100000Y-70600000D02*
X106400000Y-70600000D01*
X106400000Y-69400000D02*
X107100000Y-69400000D01*
X107100000Y-72350000D02*
X106400000Y-72350000D01*
X106400000Y-71150000D02*
X107100000Y-71150000D01*
X107100000Y-74350000D02*
X106400000Y-74350000D01*
X106400000Y-73150000D02*
X107100000Y-73150000D01*
X107100000Y-76850000D02*
X106400000Y-76850000D01*
X106400000Y-75650000D02*
X107100000Y-75650000D01*
X107100000Y-78850000D02*
X106400000Y-78850000D01*
X106400000Y-77650000D02*
X107100000Y-77650000D01*
X107100000Y-80600000D02*
X106400000Y-80600000D01*
X106400000Y-79400000D02*
X107100000Y-79400000D01*
X107100000Y-82600000D02*
X106400000Y-82600000D01*
X106400000Y-81400000D02*
X107100000Y-81400000D01*
D12*
X130000000Y-107000000D02*
X130000000Y-65000000D01*
X130000000Y-65000000D02*
X180000000Y-65000000D01*
X180000000Y-65000000D02*
X180000000Y-107000000D01*
X180000000Y-107000000D02*
X130000000Y-107000000D01*
D11*
X97600000Y-80100000D02*
X96900000Y-80100000D01*
X96900000Y-78900000D02*
X97600000Y-78900000D01*
D12*
X106761905Y-120452381D02*
X106761905Y-119452381D01*
X107000000Y-119452381D01*
X107142858Y-119500000D01*
X107238096Y-119595238D01*
X107285715Y-119690476D01*
X107333334Y-119880952D01*
X107333334Y-120023810D01*
X107285715Y-120214286D01*
X107238096Y-120309524D01*
X107142858Y-120404762D01*
X107000000Y-120452381D01*
X106761905Y-120452381D01*
X108190477Y-119785714D02*
X108190477Y-120452381D01*
X107952381Y-119404762D02*
X107714286Y-120119048D01*
X108333334Y-120119048D01*
X105583334Y-64607143D02*
X105535715Y-64654762D01*
X105392858Y-64702381D01*
X105297620Y-64702381D01*
X105154762Y-64654762D01*
X105059524Y-64559524D01*
X105011905Y-64464286D01*
X104964286Y-64273810D01*
X104964286Y-64130952D01*
X105011905Y-63940476D01*
X105059524Y-63845238D01*
X105154762Y-63750000D01*
X105297620Y-63702381D01*
X105392858Y-63702381D01*
X105535715Y-63750000D01*
X105583334Y-63797619D01*
X105916667Y-63702381D02*
X106535715Y-63702381D01*
X106202381Y-64083333D01*
X106345239Y-64083333D01*
X106440477Y-64130952D01*
X106488096Y-64178571D01*
X106535715Y-64273810D01*
X106535715Y-64511905D01*
X106488096Y-64607143D01*
X106440477Y-64654762D01*
X106345239Y-64702381D01*
X106059524Y-64702381D01*
X105964286Y-64654762D01*
X105916667Y-64607143D01*
X99083334Y-68607143D02*
X99035715Y-68654762D01*
X98892858Y-68702381D01*
X98797620Y-68702381D01*
X98654762Y-68654762D01*
X98559524Y-68559524D01*
X98511905Y-68464286D01*
X98464286Y-68273810D01*
X98464286Y-68130952D01*
X98511905Y-67940476D01*
X98559524Y-67845238D01*
X98654762Y-67750000D01*
X98797620Y-67702381D01*
X98892858Y-67702381D01*
X99035715Y-67750000D01*
X99083334Y-67797619D01*
X99988096Y-67702381D02*
X99511905Y-67702381D01*
X99464286Y-68178571D01*
X99511905Y-68130952D01*
X99607143Y-68083333D01*
X99845239Y-68083333D01*
X99940477Y-68130952D01*
X99988096Y-68178571D01*
X100035715Y-68273810D01*
X100035715Y-68511905D01*
X99988096Y-68607143D01*
X99940477Y-68654762D01*
X99845239Y-68702381D01*
X99607143Y-68702381D01*
X99511905Y-68654762D01*
X99464286Y-68607143D01*
X101833334Y-77607143D02*
X101785715Y-77654762D01*
X101642858Y-77702381D01*
X101547620Y-77702381D01*
X101404762Y-77654762D01*
X101309524Y-77559524D01*
X101261905Y-77464286D01*
X101214286Y-77273810D01*
X101214286Y-77130952D01*
X101261905Y-76940476D01*
X101309524Y-76845238D01*
X101404762Y-76750000D01*
X101547620Y-76702381D01*
X101642858Y-76702381D01*
X101785715Y-76750000D01*
X101833334Y-76797619D01*
X102166667Y-76702381D02*
X102833334Y-76702381D01*
X102404762Y-77702381D01*
X99083334Y-72607143D02*
X99035715Y-72654762D01*
X98892858Y-72702381D01*
X98797620Y-72702381D01*
X98654762Y-72654762D01*
X98559524Y-72559524D01*
X98511905Y-72464286D01*
X98464286Y-72273810D01*
X98464286Y-72130952D01*
X98511905Y-71940476D01*
X98559524Y-71845238D01*
X98654762Y-71750000D01*
X98797620Y-71702381D01*
X98892858Y-71702381D01*
X99035715Y-71750000D01*
X99083334Y-71797619D01*
X99559524Y-72702381D02*
X99750000Y-72702381D01*
X99845239Y-72654762D01*
X99892858Y-72607143D01*
X99988096Y-72464286D01*
X100035715Y-72273810D01*
X100035715Y-71892857D01*
X99988096Y-71797619D01*
X99940477Y-71750000D01*
X99845239Y-71702381D01*
X99654762Y-71702381D01*
X99559524Y-71750000D01*
X99511905Y-71797619D01*
X99464286Y-71892857D01*
X99464286Y-72130952D01*
X99511905Y-72226190D01*
X99559524Y-72273810D01*
X99654762Y-72321429D01*
X99845239Y-72321429D01*
X99940477Y-72273810D01*
X99988096Y-72226190D01*
X100035715Y-72130952D01*
X105357143Y-86107143D02*
X105309524Y-86154762D01*
X105166667Y-86202381D01*
X105071429Y-86202381D01*
X104928571Y-86154762D01*
X104833333Y-86059524D01*
X104785714Y-85964286D01*
X104738095Y-85773810D01*
X104738095Y-85630952D01*
X104785714Y-85440476D01*
X104833333Y-85345238D01*
X104928571Y-85250000D01*
X105071429Y-85202381D01*
X105166667Y-85202381D01*
X105309524Y-85250000D01*
X105357143Y-85297619D01*
X106309524Y-86202381D02*
X105738095Y-86202381D01*
X106023809Y-86202381D02*
X106023809Y-85202381D01*
X105928571Y-85345238D01*
X105833333Y-85440476D01*
X105738095Y-85488095D01*
X107261905Y-86202381D02*
X106690476Y-86202381D01*
X106976190Y-86202381D02*
X106976190Y-85202381D01*
X106880952Y-85345238D01*
X106785714Y-85440476D01*
X106690476Y-85488095D01*
X101107143Y-80607143D02*
X101059524Y-80654762D01*
X100916667Y-80702381D01*
X100821429Y-80702381D01*
X100678571Y-80654762D01*
X100583333Y-80559524D01*
X100535714Y-80464286D01*
X100488095Y-80273810D01*
X100488095Y-80130952D01*
X100535714Y-79940476D01*
X100583333Y-79845238D01*
X100678571Y-79750000D01*
X100821429Y-79702381D01*
X100916667Y-79702381D01*
X101059524Y-79750000D01*
X101107143Y-79797619D01*
X102059524Y-80702381D02*
X101488095Y-80702381D01*
X101773809Y-80702381D02*
X101773809Y-79702381D01*
X101678571Y-79845238D01*
X101583333Y-79940476D01*
X101488095Y-79988095D01*
X102392857Y-79702381D02*
X103011905Y-79702381D01*
X102678571Y-80083333D01*
X102821429Y-80083333D01*
X102916667Y-80130952D01*
X102964286Y-80178571D01*
X103011905Y-80273810D01*
X103011905Y-80511905D01*
X102964286Y-80607143D01*
X102916667Y-80654762D01*
X102821429Y-80702381D01*
X102535714Y-80702381D01*
X102440476Y-80654762D01*
X102392857Y-80607143D01*
X129357143Y-62642857D02*
X129404762Y-62690476D01*
X129452381Y-62833333D01*
X129452381Y-62928571D01*
X129404762Y-63071429D01*
X129309524Y-63166667D01*
X129214286Y-63214286D01*
X129023810Y-63261905D01*
X128880952Y-63261905D01*
X128690476Y-63214286D01*
X128595238Y-63166667D01*
X128500000Y-63071429D01*
X128452381Y-62928571D01*
X128452381Y-62833333D01*
X128500000Y-62690476D01*
X128547619Y-62642857D01*
X128547619Y-62261905D02*
X128500000Y-62214286D01*
X128452381Y-62119048D01*
X128452381Y-61880952D01*
X128500000Y-61785714D01*
X128547619Y-61738095D01*
X128642857Y-61690476D01*
X128738095Y-61690476D01*
X128880952Y-61738095D01*
X129452381Y-62309524D01*
X129452381Y-61690476D01*
X128547619Y-61309524D02*
X128500000Y-61261905D01*
X128452381Y-61166667D01*
X128452381Y-60928571D01*
X128500000Y-60833333D01*
X128547619Y-60785714D01*
X128642857Y-60738095D01*
X128738095Y-60738095D01*
X128880952Y-60785714D01*
X129452381Y-61357143D01*
X129452381Y-60738095D01*
X129357143Y-74642857D02*
X129404762Y-74690476D01*
X129452381Y-74833333D01*
X129452381Y-74928571D01*
X129404762Y-75071429D01*
X129309524Y-75166667D01*
X129214286Y-75214286D01*
X129023810Y-75261905D01*
X128880952Y-75261905D01*
X128690476Y-75214286D01*
X128595238Y-75166667D01*
X128500000Y-75071429D01*
X128452381Y-74928571D01*
X128452381Y-74833333D01*
X128500000Y-74690476D01*
X128547619Y-74642857D01*
X128547619Y-74261905D02*
X128500000Y-74214286D01*
X128452381Y-74119048D01*
X128452381Y-73880952D01*
X128500000Y-73785714D01*
X128547619Y-73738095D01*
X128642857Y-73690476D01*
X128738095Y-73690476D01*
X128880952Y-73738095D01*
X129452381Y-74309524D01*
X129452381Y-73690476D01*
X128452381Y-73357143D02*
X128452381Y-72738095D01*
X128833333Y-73071429D01*
X128833333Y-72928571D01*
X128880952Y-72833333D01*
X128928571Y-72785714D01*
X129023810Y-72738095D01*
X129261905Y-72738095D01*
X129357143Y-72785714D01*
X129404762Y-72833333D01*
X129452381Y-72928571D01*
X129452381Y-73214286D01*
X129404762Y-73309524D01*
X129357143Y-73357143D01*
X129357143Y-86642857D02*
X129404762Y-86690476D01*
X129452381Y-86833333D01*
X129452381Y-86928571D01*
X129404762Y-87071429D01*
X129309524Y-87166667D01*
X129214286Y-87214286D01*
X129023810Y-87261905D01*
X128880952Y-87261905D01*
X128690476Y-87214286D01*
X128595238Y-87166667D01*
X128500000Y-87071429D01*
X128452381Y-86928571D01*
X128452381Y-86833333D01*
X128500000Y-86690476D01*
X128547619Y-86642857D01*
X128547619Y-86261905D02*
X128500000Y-86214286D01*
X128452381Y-86119048D01*
X128452381Y-85880952D01*
X128500000Y-85785714D01*
X128547619Y-85738095D01*
X128642857Y-85690476D01*
X128738095Y-85690476D01*
X128880952Y-85738095D01*
X129452381Y-86309524D01*
X129452381Y-85690476D01*
X128785714Y-84833333D02*
X129452381Y-84833333D01*
X128404762Y-85071429D02*
X129119048Y-85309524D01*
X129119048Y-84690476D01*
X129357143Y-98642857D02*
X129404762Y-98690476D01*
X129452381Y-98833333D01*
X129452381Y-98928571D01*
X129404762Y-99071429D01*
X129309524Y-99166667D01*
X129214286Y-99214286D01*
X129023810Y-99261905D01*
X128880952Y-99261905D01*
X128690476Y-99214286D01*
X128595238Y-99166667D01*
X128500000Y-99071429D01*
X128452381Y-98928571D01*
X128452381Y-98833333D01*
X128500000Y-98690476D01*
X128547619Y-98642857D01*
X128547619Y-98261905D02*
X128500000Y-98214286D01*
X128452381Y-98119048D01*
X128452381Y-97880952D01*
X128500000Y-97785714D01*
X128547619Y-97738095D01*
X128642857Y-97690476D01*
X128738095Y-97690476D01*
X128880952Y-97738095D01*
X129452381Y-98309524D01*
X129452381Y-97690476D01*
X128452381Y-96785714D02*
X128452381Y-97261905D01*
X128928571Y-97309524D01*
X128880952Y-97261905D01*
X128833333Y-97166667D01*
X128833333Y-96928571D01*
X128880952Y-96833333D01*
X128928571Y-96785714D01*
X129023810Y-96738095D01*
X129261905Y-96738095D01*
X129357143Y-96785714D01*
X129404762Y-96833333D01*
X129452381Y-96928571D01*
X129452381Y-97166667D01*
X129404762Y-97261905D01*
X129357143Y-97309524D01*
X129357143Y-56892857D02*
X129404762Y-56940476D01*
X129452381Y-57083333D01*
X129452381Y-57178571D01*
X129404762Y-57321429D01*
X129309524Y-57416667D01*
X129214286Y-57464286D01*
X129023810Y-57511905D01*
X128880952Y-57511905D01*
X128690476Y-57464286D01*
X128595238Y-57416667D01*
X128500000Y-57321429D01*
X128452381Y-57178571D01*
X128452381Y-57083333D01*
X128500000Y-56940476D01*
X128547619Y-56892857D01*
X128547619Y-56511905D02*
X128500000Y-56464286D01*
X128452381Y-56369048D01*
X128452381Y-56130952D01*
X128500000Y-56035714D01*
X128547619Y-55988095D01*
X128642857Y-55940476D01*
X128738095Y-55940476D01*
X128880952Y-55988095D01*
X129452381Y-56559524D01*
X129452381Y-55940476D01*
X128452381Y-55083333D02*
X128452381Y-55273810D01*
X128500000Y-55369048D01*
X128547619Y-55416667D01*
X128690476Y-55511905D01*
X128880952Y-55559524D01*
X129261905Y-55559524D01*
X129357143Y-55511905D01*
X129404762Y-55464286D01*
X129452381Y-55369048D01*
X129452381Y-55178571D01*
X129404762Y-55083333D01*
X129357143Y-55035714D01*
X129261905Y-54988095D01*
X129023810Y-54988095D01*
X128928571Y-55035714D01*
X128880952Y-55083333D01*
X128833333Y-55178571D01*
X128833333Y-55369048D01*
X128880952Y-55464286D01*
X128928571Y-55511905D01*
X129023810Y-55559524D01*
X129357143Y-69142857D02*
X129404762Y-69190476D01*
X129452381Y-69333333D01*
X129452381Y-69428571D01*
X129404762Y-69571429D01*
X129309524Y-69666667D01*
X129214286Y-69714286D01*
X129023810Y-69761905D01*
X128880952Y-69761905D01*
X128690476Y-69714286D01*
X128595238Y-69666667D01*
X128500000Y-69571429D01*
X128452381Y-69428571D01*
X128452381Y-69333333D01*
X128500000Y-69190476D01*
X128547619Y-69142857D01*
X128547619Y-68761905D02*
X128500000Y-68714286D01*
X128452381Y-68619048D01*
X128452381Y-68380952D01*
X128500000Y-68285714D01*
X128547619Y-68238095D01*
X128642857Y-68190476D01*
X128738095Y-68190476D01*
X128880952Y-68238095D01*
X129452381Y-68809524D01*
X129452381Y-68190476D01*
X128452381Y-67857143D02*
X128452381Y-67190476D01*
X129452381Y-67619048D01*
X129357143Y-81142857D02*
X129404762Y-81190476D01*
X129452381Y-81333333D01*
X129452381Y-81428571D01*
X129404762Y-81571429D01*
X129309524Y-81666667D01*
X129214286Y-81714286D01*
X129023810Y-81761905D01*
X128880952Y-81761905D01*
X128690476Y-81714286D01*
X128595238Y-81666667D01*
X128500000Y-81571429D01*
X128452381Y-81428571D01*
X128452381Y-81333333D01*
X128500000Y-81190476D01*
X128547619Y-81142857D01*
X128547619Y-80761905D02*
X128500000Y-80714286D01*
X128452381Y-80619048D01*
X128452381Y-80380952D01*
X128500000Y-80285714D01*
X128547619Y-80238095D01*
X128642857Y-80190476D01*
X128738095Y-80190476D01*
X128880952Y-80238095D01*
X129452381Y-80809524D01*
X129452381Y-80190476D01*
X128880952Y-79619048D02*
X128833333Y-79714286D01*
X128785714Y-79761905D01*
X128690476Y-79809524D01*
X128642857Y-79809524D01*
X128547619Y-79761905D01*
X128500000Y-79714286D01*
X128452381Y-79619048D01*
X128452381Y-79428571D01*
X128500000Y-79333333D01*
X128547619Y-79285714D01*
X128642857Y-79238095D01*
X128690476Y-79238095D01*
X128785714Y-79285714D01*
X128833333Y-79333333D01*
X128880952Y-79428571D01*
X128880952Y-79619048D01*
X128928571Y-79714286D01*
X128976190Y-79761905D01*
X129071429Y-79809524D01*
X129261905Y-79809524D01*
X129357143Y-79761905D01*
X129404762Y-79714286D01*
X129452381Y-79619048D01*
X129452381Y-79428571D01*
X129404762Y-79333333D01*
X129357143Y-79285714D01*
X129261905Y-79238095D01*
X129071429Y-79238095D01*
X128976190Y-79285714D01*
X128928571Y-79333333D01*
X128880952Y-79428571D01*
X129357143Y-93142857D02*
X129404762Y-93190476D01*
X129452381Y-93333333D01*
X129452381Y-93428571D01*
X129404762Y-93571429D01*
X129309524Y-93666667D01*
X129214286Y-93714286D01*
X129023810Y-93761905D01*
X128880952Y-93761905D01*
X128690476Y-93714286D01*
X128595238Y-93666667D01*
X128500000Y-93571429D01*
X128452381Y-93428571D01*
X128452381Y-93333333D01*
X128500000Y-93190476D01*
X128547619Y-93142857D01*
X128547619Y-92761905D02*
X128500000Y-92714286D01*
X128452381Y-92619048D01*
X128452381Y-92380952D01*
X128500000Y-92285714D01*
X128547619Y-92238095D01*
X128642857Y-92190476D01*
X128738095Y-92190476D01*
X128880952Y-92238095D01*
X129452381Y-92809524D01*
X129452381Y-92190476D01*
X129452381Y-91714286D02*
X129452381Y-91523810D01*
X129404762Y-91428571D01*
X129357143Y-91380952D01*
X129214286Y-91285714D01*
X129023810Y-91238095D01*
X128642857Y-91238095D01*
X128547619Y-91285714D01*
X128500000Y-91333333D01*
X128452381Y-91428571D01*
X128452381Y-91619048D01*
X128500000Y-91714286D01*
X128547619Y-91761905D01*
X128642857Y-91809524D01*
X128880952Y-91809524D01*
X128976190Y-91761905D01*
X129023810Y-91714286D01*
X129071429Y-91619048D01*
X129071429Y-91428571D01*
X129023810Y-91333333D01*
X128976190Y-91285714D01*
X128880952Y-91238095D01*
X76107143Y-115357143D02*
X76059524Y-115404762D01*
X75916667Y-115452381D01*
X75821429Y-115452381D01*
X75678571Y-115404762D01*
X75583333Y-115309524D01*
X75535714Y-115214286D01*
X75488095Y-115023810D01*
X75488095Y-114880952D01*
X75535714Y-114690476D01*
X75583333Y-114595238D01*
X75678571Y-114500000D01*
X75821429Y-114452381D01*
X75916667Y-114452381D01*
X76059524Y-114500000D01*
X76107143Y-114547619D01*
X76440476Y-114452381D02*
X77059524Y-114452381D01*
X76726190Y-114833333D01*
X76869048Y-114833333D01*
X76964286Y-114880952D01*
X77011905Y-114928571D01*
X77059524Y-115023810D01*
X77059524Y-115261905D01*
X77011905Y-115357143D01*
X76964286Y-115404762D01*
X76869048Y-115452381D01*
X76583333Y-115452381D01*
X76488095Y-115404762D01*
X76440476Y-115357143D01*
X77630952Y-114880952D02*
X77535714Y-114833333D01*
X77488095Y-114785714D01*
X77440476Y-114690476D01*
X77440476Y-114642857D01*
X77488095Y-114547619D01*
X77535714Y-114500000D01*
X77630952Y-114452381D01*
X77821429Y-114452381D01*
X77916667Y-114500000D01*
X77964286Y-114547619D01*
X78011905Y-114642857D01*
X78011905Y-114690476D01*
X77964286Y-114785714D01*
X77916667Y-114833333D01*
X77821429Y-114880952D01*
X77630952Y-114880952D01*
X77535714Y-114928571D01*
X77488095Y-114976190D01*
X77440476Y-115071429D01*
X77440476Y-115261905D01*
X77488095Y-115357143D01*
X77535714Y-115404762D01*
X77630952Y-115452381D01*
X77821429Y-115452381D01*
X77916667Y-115404762D01*
X77964286Y-115357143D01*
X78011905Y-115261905D01*
X78011905Y-115071429D01*
X77964286Y-114976190D01*
X77916667Y-114928571D01*
X77821429Y-114880952D01*
X76107143Y-120357143D02*
X76059524Y-120404762D01*
X75916667Y-120452381D01*
X75821429Y-120452381D01*
X75678571Y-120404762D01*
X75583333Y-120309524D01*
X75535714Y-120214286D01*
X75488095Y-120023810D01*
X75488095Y-119880952D01*
X75535714Y-119690476D01*
X75583333Y-119595238D01*
X75678571Y-119500000D01*
X75821429Y-119452381D01*
X75916667Y-119452381D01*
X76059524Y-119500000D01*
X76107143Y-119547619D01*
X76964286Y-119785714D02*
X76964286Y-120452381D01*
X76726190Y-119404762D02*
X76488095Y-120119048D01*
X77107143Y-120119048D01*
X77678571Y-119452381D02*
X77773810Y-119452381D01*
X77869048Y-119500000D01*
X77916667Y-119547619D01*
X77964286Y-119642857D01*
X78011905Y-119833333D01*
X78011905Y-120071429D01*
X77964286Y-120261905D01*
X77916667Y-120357143D01*
X77869048Y-120404762D01*
X77773810Y-120452381D01*
X77678571Y-120452381D01*
X77583333Y-120404762D01*
X77535714Y-120357143D01*
X77488095Y-120261905D01*
X77440476Y-120071429D01*
X77440476Y-119833333D01*
X77488095Y-119642857D01*
X77535714Y-119547619D01*
X77583333Y-119500000D01*
X77678571Y-119452381D01*
X96357143Y-119357143D02*
X96309524Y-119404762D01*
X96166667Y-119452381D01*
X96071429Y-119452381D01*
X95928571Y-119404762D01*
X95833333Y-119309524D01*
X95785714Y-119214286D01*
X95738095Y-119023810D01*
X95738095Y-118880952D01*
X95785714Y-118690476D01*
X95833333Y-118595238D01*
X95928571Y-118500000D01*
X96071429Y-118452381D01*
X96166667Y-118452381D01*
X96309524Y-118500000D01*
X96357143Y-118547619D01*
X97214286Y-118785714D02*
X97214286Y-119452381D01*
X96976190Y-118404762D02*
X96738095Y-119119048D01*
X97357143Y-119119048D01*
X98261905Y-119452381D02*
X97690476Y-119452381D01*
X97976190Y-119452381D02*
X97976190Y-118452381D01*
X97880952Y-118595238D01*
X97785714Y-118690476D01*
X97690476Y-118738095D01*
X103107143Y-99357143D02*
X103059524Y-99404762D01*
X102916667Y-99452381D01*
X102821429Y-99452381D01*
X102678571Y-99404762D01*
X102583333Y-99309524D01*
X102535714Y-99214286D01*
X102488095Y-99023810D01*
X102488095Y-98880952D01*
X102535714Y-98690476D01*
X102583333Y-98595238D01*
X102678571Y-98500000D01*
X102821429Y-98452381D01*
X102916667Y-98452381D01*
X103059524Y-98500000D01*
X103107143Y-98547619D01*
X103964286Y-98785714D02*
X103964286Y-99452381D01*
X103726190Y-98404762D02*
X103488095Y-99119048D01*
X104107143Y-99119048D01*
X104440476Y-98547619D02*
X104488095Y-98500000D01*
X104583333Y-98452381D01*
X104821429Y-98452381D01*
X104916667Y-98500000D01*
X104964286Y-98547619D01*
X105011905Y-98642857D01*
X105011905Y-98738095D01*
X104964286Y-98880952D01*
X104392857Y-99452381D01*
X105011905Y-99452381D01*
X80357143Y-111857143D02*
X80309524Y-111904762D01*
X80166667Y-111952381D01*
X80071429Y-111952381D01*
X79928571Y-111904762D01*
X79833333Y-111809524D01*
X79785714Y-111714286D01*
X79738095Y-111523810D01*
X79738095Y-111380952D01*
X79785714Y-111190476D01*
X79833333Y-111095238D01*
X79928571Y-111000000D01*
X80071429Y-110952381D01*
X80166667Y-110952381D01*
X80309524Y-111000000D01*
X80357143Y-111047619D01*
X81214286Y-111285714D02*
X81214286Y-111952381D01*
X80976190Y-110904762D02*
X80738095Y-111619048D01*
X81357143Y-111619048D01*
X81642857Y-110952381D02*
X82261905Y-110952381D01*
X81928571Y-111333333D01*
X82071429Y-111333333D01*
X82166667Y-111380952D01*
X82214286Y-111428571D01*
X82261905Y-111523810D01*
X82261905Y-111761905D01*
X82214286Y-111857143D01*
X82166667Y-111904762D01*
X82071429Y-111952381D01*
X81785714Y-111952381D01*
X81690476Y-111904762D01*
X81642857Y-111857143D01*
X82357143Y-105642857D02*
X82404762Y-105690476D01*
X82452381Y-105833333D01*
X82452381Y-105928571D01*
X82404762Y-106071429D01*
X82309524Y-106166667D01*
X82214286Y-106214286D01*
X82023810Y-106261905D01*
X81880952Y-106261905D01*
X81690476Y-106214286D01*
X81595238Y-106166667D01*
X81500000Y-106071429D01*
X81452381Y-105928571D01*
X81452381Y-105833333D01*
X81500000Y-105690476D01*
X81547619Y-105642857D01*
X81785714Y-104785714D02*
X82452381Y-104785714D01*
X81404762Y-105023810D02*
X82119048Y-105261905D01*
X82119048Y-104642857D01*
X81785714Y-103833333D02*
X82452381Y-103833333D01*
X81404762Y-104071429D02*
X82119048Y-104309524D01*
X82119048Y-103690476D01*
X80357143Y-115357143D02*
X80309524Y-115404762D01*
X80166667Y-115452381D01*
X80071429Y-115452381D01*
X79928571Y-115404762D01*
X79833333Y-115309524D01*
X79785714Y-115214286D01*
X79738095Y-115023810D01*
X79738095Y-114880952D01*
X79785714Y-114690476D01*
X79833333Y-114595238D01*
X79928571Y-114500000D01*
X80071429Y-114452381D01*
X80166667Y-114452381D01*
X80309524Y-114500000D01*
X80357143Y-114547619D01*
X81214286Y-114785714D02*
X81214286Y-115452381D01*
X80976190Y-114404762D02*
X80738095Y-115119048D01*
X81357143Y-115119048D01*
X82166667Y-114452381D02*
X81976190Y-114452381D01*
X81880952Y-114500000D01*
X81833333Y-114547619D01*
X81738095Y-114690476D01*
X81690476Y-114880952D01*
X81690476Y-115261905D01*
X81738095Y-115357143D01*
X81785714Y-115404762D01*
X81880952Y-115452381D01*
X82071429Y-115452381D01*
X82166667Y-115404762D01*
X82214286Y-115357143D01*
X82261905Y-115261905D01*
X82261905Y-115023810D01*
X82214286Y-114928571D01*
X82166667Y-114880952D01*
X82071429Y-114833333D01*
X81880952Y-114833333D01*
X81785714Y-114880952D01*
X81738095Y-114928571D01*
X81690476Y-115023810D01*
X80357143Y-101642857D02*
X80404762Y-101690476D01*
X80452381Y-101833333D01*
X80452381Y-101928571D01*
X80404762Y-102071429D01*
X80309524Y-102166667D01*
X80214286Y-102214286D01*
X80023810Y-102261905D01*
X79880952Y-102261905D01*
X79690476Y-102214286D01*
X79595238Y-102166667D01*
X79500000Y-102071429D01*
X79452381Y-101928571D01*
X79452381Y-101833333D01*
X79500000Y-101690476D01*
X79547619Y-101642857D01*
X79785714Y-100785714D02*
X80452381Y-100785714D01*
X79404762Y-101023810D02*
X80119048Y-101261905D01*
X80119048Y-100642857D01*
X79452381Y-100357143D02*
X79452381Y-99690476D01*
X80452381Y-100119048D01*
X191357143Y-117607143D02*
X191309524Y-117654762D01*
X191166667Y-117702381D01*
X191071429Y-117702381D01*
X190928571Y-117654762D01*
X190833333Y-117559524D01*
X190785714Y-117464286D01*
X190738095Y-117273810D01*
X190738095Y-117130952D01*
X190785714Y-116940476D01*
X190833333Y-116845238D01*
X190928571Y-116750000D01*
X191071429Y-116702381D01*
X191166667Y-116702381D01*
X191309524Y-116750000D01*
X191357143Y-116797619D01*
X192214286Y-117035714D02*
X192214286Y-117702381D01*
X191976190Y-116654762D02*
X191738095Y-117369048D01*
X192357143Y-117369048D01*
X192785714Y-117702381D02*
X192976190Y-117702381D01*
X193071429Y-117654762D01*
X193119048Y-117607143D01*
X193214286Y-117464286D01*
X193261905Y-117273810D01*
X193261905Y-116892857D01*
X193214286Y-116797619D01*
X193166667Y-116750000D01*
X193071429Y-116702381D01*
X192880952Y-116702381D01*
X192785714Y-116750000D01*
X192738095Y-116797619D01*
X192690476Y-116892857D01*
X192690476Y-117130952D01*
X192738095Y-117226190D01*
X192785714Y-117273810D01*
X192880952Y-117321429D01*
X193071429Y-117321429D01*
X193166667Y-117273810D01*
X193214286Y-117226190D01*
X193261905Y-117130952D01*
X184607143Y-118357143D02*
X184559524Y-118404762D01*
X184416667Y-118452381D01*
X184321429Y-118452381D01*
X184178571Y-118404762D01*
X184083333Y-118309524D01*
X184035714Y-118214286D01*
X183988095Y-118023810D01*
X183988095Y-117880952D01*
X184035714Y-117690476D01*
X184083333Y-117595238D01*
X184178571Y-117500000D01*
X184321429Y-117452381D01*
X184416667Y-117452381D01*
X184559524Y-117500000D01*
X184607143Y-117547619D01*
X185511905Y-117452381D02*
X185035714Y-117452381D01*
X184988095Y-117928571D01*
X185035714Y-117880952D01*
X185130952Y-117833333D01*
X185369048Y-117833333D01*
X185464286Y-117880952D01*
X185511905Y-117928571D01*
X185559524Y-118023810D01*
X185559524Y-118261905D01*
X185511905Y-118357143D01*
X185464286Y-118404762D01*
X185369048Y-118452381D01*
X185130952Y-118452381D01*
X185035714Y-118404762D01*
X184988095Y-118357143D01*
X186511905Y-118452381D02*
X185940476Y-118452381D01*
X186226190Y-118452381D02*
X186226190Y-117452381D01*
X186130952Y-117595238D01*
X186035714Y-117690476D01*
X185940476Y-117738095D01*
X184607143Y-108357143D02*
X184559524Y-108404762D01*
X184416667Y-108452381D01*
X184321429Y-108452381D01*
X184178571Y-108404762D01*
X184083333Y-108309524D01*
X184035714Y-108214286D01*
X183988095Y-108023810D01*
X183988095Y-107880952D01*
X184035714Y-107690476D01*
X184083333Y-107595238D01*
X184178571Y-107500000D01*
X184321429Y-107452381D01*
X184416667Y-107452381D01*
X184559524Y-107500000D01*
X184607143Y-107547619D01*
X185511905Y-107452381D02*
X185035714Y-107452381D01*
X184988095Y-107928571D01*
X185035714Y-107880952D01*
X185130952Y-107833333D01*
X185369048Y-107833333D01*
X185464286Y-107880952D01*
X185511905Y-107928571D01*
X185559524Y-108023810D01*
X185559524Y-108261905D01*
X185511905Y-108357143D01*
X185464286Y-108404762D01*
X185369048Y-108452381D01*
X185130952Y-108452381D01*
X185035714Y-108404762D01*
X184988095Y-108357143D01*
X185892857Y-107452381D02*
X186511905Y-107452381D01*
X186178571Y-107833333D01*
X186321429Y-107833333D01*
X186416667Y-107880952D01*
X186464286Y-107928571D01*
X186511905Y-108023810D01*
X186511905Y-108261905D01*
X186464286Y-108357143D01*
X186416667Y-108404762D01*
X186321429Y-108452381D01*
X186035714Y-108452381D01*
X185940476Y-108404762D01*
X185892857Y-108357143D01*
X100107143Y-119357143D02*
X100059524Y-119404762D01*
X99916667Y-119452381D01*
X99821429Y-119452381D01*
X99678571Y-119404762D01*
X99583333Y-119309524D01*
X99535714Y-119214286D01*
X99488095Y-119023810D01*
X99488095Y-118880952D01*
X99535714Y-118690476D01*
X99583333Y-118595238D01*
X99678571Y-118500000D01*
X99821429Y-118452381D01*
X99916667Y-118452381D01*
X100059524Y-118500000D01*
X100107143Y-118547619D01*
X101011905Y-118452381D02*
X100535714Y-118452381D01*
X100488095Y-118928571D01*
X100535714Y-118880952D01*
X100630952Y-118833333D01*
X100869048Y-118833333D01*
X100964286Y-118880952D01*
X101011905Y-118928571D01*
X101059524Y-119023810D01*
X101059524Y-119261905D01*
X101011905Y-119357143D01*
X100964286Y-119404762D01*
X100869048Y-119452381D01*
X100630952Y-119452381D01*
X100535714Y-119404762D01*
X100488095Y-119357143D01*
X101916667Y-118785714D02*
X101916667Y-119452381D01*
X101678571Y-118404762D02*
X101440476Y-119119048D01*
X102059524Y-119119048D01*
X86607143Y-95107143D02*
X86559524Y-95154762D01*
X86416667Y-95202381D01*
X86321429Y-95202381D01*
X86178571Y-95154762D01*
X86083333Y-95059524D01*
X86035714Y-94964286D01*
X85988095Y-94773810D01*
X85988095Y-94630952D01*
X86035714Y-94440476D01*
X86083333Y-94345238D01*
X86178571Y-94250000D01*
X86321429Y-94202381D01*
X86416667Y-94202381D01*
X86559524Y-94250000D01*
X86607143Y-94297619D01*
X87511905Y-94202381D02*
X87035714Y-94202381D01*
X86988095Y-94678571D01*
X87035714Y-94630952D01*
X87130952Y-94583333D01*
X87369048Y-94583333D01*
X87464286Y-94630952D01*
X87511905Y-94678571D01*
X87559524Y-94773810D01*
X87559524Y-95011905D01*
X87511905Y-95107143D01*
X87464286Y-95154762D01*
X87369048Y-95202381D01*
X87130952Y-95202381D01*
X87035714Y-95154762D01*
X86988095Y-95107143D01*
X88416667Y-94202381D02*
X88226190Y-94202381D01*
X88130952Y-94250000D01*
X88083333Y-94297619D01*
X87988095Y-94440476D01*
X87940476Y-94630952D01*
X87940476Y-95011905D01*
X87988095Y-95107143D01*
X88035714Y-95154762D01*
X88130952Y-95202381D01*
X88321429Y-95202381D01*
X88416667Y-95154762D01*
X88464286Y-95107143D01*
X88511905Y-95011905D01*
X88511905Y-94773810D01*
X88464286Y-94678571D01*
X88416667Y-94630952D01*
X88321429Y-94583333D01*
X88130952Y-94583333D01*
X88035714Y-94630952D01*
X87988095Y-94678571D01*
X87940476Y-94773810D01*
X133107143Y-119142857D02*
X133154762Y-119190476D01*
X133202381Y-119333333D01*
X133202381Y-119428571D01*
X133154762Y-119571429D01*
X133059524Y-119666667D01*
X132964286Y-119714286D01*
X132773810Y-119761905D01*
X132630952Y-119761905D01*
X132440476Y-119714286D01*
X132345238Y-119666667D01*
X132250000Y-119571429D01*
X132202381Y-119428571D01*
X132202381Y-119333333D01*
X132250000Y-119190476D01*
X132297619Y-119142857D01*
X132202381Y-118285714D02*
X132202381Y-118476191D01*
X132250000Y-118571429D01*
X132297619Y-118619048D01*
X132440476Y-118714286D01*
X132630952Y-118761905D01*
X133011905Y-118761905D01*
X133107143Y-118714286D01*
X133154762Y-118666667D01*
X133202381Y-118571429D01*
X133202381Y-118380952D01*
X133154762Y-118285714D01*
X133107143Y-118238095D01*
X133011905Y-118190476D01*
X132773810Y-118190476D01*
X132678571Y-118238095D01*
X132630952Y-118285714D01*
X132583333Y-118380952D01*
X132583333Y-118571429D01*
X132630952Y-118666667D01*
X132678571Y-118714286D01*
X132773810Y-118761905D01*
X133202381Y-117238095D02*
X133202381Y-117809524D01*
X133202381Y-117523810D02*
X132202381Y-117523810D01*
X132345238Y-117619048D01*
X132440476Y-117714286D01*
X132488095Y-117809524D01*
X112857143Y-110392857D02*
X112904762Y-110440476D01*
X112952381Y-110583333D01*
X112952381Y-110678571D01*
X112904762Y-110821429D01*
X112809524Y-110916667D01*
X112714286Y-110964286D01*
X112523810Y-111011905D01*
X112380952Y-111011905D01*
X112190476Y-110964286D01*
X112095238Y-110916667D01*
X112000000Y-110821429D01*
X111952381Y-110678571D01*
X111952381Y-110583333D01*
X112000000Y-110440476D01*
X112047619Y-110392857D01*
X111952381Y-109535714D02*
X111952381Y-109726191D01*
X112000000Y-109821429D01*
X112047619Y-109869048D01*
X112190476Y-109964286D01*
X112380952Y-110011905D01*
X112761905Y-110011905D01*
X112857143Y-109964286D01*
X112904762Y-109916667D01*
X112952381Y-109821429D01*
X112952381Y-109630952D01*
X112904762Y-109535714D01*
X112857143Y-109488095D01*
X112761905Y-109440476D01*
X112523810Y-109440476D01*
X112428571Y-109488095D01*
X112380952Y-109535714D01*
X112333333Y-109630952D01*
X112333333Y-109821429D01*
X112380952Y-109916667D01*
X112428571Y-109964286D01*
X112523810Y-110011905D01*
X111952381Y-108535714D02*
X111952381Y-109011905D01*
X112428571Y-109059524D01*
X112380952Y-109011905D01*
X112333333Y-108916667D01*
X112333333Y-108678571D01*
X112380952Y-108583333D01*
X112428571Y-108535714D01*
X112523810Y-108488095D01*
X112761905Y-108488095D01*
X112857143Y-108535714D01*
X112904762Y-108583333D01*
X112952381Y-108678571D01*
X112952381Y-108916667D01*
X112904762Y-109011905D01*
X112857143Y-109059524D01*
X111357143Y-110392857D02*
X111404762Y-110440476D01*
X111452381Y-110583333D01*
X111452381Y-110678571D01*
X111404762Y-110821429D01*
X111309524Y-110916667D01*
X111214286Y-110964286D01*
X111023810Y-111011905D01*
X110880952Y-111011905D01*
X110690476Y-110964286D01*
X110595238Y-110916667D01*
X110500000Y-110821429D01*
X110452381Y-110678571D01*
X110452381Y-110583333D01*
X110500000Y-110440476D01*
X110547619Y-110392857D01*
X110452381Y-109535714D02*
X110452381Y-109726191D01*
X110500000Y-109821429D01*
X110547619Y-109869048D01*
X110690476Y-109964286D01*
X110880952Y-110011905D01*
X111261905Y-110011905D01*
X111357143Y-109964286D01*
X111404762Y-109916667D01*
X111452381Y-109821429D01*
X111452381Y-109630952D01*
X111404762Y-109535714D01*
X111357143Y-109488095D01*
X111261905Y-109440476D01*
X111023810Y-109440476D01*
X110928571Y-109488095D01*
X110880952Y-109535714D01*
X110833333Y-109630952D01*
X110833333Y-109821429D01*
X110880952Y-109916667D01*
X110928571Y-109964286D01*
X111023810Y-110011905D01*
X110452381Y-108583333D02*
X110452381Y-108773810D01*
X110500000Y-108869048D01*
X110547619Y-108916667D01*
X110690476Y-109011905D01*
X110880952Y-109059524D01*
X111261905Y-109059524D01*
X111357143Y-109011905D01*
X111404762Y-108964286D01*
X111452381Y-108869048D01*
X111452381Y-108678571D01*
X111404762Y-108583333D01*
X111357143Y-108535714D01*
X111261905Y-108488095D01*
X111023810Y-108488095D01*
X110928571Y-108535714D01*
X110880952Y-108583333D01*
X110833333Y-108678571D01*
X110833333Y-108869048D01*
X110880952Y-108964286D01*
X110928571Y-109011905D01*
X111023810Y-109059524D01*
X106607143Y-110142857D02*
X106654762Y-110190476D01*
X106702381Y-110333333D01*
X106702381Y-110428571D01*
X106654762Y-110571429D01*
X106559524Y-110666667D01*
X106464286Y-110714286D01*
X106273810Y-110761905D01*
X106130952Y-110761905D01*
X105940476Y-110714286D01*
X105845238Y-110666667D01*
X105750000Y-110571429D01*
X105702381Y-110428571D01*
X105702381Y-110333333D01*
X105750000Y-110190476D01*
X105797619Y-110142857D01*
X105702381Y-109285714D02*
X105702381Y-109476191D01*
X105750000Y-109571429D01*
X105797619Y-109619048D01*
X105940476Y-109714286D01*
X106130952Y-109761905D01*
X106511905Y-109761905D01*
X106607143Y-109714286D01*
X106654762Y-109666667D01*
X106702381Y-109571429D01*
X106702381Y-109380952D01*
X106654762Y-109285714D01*
X106607143Y-109238095D01*
X106511905Y-109190476D01*
X106273810Y-109190476D01*
X106178571Y-109238095D01*
X106130952Y-109285714D01*
X106083333Y-109380952D01*
X106083333Y-109571429D01*
X106130952Y-109666667D01*
X106178571Y-109714286D01*
X106273810Y-109761905D01*
X105702381Y-108857143D02*
X105702381Y-108190476D01*
X106702381Y-108619048D01*
X117607143Y-120107143D02*
X117559524Y-120154762D01*
X117416667Y-120202381D01*
X117321429Y-120202381D01*
X117178571Y-120154762D01*
X117083333Y-120059524D01*
X117035714Y-119964286D01*
X116988095Y-119773810D01*
X116988095Y-119630952D01*
X117035714Y-119440476D01*
X117083333Y-119345238D01*
X117178571Y-119250000D01*
X117321429Y-119202381D01*
X117416667Y-119202381D01*
X117559524Y-119250000D01*
X117607143Y-119297619D01*
X118464286Y-119202381D02*
X118273809Y-119202381D01*
X118178571Y-119250000D01*
X118130952Y-119297619D01*
X118035714Y-119440476D01*
X117988095Y-119630952D01*
X117988095Y-120011905D01*
X118035714Y-120107143D01*
X118083333Y-120154762D01*
X118178571Y-120202381D01*
X118369048Y-120202381D01*
X118464286Y-120154762D01*
X118511905Y-120107143D01*
X118559524Y-120011905D01*
X118559524Y-119773810D01*
X118511905Y-119678571D01*
X118464286Y-119630952D01*
X118369048Y-119583333D01*
X118178571Y-119583333D01*
X118083333Y-119630952D01*
X118035714Y-119678571D01*
X117988095Y-119773810D01*
X119035714Y-120202381D02*
X119226190Y-120202381D01*
X119321429Y-120154762D01*
X119369048Y-120107143D01*
X119464286Y-119964286D01*
X119511905Y-119773810D01*
X119511905Y-119392857D01*
X119464286Y-119297619D01*
X119416667Y-119250000D01*
X119321429Y-119202381D01*
X119130952Y-119202381D01*
X119035714Y-119250000D01*
X118988095Y-119297619D01*
X118940476Y-119392857D01*
X118940476Y-119630952D01*
X118988095Y-119726190D01*
X119035714Y-119773810D01*
X119130952Y-119821429D01*
X119321429Y-119821429D01*
X119416667Y-119773810D01*
X119464286Y-119726190D01*
X119511905Y-119630952D01*
X116107143Y-113357143D02*
X116059524Y-113404762D01*
X115916667Y-113452381D01*
X115821429Y-113452381D01*
X115678571Y-113404762D01*
X115583333Y-113309524D01*
X115535714Y-113214286D01*
X115488095Y-113023810D01*
X115488095Y-112880952D01*
X115535714Y-112690476D01*
X115583333Y-112595238D01*
X115678571Y-112500000D01*
X115821429Y-112452381D01*
X115916667Y-112452381D01*
X116059524Y-112500000D01*
X116107143Y-112547619D01*
X116440476Y-112452381D02*
X117107143Y-112452381D01*
X116678571Y-113452381D01*
X117678571Y-112452381D02*
X117773810Y-112452381D01*
X117869048Y-112500000D01*
X117916667Y-112547619D01*
X117964286Y-112642857D01*
X118011905Y-112833333D01*
X118011905Y-113071429D01*
X117964286Y-113261905D01*
X117916667Y-113357143D01*
X117869048Y-113404762D01*
X117773810Y-113452381D01*
X117678571Y-113452381D01*
X117583333Y-113404762D01*
X117535714Y-113357143D01*
X117488095Y-113261905D01*
X117440476Y-113071429D01*
X117440476Y-112833333D01*
X117488095Y-112642857D01*
X117535714Y-112547619D01*
X117583333Y-112500000D01*
X117678571Y-112452381D01*
X125857143Y-102892857D02*
X125904762Y-102940476D01*
X125952381Y-103083333D01*
X125952381Y-103178571D01*
X125904762Y-103321429D01*
X125809524Y-103416667D01*
X125714286Y-103464286D01*
X125523810Y-103511905D01*
X125380952Y-103511905D01*
X125190476Y-103464286D01*
X125095238Y-103416667D01*
X125000000Y-103321429D01*
X124952381Y-103178571D01*
X124952381Y-103083333D01*
X125000000Y-102940476D01*
X125047619Y-102892857D01*
X124952381Y-102559524D02*
X124952381Y-101892857D01*
X125952381Y-102321429D01*
X125952381Y-100988095D02*
X125952381Y-101559524D01*
X125952381Y-101273810D02*
X124952381Y-101273810D01*
X125095238Y-101369048D01*
X125190476Y-101464286D01*
X125238095Y-101559524D01*
X128107143Y-102642857D02*
X128154762Y-102690476D01*
X128202381Y-102833333D01*
X128202381Y-102928571D01*
X128154762Y-103071429D01*
X128059524Y-103166667D01*
X127964286Y-103214286D01*
X127773810Y-103261905D01*
X127630952Y-103261905D01*
X127440476Y-103214286D01*
X127345238Y-103166667D01*
X127250000Y-103071429D01*
X127202381Y-102928571D01*
X127202381Y-102833333D01*
X127250000Y-102690476D01*
X127297619Y-102642857D01*
X127202381Y-102309524D02*
X127202381Y-101642857D01*
X128202381Y-102071429D01*
X127297619Y-101309524D02*
X127250000Y-101261905D01*
X127202381Y-101166667D01*
X127202381Y-100928571D01*
X127250000Y-100833333D01*
X127297619Y-100785714D01*
X127392857Y-100738095D01*
X127488095Y-100738095D01*
X127630952Y-100785714D01*
X128202381Y-101357143D01*
X128202381Y-100738095D01*
X166857143Y-108857143D02*
X166809524Y-108904762D01*
X166666667Y-108952381D01*
X166571429Y-108952381D01*
X166428571Y-108904762D01*
X166333333Y-108809524D01*
X166285714Y-108714286D01*
X166238095Y-108523810D01*
X166238095Y-108380952D01*
X166285714Y-108190476D01*
X166333333Y-108095238D01*
X166428571Y-108000000D01*
X166571429Y-107952381D01*
X166666667Y-107952381D01*
X166809524Y-108000000D01*
X166857143Y-108047619D01*
X167190476Y-107952381D02*
X167857143Y-107952381D01*
X167428571Y-108952381D01*
X168666667Y-108285714D02*
X168666667Y-108952381D01*
X168428571Y-107904762D02*
X168190476Y-108619048D01*
X168809524Y-108619048D01*
X147357143Y-108857143D02*
X147309524Y-108904762D01*
X147166667Y-108952381D01*
X147071429Y-108952381D01*
X146928571Y-108904762D01*
X146833333Y-108809524D01*
X146785714Y-108714286D01*
X146738095Y-108523810D01*
X146738095Y-108380952D01*
X146785714Y-108190476D01*
X146833333Y-108095238D01*
X146928571Y-108000000D01*
X147071429Y-107952381D01*
X147166667Y-107952381D01*
X147309524Y-108000000D01*
X147357143Y-108047619D01*
X147690476Y-107952381D02*
X148357143Y-107952381D01*
X147928571Y-108952381D01*
X149214286Y-107952381D02*
X148738095Y-107952381D01*
X148690476Y-108428571D01*
X148738095Y-108380952D01*
X148833333Y-108333333D01*
X149071429Y-108333333D01*
X149166667Y-108380952D01*
X149214286Y-108428571D01*
X149261905Y-108523810D01*
X149261905Y-108761905D01*
X149214286Y-108857143D01*
X149166667Y-108904762D01*
X149071429Y-108952381D01*
X148833333Y-108952381D01*
X148738095Y-108904762D01*
X148690476Y-108857143D01*
X161857143Y-64107143D02*
X161809524Y-64154762D01*
X161666667Y-64202381D01*
X161571429Y-64202381D01*
X161428571Y-64154762D01*
X161333333Y-64059524D01*
X161285714Y-63964286D01*
X161238095Y-63773810D01*
X161238095Y-63630952D01*
X161285714Y-63440476D01*
X161333333Y-63345238D01*
X161428571Y-63250000D01*
X161571429Y-63202381D01*
X161666667Y-63202381D01*
X161809524Y-63250000D01*
X161857143Y-63297619D01*
X162428571Y-63630952D02*
X162333333Y-63583333D01*
X162285714Y-63535714D01*
X162238095Y-63440476D01*
X162238095Y-63392857D01*
X162285714Y-63297619D01*
X162333333Y-63250000D01*
X162428571Y-63202381D01*
X162619048Y-63202381D01*
X162714286Y-63250000D01*
X162761905Y-63297619D01*
X162809524Y-63392857D01*
X162809524Y-63440476D01*
X162761905Y-63535714D01*
X162714286Y-63583333D01*
X162619048Y-63630952D01*
X162428571Y-63630952D01*
X162333333Y-63678571D01*
X162285714Y-63726190D01*
X162238095Y-63821429D01*
X162238095Y-64011905D01*
X162285714Y-64107143D01*
X162333333Y-64154762D01*
X162428571Y-64202381D01*
X162619048Y-64202381D01*
X162714286Y-64154762D01*
X162761905Y-64107143D01*
X162809524Y-64011905D01*
X162809524Y-63821429D01*
X162761905Y-63726190D01*
X162714286Y-63678571D01*
X162619048Y-63630952D01*
X163428571Y-63202381D02*
X163523810Y-63202381D01*
X163619048Y-63250000D01*
X163666667Y-63297619D01*
X163714286Y-63392857D01*
X163761905Y-63583333D01*
X163761905Y-63821429D01*
X163714286Y-64011905D01*
X163666667Y-64107143D01*
X163619048Y-64154762D01*
X163523810Y-64202381D01*
X163428571Y-64202381D01*
X163333333Y-64154762D01*
X163285714Y-64107143D01*
X163238095Y-64011905D01*
X163190476Y-63821429D01*
X163190476Y-63583333D01*
X163238095Y-63392857D01*
X163285714Y-63297619D01*
X163333333Y-63250000D01*
X163428571Y-63202381D01*
X159357143Y-56642857D02*
X159404762Y-56690476D01*
X159452381Y-56833333D01*
X159452381Y-56928571D01*
X159404762Y-57071429D01*
X159309524Y-57166667D01*
X159214286Y-57214286D01*
X159023810Y-57261905D01*
X158880952Y-57261905D01*
X158690476Y-57214286D01*
X158595238Y-57166667D01*
X158500000Y-57071429D01*
X158452381Y-56928571D01*
X158452381Y-56833333D01*
X158500000Y-56690476D01*
X158547619Y-56642857D01*
X158880952Y-56071429D02*
X158833333Y-56166667D01*
X158785714Y-56214286D01*
X158690476Y-56261905D01*
X158642857Y-56261905D01*
X158547619Y-56214286D01*
X158500000Y-56166667D01*
X158452381Y-56071429D01*
X158452381Y-55880952D01*
X158500000Y-55785714D01*
X158547619Y-55738095D01*
X158642857Y-55690476D01*
X158690476Y-55690476D01*
X158785714Y-55738095D01*
X158833333Y-55785714D01*
X158880952Y-55880952D01*
X158880952Y-56071429D01*
X158928571Y-56166667D01*
X158976190Y-56214286D01*
X159071429Y-56261905D01*
X159261905Y-56261905D01*
X159357143Y-56214286D01*
X159404762Y-56166667D01*
X159452381Y-56071429D01*
X159452381Y-55880952D01*
X159404762Y-55785714D01*
X159357143Y-55738095D01*
X159261905Y-55690476D01*
X159071429Y-55690476D01*
X158976190Y-55738095D01*
X158928571Y-55785714D01*
X158880952Y-55880952D01*
X159452381Y-54738095D02*
X159452381Y-55309524D01*
X159452381Y-55023810D02*
X158452381Y-55023810D01*
X158595238Y-55119048D01*
X158690476Y-55214286D01*
X158738095Y-55309524D01*
X182857143Y-58892857D02*
X182904762Y-58940476D01*
X182952381Y-59083333D01*
X182952381Y-59178571D01*
X182904762Y-59321429D01*
X182809524Y-59416667D01*
X182714286Y-59464286D01*
X182523810Y-59511905D01*
X182380952Y-59511905D01*
X182190476Y-59464286D01*
X182095238Y-59416667D01*
X182000000Y-59321429D01*
X181952381Y-59178571D01*
X181952381Y-59083333D01*
X182000000Y-58940476D01*
X182047619Y-58892857D01*
X182380952Y-58321429D02*
X182333333Y-58416667D01*
X182285714Y-58464286D01*
X182190476Y-58511905D01*
X182142857Y-58511905D01*
X182047619Y-58464286D01*
X182000000Y-58416667D01*
X181952381Y-58321429D01*
X181952381Y-58130952D01*
X182000000Y-58035714D01*
X182047619Y-57988095D01*
X182142857Y-57940476D01*
X182190476Y-57940476D01*
X182285714Y-57988095D01*
X182333333Y-58035714D01*
X182380952Y-58130952D01*
X182380952Y-58321429D01*
X182428571Y-58416667D01*
X182476190Y-58464286D01*
X182571429Y-58511905D01*
X182761905Y-58511905D01*
X182857143Y-58464286D01*
X182904762Y-58416667D01*
X182952381Y-58321429D01*
X182952381Y-58130952D01*
X182904762Y-58035714D01*
X182857143Y-57988095D01*
X182761905Y-57940476D01*
X182571429Y-57940476D01*
X182476190Y-57988095D01*
X182428571Y-58035714D01*
X182380952Y-58130952D01*
X182047619Y-57559524D02*
X182000000Y-57511905D01*
X181952381Y-57416667D01*
X181952381Y-57178571D01*
X182000000Y-57083333D01*
X182047619Y-57035714D01*
X182142857Y-56988095D01*
X182238095Y-56988095D01*
X182380952Y-57035714D01*
X182952381Y-57607143D01*
X182952381Y-56988095D01*
X137857143Y-64107143D02*
X137809524Y-64154762D01*
X137666667Y-64202381D01*
X137571429Y-64202381D01*
X137428571Y-64154762D01*
X137333333Y-64059524D01*
X137285714Y-63964286D01*
X137238095Y-63773810D01*
X137238095Y-63630952D01*
X137285714Y-63440476D01*
X137333333Y-63345238D01*
X137428571Y-63250000D01*
X137571429Y-63202381D01*
X137666667Y-63202381D01*
X137809524Y-63250000D01*
X137857143Y-63297619D01*
X138428571Y-63630952D02*
X138333333Y-63583333D01*
X138285714Y-63535714D01*
X138238095Y-63440476D01*
X138238095Y-63392857D01*
X138285714Y-63297619D01*
X138333333Y-63250000D01*
X138428571Y-63202381D01*
X138619048Y-63202381D01*
X138714286Y-63250000D01*
X138761905Y-63297619D01*
X138809524Y-63392857D01*
X138809524Y-63440476D01*
X138761905Y-63535714D01*
X138714286Y-63583333D01*
X138619048Y-63630952D01*
X138428571Y-63630952D01*
X138333333Y-63678571D01*
X138285714Y-63726190D01*
X138238095Y-63821429D01*
X138238095Y-64011905D01*
X138285714Y-64107143D01*
X138333333Y-64154762D01*
X138428571Y-64202381D01*
X138619048Y-64202381D01*
X138714286Y-64154762D01*
X138761905Y-64107143D01*
X138809524Y-64011905D01*
X138809524Y-63821429D01*
X138761905Y-63726190D01*
X138714286Y-63678571D01*
X138619048Y-63630952D01*
X139142857Y-63202381D02*
X139761905Y-63202381D01*
X139428571Y-63583333D01*
X139571429Y-63583333D01*
X139666667Y-63630952D01*
X139714286Y-63678571D01*
X139761905Y-63773810D01*
X139761905Y-64011905D01*
X139714286Y-64107143D01*
X139666667Y-64154762D01*
X139571429Y-64202381D01*
X139285714Y-64202381D01*
X139190476Y-64154762D01*
X139142857Y-64107143D01*
X143899048Y-52601429D02*
X144660953Y-52601429D01*
X144280001Y-52982381D02*
X144280001Y-52220476D01*
X173857143Y-64107143D02*
X173809524Y-64154762D01*
X173666667Y-64202381D01*
X173571429Y-64202381D01*
X173428571Y-64154762D01*
X173333333Y-64059524D01*
X173285714Y-63964286D01*
X173238095Y-63773810D01*
X173238095Y-63630952D01*
X173285714Y-63440476D01*
X173333333Y-63345238D01*
X173428571Y-63250000D01*
X173571429Y-63202381D01*
X173666667Y-63202381D01*
X173809524Y-63250000D01*
X173857143Y-63297619D01*
X174428571Y-63630952D02*
X174333333Y-63583333D01*
X174285714Y-63535714D01*
X174238095Y-63440476D01*
X174238095Y-63392857D01*
X174285714Y-63297619D01*
X174333333Y-63250000D01*
X174428571Y-63202381D01*
X174619048Y-63202381D01*
X174714286Y-63250000D01*
X174761905Y-63297619D01*
X174809524Y-63392857D01*
X174809524Y-63440476D01*
X174761905Y-63535714D01*
X174714286Y-63583333D01*
X174619048Y-63630952D01*
X174428571Y-63630952D01*
X174333333Y-63678571D01*
X174285714Y-63726190D01*
X174238095Y-63821429D01*
X174238095Y-64011905D01*
X174285714Y-64107143D01*
X174333333Y-64154762D01*
X174428571Y-64202381D01*
X174619048Y-64202381D01*
X174714286Y-64154762D01*
X174761905Y-64107143D01*
X174809524Y-64011905D01*
X174809524Y-63821429D01*
X174761905Y-63726190D01*
X174714286Y-63678571D01*
X174619048Y-63630952D01*
X175666667Y-63535714D02*
X175666667Y-64202381D01*
X175428571Y-63154762D02*
X175190476Y-63869048D01*
X175809524Y-63869048D01*
X179899048Y-52601429D02*
X180660953Y-52601429D01*
X180280001Y-52982381D02*
X180280001Y-52220476D01*
X181607143Y-72892857D02*
X181654762Y-72940476D01*
X181702381Y-73083333D01*
X181702381Y-73178571D01*
X181654762Y-73321429D01*
X181559524Y-73416667D01*
X181464286Y-73464286D01*
X181273810Y-73511905D01*
X181130952Y-73511905D01*
X180940476Y-73464286D01*
X180845238Y-73416667D01*
X180750000Y-73321429D01*
X180702381Y-73178571D01*
X180702381Y-73083333D01*
X180750000Y-72940476D01*
X180797619Y-72892857D01*
X181130952Y-72321429D02*
X181083333Y-72416667D01*
X181035714Y-72464286D01*
X180940476Y-72511905D01*
X180892857Y-72511905D01*
X180797619Y-72464286D01*
X180750000Y-72416667D01*
X180702381Y-72321429D01*
X180702381Y-72130952D01*
X180750000Y-72035714D01*
X180797619Y-71988095D01*
X180892857Y-71940476D01*
X180940476Y-71940476D01*
X181035714Y-71988095D01*
X181083333Y-72035714D01*
X181130952Y-72130952D01*
X181130952Y-72321429D01*
X181178571Y-72416667D01*
X181226190Y-72464286D01*
X181321429Y-72511905D01*
X181511905Y-72511905D01*
X181607143Y-72464286D01*
X181654762Y-72416667D01*
X181702381Y-72321429D01*
X181702381Y-72130952D01*
X181654762Y-72035714D01*
X181607143Y-71988095D01*
X181511905Y-71940476D01*
X181321429Y-71940476D01*
X181226190Y-71988095D01*
X181178571Y-72035714D01*
X181130952Y-72130952D01*
X180702381Y-71035714D02*
X180702381Y-71511905D01*
X181178571Y-71559524D01*
X181130952Y-71511905D01*
X181083333Y-71416667D01*
X181083333Y-71178571D01*
X181130952Y-71083333D01*
X181178571Y-71035714D01*
X181273810Y-70988095D01*
X181511905Y-70988095D01*
X181607143Y-71035714D01*
X181654762Y-71083333D01*
X181702381Y-71178571D01*
X181702381Y-71416667D01*
X181654762Y-71511905D01*
X181607143Y-71559524D01*
X187857143Y-77107143D02*
X187809524Y-77154762D01*
X187666667Y-77202381D01*
X187571429Y-77202381D01*
X187428571Y-77154762D01*
X187333333Y-77059524D01*
X187285714Y-76964286D01*
X187238095Y-76773810D01*
X187238095Y-76630952D01*
X187285714Y-76440476D01*
X187333333Y-76345238D01*
X187428571Y-76250000D01*
X187571429Y-76202381D01*
X187666667Y-76202381D01*
X187809524Y-76250000D01*
X187857143Y-76297619D01*
X188428571Y-76630952D02*
X188333333Y-76583333D01*
X188285714Y-76535714D01*
X188238095Y-76440476D01*
X188238095Y-76392857D01*
X188285714Y-76297619D01*
X188333333Y-76250000D01*
X188428571Y-76202381D01*
X188619048Y-76202381D01*
X188714286Y-76250000D01*
X188761905Y-76297619D01*
X188809524Y-76392857D01*
X188809524Y-76440476D01*
X188761905Y-76535714D01*
X188714286Y-76583333D01*
X188619048Y-76630952D01*
X188428571Y-76630952D01*
X188333333Y-76678571D01*
X188285714Y-76726190D01*
X188238095Y-76821429D01*
X188238095Y-77011905D01*
X188285714Y-77107143D01*
X188333333Y-77154762D01*
X188428571Y-77202381D01*
X188619048Y-77202381D01*
X188714286Y-77154762D01*
X188761905Y-77107143D01*
X188809524Y-77011905D01*
X188809524Y-76821429D01*
X188761905Y-76726190D01*
X188714286Y-76678571D01*
X188619048Y-76630952D01*
X189666667Y-76202381D02*
X189476190Y-76202381D01*
X189380952Y-76250000D01*
X189333333Y-76297619D01*
X189238095Y-76440476D01*
X189190476Y-76630952D01*
X189190476Y-77011905D01*
X189238095Y-77107143D01*
X189285714Y-77154762D01*
X189380952Y-77202381D01*
X189571429Y-77202381D01*
X189666667Y-77154762D01*
X189714286Y-77107143D01*
X189761905Y-77011905D01*
X189761905Y-76773810D01*
X189714286Y-76678571D01*
X189666667Y-76630952D01*
X189571429Y-76583333D01*
X189380952Y-76583333D01*
X189285714Y-76630952D01*
X189238095Y-76678571D01*
X189190476Y-76773810D01*
X184607143Y-105142857D02*
X184654762Y-105190476D01*
X184702381Y-105333333D01*
X184702381Y-105428571D01*
X184654762Y-105571429D01*
X184559524Y-105666667D01*
X184464286Y-105714286D01*
X184273810Y-105761905D01*
X184130952Y-105761905D01*
X183940476Y-105714286D01*
X183845238Y-105666667D01*
X183750000Y-105571429D01*
X183702381Y-105428571D01*
X183702381Y-105333333D01*
X183750000Y-105190476D01*
X183797619Y-105142857D01*
X184130952Y-104571429D02*
X184083333Y-104666667D01*
X184035714Y-104714286D01*
X183940476Y-104761905D01*
X183892857Y-104761905D01*
X183797619Y-104714286D01*
X183750000Y-104666667D01*
X183702381Y-104571429D01*
X183702381Y-104380952D01*
X183750000Y-104285714D01*
X183797619Y-104238095D01*
X183892857Y-104190476D01*
X183940476Y-104190476D01*
X184035714Y-104238095D01*
X184083333Y-104285714D01*
X184130952Y-104380952D01*
X184130952Y-104571429D01*
X184178571Y-104666667D01*
X184226190Y-104714286D01*
X184321429Y-104761905D01*
X184511905Y-104761905D01*
X184607143Y-104714286D01*
X184654762Y-104666667D01*
X184702381Y-104571429D01*
X184702381Y-104380952D01*
X184654762Y-104285714D01*
X184607143Y-104238095D01*
X184511905Y-104190476D01*
X184321429Y-104190476D01*
X184226190Y-104238095D01*
X184178571Y-104285714D01*
X184130952Y-104380952D01*
X183702381Y-103857143D02*
X183702381Y-103190476D01*
X184702381Y-103619048D01*
X183107143Y-96642857D02*
X183154762Y-96690476D01*
X183202381Y-96833333D01*
X183202381Y-96928571D01*
X183154762Y-97071429D01*
X183059524Y-97166667D01*
X182964286Y-97214286D01*
X182773810Y-97261905D01*
X182630952Y-97261905D01*
X182440476Y-97214286D01*
X182345238Y-97166667D01*
X182250000Y-97071429D01*
X182202381Y-96928571D01*
X182202381Y-96833333D01*
X182250000Y-96690476D01*
X182297619Y-96642857D01*
X182630952Y-96071429D02*
X182583333Y-96166667D01*
X182535714Y-96214286D01*
X182440476Y-96261905D01*
X182392857Y-96261905D01*
X182297619Y-96214286D01*
X182250000Y-96166667D01*
X182202381Y-96071429D01*
X182202381Y-95880952D01*
X182250000Y-95785714D01*
X182297619Y-95738095D01*
X182392857Y-95690476D01*
X182440476Y-95690476D01*
X182535714Y-95738095D01*
X182583333Y-95785714D01*
X182630952Y-95880952D01*
X182630952Y-96071429D01*
X182678571Y-96166667D01*
X182726190Y-96214286D01*
X182821429Y-96261905D01*
X183011905Y-96261905D01*
X183107143Y-96214286D01*
X183154762Y-96166667D01*
X183202381Y-96071429D01*
X183202381Y-95880952D01*
X183154762Y-95785714D01*
X183107143Y-95738095D01*
X183011905Y-95690476D01*
X182821429Y-95690476D01*
X182726190Y-95738095D01*
X182678571Y-95785714D01*
X182630952Y-95880952D01*
X182630952Y-95119048D02*
X182583333Y-95214286D01*
X182535714Y-95261905D01*
X182440476Y-95309524D01*
X182392857Y-95309524D01*
X182297619Y-95261905D01*
X182250000Y-95214286D01*
X182202381Y-95119048D01*
X182202381Y-94928571D01*
X182250000Y-94833333D01*
X182297619Y-94785714D01*
X182392857Y-94738095D01*
X182440476Y-94738095D01*
X182535714Y-94785714D01*
X182583333Y-94833333D01*
X182630952Y-94928571D01*
X182630952Y-95119048D01*
X182678571Y-95214286D01*
X182726190Y-95261905D01*
X182821429Y-95309524D01*
X183011905Y-95309524D01*
X183107143Y-95261905D01*
X183154762Y-95214286D01*
X183202381Y-95119048D01*
X183202381Y-94928571D01*
X183154762Y-94833333D01*
X183107143Y-94785714D01*
X183011905Y-94738095D01*
X182821429Y-94738095D01*
X182726190Y-94785714D01*
X182678571Y-94833333D01*
X182630952Y-94928571D01*
X195107143Y-96642857D02*
X195154762Y-96690476D01*
X195202381Y-96833333D01*
X195202381Y-96928571D01*
X195154762Y-97071429D01*
X195059524Y-97166667D01*
X194964286Y-97214286D01*
X194773810Y-97261905D01*
X194630952Y-97261905D01*
X194440476Y-97214286D01*
X194345238Y-97166667D01*
X194250000Y-97071429D01*
X194202381Y-96928571D01*
X194202381Y-96833333D01*
X194250000Y-96690476D01*
X194297619Y-96642857D01*
X194630952Y-96071429D02*
X194583333Y-96166667D01*
X194535714Y-96214286D01*
X194440476Y-96261905D01*
X194392857Y-96261905D01*
X194297619Y-96214286D01*
X194250000Y-96166667D01*
X194202381Y-96071429D01*
X194202381Y-95880952D01*
X194250000Y-95785714D01*
X194297619Y-95738095D01*
X194392857Y-95690476D01*
X194440476Y-95690476D01*
X194535714Y-95738095D01*
X194583333Y-95785714D01*
X194630952Y-95880952D01*
X194630952Y-96071429D01*
X194678571Y-96166667D01*
X194726190Y-96214286D01*
X194821429Y-96261905D01*
X195011905Y-96261905D01*
X195107143Y-96214286D01*
X195154762Y-96166667D01*
X195202381Y-96071429D01*
X195202381Y-95880952D01*
X195154762Y-95785714D01*
X195107143Y-95738095D01*
X195011905Y-95690476D01*
X194821429Y-95690476D01*
X194726190Y-95738095D01*
X194678571Y-95785714D01*
X194630952Y-95880952D01*
X195202381Y-95214286D02*
X195202381Y-95023810D01*
X195154762Y-94928571D01*
X195107143Y-94880952D01*
X194964286Y-94785714D01*
X194773810Y-94738095D01*
X194392857Y-94738095D01*
X194297619Y-94785714D01*
X194250000Y-94833333D01*
X194202381Y-94928571D01*
X194202381Y-95119048D01*
X194250000Y-95214286D01*
X194297619Y-95261905D01*
X194392857Y-95309524D01*
X194630952Y-95309524D01*
X194726190Y-95261905D01*
X194773810Y-95214286D01*
X194821429Y-95119048D01*
X194821429Y-94928571D01*
X194773810Y-94833333D01*
X194726190Y-94785714D01*
X194630952Y-94738095D01*
X83761905Y-98952381D02*
X83761905Y-97952381D01*
X84000000Y-97952381D01*
X84142858Y-98000000D01*
X84238096Y-98095238D01*
X84285715Y-98190476D01*
X84333334Y-98380952D01*
X84333334Y-98523810D01*
X84285715Y-98714286D01*
X84238096Y-98809524D01*
X84142858Y-98904762D01*
X84000000Y-98952381D01*
X83761905Y-98952381D01*
X84714286Y-98047619D02*
X84761905Y-98000000D01*
X84857143Y-97952381D01*
X85095239Y-97952381D01*
X85190477Y-98000000D01*
X85238096Y-98047619D01*
X85285715Y-98142857D01*
X85285715Y-98238095D01*
X85238096Y-98380952D01*
X84666667Y-98952381D01*
X85285715Y-98952381D01*
X195761905Y-109452381D02*
X195761905Y-108452381D01*
X196000000Y-108452381D01*
X196142858Y-108500000D01*
X196238096Y-108595238D01*
X196285715Y-108690476D01*
X196333334Y-108880952D01*
X196333334Y-109023810D01*
X196285715Y-109214286D01*
X196238096Y-109309524D01*
X196142858Y-109404762D01*
X196000000Y-109452381D01*
X195761905Y-109452381D01*
X196666667Y-108452381D02*
X197285715Y-108452381D01*
X196952381Y-108833333D01*
X197095239Y-108833333D01*
X197190477Y-108880952D01*
X197238096Y-108928571D01*
X197285715Y-109023810D01*
X197285715Y-109261905D01*
X197238096Y-109357143D01*
X197190477Y-109404762D01*
X197095239Y-109452381D01*
X196809524Y-109452381D01*
X196714286Y-109404762D01*
X196666667Y-109357143D01*
X187511905Y-69452381D02*
X187511905Y-68452381D01*
X187750000Y-68452381D01*
X187892858Y-68500000D01*
X187988096Y-68595238D01*
X188035715Y-68690476D01*
X188083334Y-68880952D01*
X188083334Y-69023810D01*
X188035715Y-69214286D01*
X187988096Y-69309524D01*
X187892858Y-69404762D01*
X187750000Y-69452381D01*
X187511905Y-69452381D01*
X188416667Y-68452381D02*
X189083334Y-68452381D01*
X188654762Y-69452381D01*
X126083334Y-54702381D02*
X125607143Y-54702381D01*
X125607143Y-53702381D01*
X126369048Y-53797619D02*
X126416667Y-53750000D01*
X126511905Y-53702381D01*
X126750001Y-53702381D01*
X126845239Y-53750000D01*
X126892858Y-53797619D01*
X126940477Y-53892857D01*
X126940477Y-53988095D01*
X126892858Y-54130952D01*
X126321429Y-54702381D01*
X126940477Y-54702381D01*
X125833334Y-66702381D02*
X125357143Y-66702381D01*
X125357143Y-65702381D01*
X126595239Y-66035714D02*
X126595239Y-66702381D01*
X126357143Y-65654762D02*
X126119048Y-66369048D01*
X126738096Y-66369048D01*
X126083334Y-78952381D02*
X125607143Y-78952381D01*
X125607143Y-77952381D01*
X126845239Y-77952381D02*
X126654762Y-77952381D01*
X126559524Y-78000000D01*
X126511905Y-78047619D01*
X126416667Y-78190476D01*
X126369048Y-78380952D01*
X126369048Y-78761905D01*
X126416667Y-78857143D01*
X126464286Y-78904762D01*
X126559524Y-78952381D01*
X126750001Y-78952381D01*
X126845239Y-78904762D01*
X126892858Y-78857143D01*
X126940477Y-78761905D01*
X126940477Y-78523810D01*
X126892858Y-78428571D01*
X126845239Y-78380952D01*
X126750001Y-78333333D01*
X126559524Y-78333333D01*
X126464286Y-78380952D01*
X126416667Y-78428571D01*
X126369048Y-78523810D01*
X126083334Y-90702381D02*
X125607143Y-90702381D01*
X125607143Y-89702381D01*
X126559524Y-90130952D02*
X126464286Y-90083333D01*
X126416667Y-90035714D01*
X126369048Y-89940476D01*
X126369048Y-89892857D01*
X126416667Y-89797619D01*
X126464286Y-89750000D01*
X126559524Y-89702381D01*
X126750001Y-89702381D01*
X126845239Y-89750000D01*
X126892858Y-89797619D01*
X126940477Y-89892857D01*
X126940477Y-89940476D01*
X126892858Y-90035714D01*
X126845239Y-90083333D01*
X126750001Y-90130952D01*
X126559524Y-90130952D01*
X126464286Y-90178571D01*
X126416667Y-90226190D01*
X126369048Y-90321429D01*
X126369048Y-90511905D01*
X126416667Y-90607143D01*
X126464286Y-90654762D01*
X126559524Y-90702381D01*
X126750001Y-90702381D01*
X126845239Y-90654762D01*
X126892858Y-90607143D01*
X126940477Y-90511905D01*
X126940477Y-90321429D01*
X126892858Y-90226190D01*
X126845239Y-90178571D01*
X126750001Y-90130952D01*
X76833334Y-111202381D02*
X76357143Y-111202381D01*
X76357143Y-110202381D01*
X77214286Y-111202381D02*
X77404762Y-111202381D01*
X77500001Y-111154762D01*
X77547620Y-111107143D01*
X77642858Y-110964286D01*
X77690477Y-110773810D01*
X77690477Y-110392857D01*
X77642858Y-110297619D01*
X77595239Y-110250000D01*
X77500001Y-110202381D01*
X77309524Y-110202381D01*
X77214286Y-110250000D01*
X77166667Y-110297619D01*
X77119048Y-110392857D01*
X77119048Y-110630952D01*
X77166667Y-110726190D01*
X77214286Y-110773810D01*
X77309524Y-110821429D01*
X77500001Y-110821429D01*
X77595239Y-110773810D01*
X77642858Y-110726190D01*
X77690477Y-110630952D01*
X117607143Y-116202381D02*
X117130952Y-116202381D01*
X117130952Y-115202381D01*
X118464286Y-116202381D02*
X117892857Y-116202381D01*
X118178571Y-116202381D02*
X118178571Y-115202381D01*
X118083333Y-115345238D01*
X117988095Y-115440476D01*
X117892857Y-115488095D01*
X119083333Y-115202381D02*
X119178572Y-115202381D01*
X119273810Y-115250000D01*
X119321429Y-115297619D01*
X119369048Y-115392857D01*
X119416667Y-115583333D01*
X119416667Y-115821429D01*
X119369048Y-116011905D01*
X119321429Y-116107143D01*
X119273810Y-116154762D01*
X119178572Y-116202381D01*
X119083333Y-116202381D01*
X118988095Y-116154762D01*
X118940476Y-116107143D01*
X118892857Y-116011905D01*
X118845238Y-115821429D01*
X118845238Y-115583333D01*
X118892857Y-115392857D01*
X118940476Y-115297619D01*
X118988095Y-115250000D01*
X119083333Y-115202381D01*
X117607143Y-118702381D02*
X117130952Y-118702381D01*
X117130952Y-117702381D01*
X118464286Y-118702381D02*
X117892857Y-118702381D01*
X118178571Y-118702381D02*
X118178571Y-117702381D01*
X118083333Y-117845238D01*
X117988095Y-117940476D01*
X117892857Y-117988095D01*
X119416667Y-118702381D02*
X118845238Y-118702381D01*
X119130952Y-118702381D02*
X119130952Y-117702381D01*
X119035714Y-117845238D01*
X118940476Y-117940476D01*
X118845238Y-117988095D01*
X133202381Y-115642857D02*
X133202381Y-116119048D01*
X132202381Y-116119048D01*
X133202381Y-114785714D02*
X133202381Y-115357143D01*
X133202381Y-115071429D02*
X132202381Y-115071429D01*
X132345238Y-115166667D01*
X132440476Y-115261905D01*
X132488095Y-115357143D01*
X132297619Y-114404762D02*
X132250000Y-114357143D01*
X132202381Y-114261905D01*
X132202381Y-114023809D01*
X132250000Y-113928571D01*
X132297619Y-113880952D01*
X132392857Y-113833333D01*
X132488095Y-113833333D01*
X132630952Y-113880952D01*
X133202381Y-114452381D01*
X133202381Y-113833333D01*
X117857143Y-111702381D02*
X117380952Y-111702381D01*
X117380952Y-110702381D01*
X118714286Y-111702381D02*
X118142857Y-111702381D01*
X118428571Y-111702381D02*
X118428571Y-110702381D01*
X118333333Y-110845238D01*
X118238095Y-110940476D01*
X118142857Y-110988095D01*
X119047619Y-110702381D02*
X119666667Y-110702381D01*
X119333333Y-111083333D01*
X119476191Y-111083333D01*
X119571429Y-111130952D01*
X119619048Y-111178571D01*
X119666667Y-111273810D01*
X119666667Y-111511905D01*
X119619048Y-111607143D01*
X119571429Y-111654762D01*
X119476191Y-111702381D01*
X119190476Y-111702381D01*
X119095238Y-111654762D01*
X119047619Y-111607143D01*
X117107143Y-104202381D02*
X116630952Y-104202381D01*
X116630952Y-103202381D01*
X117964286Y-104202381D02*
X117392857Y-104202381D01*
X117678571Y-104202381D02*
X117678571Y-103202381D01*
X117583333Y-103345238D01*
X117488095Y-103440476D01*
X117392857Y-103488095D01*
X118821429Y-103535714D02*
X118821429Y-104202381D01*
X118583333Y-103154762D02*
X118345238Y-103869048D01*
X118964286Y-103869048D01*
X130452381Y-111642857D02*
X130452381Y-112119048D01*
X129452381Y-112119048D01*
X130452381Y-110785714D02*
X130452381Y-111357143D01*
X130452381Y-111071429D02*
X129452381Y-111071429D01*
X129595238Y-111166667D01*
X129690476Y-111261905D01*
X129738095Y-111357143D01*
X129452381Y-109880952D02*
X129452381Y-110357143D01*
X129928571Y-110404762D01*
X129880952Y-110357143D01*
X129833333Y-110261905D01*
X129833333Y-110023809D01*
X129880952Y-109928571D01*
X129928571Y-109880952D01*
X130023810Y-109833333D01*
X130261905Y-109833333D01*
X130357143Y-109880952D01*
X130404762Y-109928571D01*
X130452381Y-110023809D01*
X130452381Y-110261905D01*
X130404762Y-110357143D01*
X130357143Y-110404762D01*
X155607143Y-119952381D02*
X155130952Y-119952381D01*
X155130952Y-118952381D01*
X156464286Y-119952381D02*
X155892857Y-119952381D01*
X156178571Y-119952381D02*
X156178571Y-118952381D01*
X156083333Y-119095238D01*
X155988095Y-119190476D01*
X155892857Y-119238095D01*
X157321429Y-118952381D02*
X157130952Y-118952381D01*
X157035714Y-119000000D01*
X156988095Y-119047619D01*
X156892857Y-119190476D01*
X156845238Y-119380952D01*
X156845238Y-119761905D01*
X156892857Y-119857143D01*
X156940476Y-119904762D01*
X157035714Y-119952381D01*
X157226191Y-119952381D01*
X157321429Y-119904762D01*
X157369048Y-119857143D01*
X157416667Y-119761905D01*
X157416667Y-119523810D01*
X157369048Y-119428571D01*
X157321429Y-119380952D01*
X157226191Y-119333333D01*
X157035714Y-119333333D01*
X156940476Y-119380952D01*
X156892857Y-119428571D01*
X156845238Y-119523810D01*
X136357143Y-119952381D02*
X135880952Y-119952381D01*
X135880952Y-118952381D01*
X137214286Y-119952381D02*
X136642857Y-119952381D01*
X136928571Y-119952381D02*
X136928571Y-118952381D01*
X136833333Y-119095238D01*
X136738095Y-119190476D01*
X136642857Y-119238095D01*
X137547619Y-118952381D02*
X138214286Y-118952381D01*
X137785714Y-119952381D01*
X151857143Y-64302381D02*
X151380952Y-64302381D01*
X151380952Y-63302381D01*
X152714286Y-64302381D02*
X152142857Y-64302381D01*
X152428571Y-64302381D02*
X152428571Y-63302381D01*
X152333333Y-63445238D01*
X152238095Y-63540476D01*
X152142857Y-63588095D01*
X153285714Y-63730952D02*
X153190476Y-63683333D01*
X153142857Y-63635714D01*
X153095238Y-63540476D01*
X153095238Y-63492857D01*
X153142857Y-63397619D01*
X153190476Y-63350000D01*
X153285714Y-63302381D01*
X153476191Y-63302381D01*
X153571429Y-63350000D01*
X153619048Y-63397619D01*
X153666667Y-63492857D01*
X153666667Y-63540476D01*
X153619048Y-63635714D01*
X153571429Y-63683333D01*
X153476191Y-63730952D01*
X153285714Y-63730952D01*
X153190476Y-63778571D01*
X153142857Y-63826190D01*
X153095238Y-63921429D01*
X153095238Y-64111905D01*
X153142857Y-64207143D01*
X153190476Y-64254762D01*
X153285714Y-64302381D01*
X153476191Y-64302381D01*
X153571429Y-64254762D01*
X153619048Y-64207143D01*
X153666667Y-64111905D01*
X153666667Y-63921429D01*
X153619048Y-63826190D01*
X153571429Y-63778571D01*
X153476191Y-63730952D01*
X190357143Y-67452381D02*
X189880952Y-67452381D01*
X189880952Y-66452381D01*
X191214286Y-67452381D02*
X190642857Y-67452381D01*
X190928571Y-67452381D02*
X190928571Y-66452381D01*
X190833333Y-66595238D01*
X190738095Y-66690476D01*
X190642857Y-66738095D01*
X191690476Y-67452381D02*
X191880952Y-67452381D01*
X191976191Y-67404762D01*
X192023810Y-67357143D01*
X192119048Y-67214286D01*
X192166667Y-67023810D01*
X192166667Y-66642857D01*
X192119048Y-66547619D01*
X192071429Y-66500000D01*
X191976191Y-66452381D01*
X191785714Y-66452381D01*
X191690476Y-66500000D01*
X191642857Y-66547619D01*
X191595238Y-66642857D01*
X191595238Y-66880952D01*
X191642857Y-66976190D01*
X191690476Y-67023810D01*
X191785714Y-67071429D01*
X191976191Y-67071429D01*
X192071429Y-67023810D01*
X192119048Y-66976190D01*
X192166667Y-66880952D01*
X189857143Y-92852381D02*
X189380952Y-92852381D01*
X189380952Y-91852381D01*
X190142857Y-91947619D02*
X190190476Y-91900000D01*
X190285714Y-91852381D01*
X190523810Y-91852381D01*
X190619048Y-91900000D01*
X190666667Y-91947619D01*
X190714286Y-92042857D01*
X190714286Y-92138095D01*
X190666667Y-92280952D01*
X190095238Y-92852381D01*
X190714286Y-92852381D01*
X191333333Y-91852381D02*
X191428572Y-91852381D01*
X191523810Y-91900000D01*
X191571429Y-91947619D01*
X191619048Y-92042857D01*
X191666667Y-92233333D01*
X191666667Y-92471429D01*
X191619048Y-92661905D01*
X191571429Y-92757143D01*
X191523810Y-92804762D01*
X191428572Y-92852381D01*
X191333333Y-92852381D01*
X191238095Y-92804762D01*
X191190476Y-92757143D01*
X191142857Y-92661905D01*
X191095238Y-92471429D01*
X191095238Y-92233333D01*
X191142857Y-92042857D01*
X191190476Y-91947619D01*
X191238095Y-91900000D01*
X191333333Y-91852381D01*
X83452381Y-108166666D02*
X82976190Y-108500000D01*
X83452381Y-108738095D02*
X82452381Y-108738095D01*
X82452381Y-108357142D01*
X82500000Y-108261904D01*
X82547619Y-108214285D01*
X82642857Y-108166666D01*
X82785714Y-108166666D01*
X82880952Y-108214285D01*
X82928571Y-108261904D01*
X82976190Y-108357142D01*
X82976190Y-108738095D01*
X82452381Y-107261904D02*
X82452381Y-107738095D01*
X82928571Y-107785714D01*
X82880952Y-107738095D01*
X82833333Y-107642857D01*
X82833333Y-107404761D01*
X82880952Y-107309523D01*
X82928571Y-107261904D01*
X83023810Y-107214285D01*
X83261905Y-107214285D01*
X83357143Y-107261904D01*
X83404762Y-107309523D01*
X83452381Y-107404761D01*
X83452381Y-107642857D01*
X83404762Y-107738095D01*
X83357143Y-107785714D01*
X105702381Y-116916666D02*
X105226190Y-117250000D01*
X105702381Y-117488095D02*
X104702381Y-117488095D01*
X104702381Y-117107142D01*
X104750000Y-117011904D01*
X104797619Y-116964285D01*
X104892857Y-116916666D01*
X105035714Y-116916666D01*
X105130952Y-116964285D01*
X105178571Y-117011904D01*
X105226190Y-117107142D01*
X105226190Y-117488095D01*
X104702381Y-116059523D02*
X104702381Y-116250000D01*
X104750000Y-116345238D01*
X104797619Y-116392857D01*
X104940476Y-116488095D01*
X105130952Y-116535714D01*
X105511905Y-116535714D01*
X105607143Y-116488095D01*
X105654762Y-116440476D01*
X105702381Y-116345238D01*
X105702381Y-116154761D01*
X105654762Y-116059523D01*
X105607143Y-116011904D01*
X105511905Y-115964285D01*
X105273810Y-115964285D01*
X105178571Y-116011904D01*
X105130952Y-116059523D01*
X105083333Y-116154761D01*
X105083333Y-116345238D01*
X105130952Y-116440476D01*
X105178571Y-116488095D01*
X105273810Y-116535714D01*
X80833334Y-120402381D02*
X80500000Y-119926190D01*
X80261905Y-120402381D02*
X80261905Y-119402381D01*
X80642858Y-119402381D01*
X80738096Y-119450000D01*
X80785715Y-119497619D01*
X80833334Y-119592857D01*
X80833334Y-119735714D01*
X80785715Y-119830952D01*
X80738096Y-119878571D01*
X80642858Y-119926190D01*
X80261905Y-119926190D01*
X81166667Y-119402381D02*
X81833334Y-119402381D01*
X81404762Y-120402381D01*
X84583334Y-85452381D02*
X84250000Y-84976190D01*
X84011905Y-85452381D02*
X84011905Y-84452381D01*
X84392858Y-84452381D01*
X84488096Y-84500000D01*
X84535715Y-84547619D01*
X84583334Y-84642857D01*
X84583334Y-84785714D01*
X84535715Y-84880952D01*
X84488096Y-84928571D01*
X84392858Y-84976190D01*
X84011905Y-84976190D01*
X85154762Y-84880952D02*
X85059524Y-84833333D01*
X85011905Y-84785714D01*
X84964286Y-84690476D01*
X84964286Y-84642857D01*
X85011905Y-84547619D01*
X85059524Y-84500000D01*
X85154762Y-84452381D01*
X85345239Y-84452381D01*
X85440477Y-84500000D01*
X85488096Y-84547619D01*
X85535715Y-84642857D01*
X85535715Y-84690476D01*
X85488096Y-84785714D01*
X85440477Y-84833333D01*
X85345239Y-84880952D01*
X85154762Y-84880952D01*
X85059524Y-84928571D01*
X85011905Y-84976190D01*
X84964286Y-85071429D01*
X84964286Y-85261905D01*
X85011905Y-85357143D01*
X85059524Y-85404762D01*
X85154762Y-85452381D01*
X85345239Y-85452381D01*
X85440477Y-85404762D01*
X85488096Y-85357143D01*
X85535715Y-85261905D01*
X85535715Y-85071429D01*
X85488096Y-84976190D01*
X85440477Y-84928571D01*
X85345239Y-84880952D01*
X84583334Y-83452381D02*
X84250000Y-82976190D01*
X84011905Y-83452381D02*
X84011905Y-82452381D01*
X84392858Y-82452381D01*
X84488096Y-82500000D01*
X84535715Y-82547619D01*
X84583334Y-82642857D01*
X84583334Y-82785714D01*
X84535715Y-82880952D01*
X84488096Y-82928571D01*
X84392858Y-82976190D01*
X84011905Y-82976190D01*
X85059524Y-83452381D02*
X85250000Y-83452381D01*
X85345239Y-83404762D01*
X85392858Y-83357143D01*
X85488096Y-83214286D01*
X85535715Y-83023810D01*
X85535715Y-82642857D01*
X85488096Y-82547619D01*
X85440477Y-82500000D01*
X85345239Y-82452381D01*
X85154762Y-82452381D01*
X85059524Y-82500000D01*
X85011905Y-82547619D01*
X84964286Y-82642857D01*
X84964286Y-82880952D01*
X85011905Y-82976190D01*
X85059524Y-83023810D01*
X85154762Y-83071429D01*
X85345239Y-83071429D01*
X85440477Y-83023810D01*
X85488096Y-82976190D01*
X85535715Y-82880952D01*
X86702381Y-118142857D02*
X86226190Y-118476191D01*
X86702381Y-118714286D02*
X85702381Y-118714286D01*
X85702381Y-118333333D01*
X85750000Y-118238095D01*
X85797619Y-118190476D01*
X85892857Y-118142857D01*
X86035714Y-118142857D01*
X86130952Y-118190476D01*
X86178571Y-118238095D01*
X86226190Y-118333333D01*
X86226190Y-118714286D01*
X86702381Y-117190476D02*
X86702381Y-117761905D01*
X86702381Y-117476191D02*
X85702381Y-117476191D01*
X85845238Y-117571429D01*
X85940476Y-117666667D01*
X85988095Y-117761905D01*
X85702381Y-116571429D02*
X85702381Y-116476190D01*
X85750000Y-116380952D01*
X85797619Y-116333333D01*
X85892857Y-116285714D01*
X86083333Y-116238095D01*
X86321429Y-116238095D01*
X86511905Y-116285714D01*
X86607143Y-116333333D01*
X86654762Y-116380952D01*
X86702381Y-116476190D01*
X86702381Y-116571429D01*
X86654762Y-116666667D01*
X86607143Y-116714286D01*
X86511905Y-116761905D01*
X86321429Y-116809524D01*
X86083333Y-116809524D01*
X85892857Y-116761905D01*
X85797619Y-116714286D01*
X85750000Y-116666667D01*
X85702381Y-116571429D01*
X83857143Y-72452381D02*
X83523809Y-71976190D01*
X83285714Y-72452381D02*
X83285714Y-71452381D01*
X83666667Y-71452381D01*
X83761905Y-71500000D01*
X83809524Y-71547619D01*
X83857143Y-71642857D01*
X83857143Y-71785714D01*
X83809524Y-71880952D01*
X83761905Y-71928571D01*
X83666667Y-71976190D01*
X83285714Y-71976190D01*
X84809524Y-72452381D02*
X84238095Y-72452381D01*
X84523809Y-72452381D02*
X84523809Y-71452381D01*
X84428571Y-71595238D01*
X84333333Y-71690476D01*
X84238095Y-71738095D01*
X85761905Y-72452381D02*
X85190476Y-72452381D01*
X85476190Y-72452381D02*
X85476190Y-71452381D01*
X85380952Y-71595238D01*
X85285714Y-71690476D01*
X85190476Y-71738095D01*
X83857143Y-70452381D02*
X83523809Y-69976190D01*
X83285714Y-70452381D02*
X83285714Y-69452381D01*
X83666667Y-69452381D01*
X83761905Y-69500000D01*
X83809524Y-69547619D01*
X83857143Y-69642857D01*
X83857143Y-69785714D01*
X83809524Y-69880952D01*
X83761905Y-69928571D01*
X83666667Y-69976190D01*
X83285714Y-69976190D01*
X84809524Y-70452381D02*
X84238095Y-70452381D01*
X84523809Y-70452381D02*
X84523809Y-69452381D01*
X84428571Y-69595238D01*
X84333333Y-69690476D01*
X84238095Y-69738095D01*
X85190476Y-69547619D02*
X85238095Y-69500000D01*
X85333333Y-69452381D01*
X85571429Y-69452381D01*
X85666667Y-69500000D01*
X85714286Y-69547619D01*
X85761905Y-69642857D01*
X85761905Y-69738095D01*
X85714286Y-69880952D01*
X85142857Y-70452381D01*
X85761905Y-70452381D01*
X80452381Y-95142857D02*
X79976190Y-95476191D01*
X80452381Y-95714286D02*
X79452381Y-95714286D01*
X79452381Y-95333333D01*
X79500000Y-95238095D01*
X79547619Y-95190476D01*
X79642857Y-95142857D01*
X79785714Y-95142857D01*
X79880952Y-95190476D01*
X79928571Y-95238095D01*
X79976190Y-95333333D01*
X79976190Y-95714286D01*
X80452381Y-94190476D02*
X80452381Y-94761905D01*
X80452381Y-94476191D02*
X79452381Y-94476191D01*
X79595238Y-94571429D01*
X79690476Y-94666667D01*
X79738095Y-94761905D01*
X79452381Y-93857143D02*
X79452381Y-93238095D01*
X79833333Y-93571429D01*
X79833333Y-93428571D01*
X79880952Y-93333333D01*
X79928571Y-93285714D01*
X80023810Y-93238095D01*
X80261905Y-93238095D01*
X80357143Y-93285714D01*
X80404762Y-93333333D01*
X80452381Y-93428571D01*
X80452381Y-93714286D01*
X80404762Y-93809524D01*
X80357143Y-93857143D01*
X108702381Y-102392857D02*
X108226190Y-102726191D01*
X108702381Y-102964286D02*
X107702381Y-102964286D01*
X107702381Y-102583333D01*
X107750000Y-102488095D01*
X107797619Y-102440476D01*
X107892857Y-102392857D01*
X108035714Y-102392857D01*
X108130952Y-102440476D01*
X108178571Y-102488095D01*
X108226190Y-102583333D01*
X108226190Y-102964286D01*
X108702381Y-101440476D02*
X108702381Y-102011905D01*
X108702381Y-101726191D02*
X107702381Y-101726191D01*
X107845238Y-101821429D01*
X107940476Y-101916667D01*
X107988095Y-102011905D01*
X108035714Y-100583333D02*
X108702381Y-100583333D01*
X107654762Y-100821429D02*
X108369048Y-101059524D01*
X108369048Y-100440476D01*
X89857143Y-119702381D02*
X89523809Y-119226190D01*
X89285714Y-119702381D02*
X89285714Y-118702381D01*
X89666667Y-118702381D01*
X89761905Y-118750000D01*
X89809524Y-118797619D01*
X89857143Y-118892857D01*
X89857143Y-119035714D01*
X89809524Y-119130952D01*
X89761905Y-119178571D01*
X89666667Y-119226190D01*
X89285714Y-119226190D01*
X90809524Y-119702381D02*
X90238095Y-119702381D01*
X90523809Y-119702381D02*
X90523809Y-118702381D01*
X90428571Y-118845238D01*
X90333333Y-118940476D01*
X90238095Y-118988095D01*
X91714286Y-118702381D02*
X91238095Y-118702381D01*
X91190476Y-119178571D01*
X91238095Y-119130952D01*
X91333333Y-119083333D01*
X91571429Y-119083333D01*
X91666667Y-119130952D01*
X91714286Y-119178571D01*
X91761905Y-119273810D01*
X91761905Y-119511905D01*
X91714286Y-119607143D01*
X91666667Y-119654762D01*
X91571429Y-119702381D01*
X91333333Y-119702381D01*
X91238095Y-119654762D01*
X91190476Y-119607143D01*
X110702381Y-102392857D02*
X110226190Y-102726191D01*
X110702381Y-102964286D02*
X109702381Y-102964286D01*
X109702381Y-102583333D01*
X109750000Y-102488095D01*
X109797619Y-102440476D01*
X109892857Y-102392857D01*
X110035714Y-102392857D01*
X110130952Y-102440476D01*
X110178571Y-102488095D01*
X110226190Y-102583333D01*
X110226190Y-102964286D01*
X110702381Y-101440476D02*
X110702381Y-102011905D01*
X110702381Y-101726191D02*
X109702381Y-101726191D01*
X109845238Y-101821429D01*
X109940476Y-101916667D01*
X109988095Y-102011905D01*
X109702381Y-100583333D02*
X109702381Y-100773810D01*
X109750000Y-100869048D01*
X109797619Y-100916667D01*
X109940476Y-101011905D01*
X110130952Y-101059524D01*
X110511905Y-101059524D01*
X110607143Y-101011905D01*
X110654762Y-100964286D01*
X110702381Y-100869048D01*
X110702381Y-100678571D01*
X110654762Y-100583333D01*
X110607143Y-100535714D01*
X110511905Y-100488095D01*
X110273810Y-100488095D01*
X110178571Y-100535714D01*
X110130952Y-100583333D01*
X110083333Y-100678571D01*
X110083333Y-100869048D01*
X110130952Y-100964286D01*
X110178571Y-101011905D01*
X110273810Y-101059524D01*
X112702381Y-102392857D02*
X112226190Y-102726191D01*
X112702381Y-102964286D02*
X111702381Y-102964286D01*
X111702381Y-102583333D01*
X111750000Y-102488095D01*
X111797619Y-102440476D01*
X111892857Y-102392857D01*
X112035714Y-102392857D01*
X112130952Y-102440476D01*
X112178571Y-102488095D01*
X112226190Y-102583333D01*
X112226190Y-102964286D01*
X112702381Y-101440476D02*
X112702381Y-102011905D01*
X112702381Y-101726191D02*
X111702381Y-101726191D01*
X111845238Y-101821429D01*
X111940476Y-101916667D01*
X111988095Y-102011905D01*
X111702381Y-101107143D02*
X111702381Y-100440476D01*
X112702381Y-100869048D01*
X114702381Y-102392857D02*
X114226190Y-102726191D01*
X114702381Y-102964286D02*
X113702381Y-102964286D01*
X113702381Y-102583333D01*
X113750000Y-102488095D01*
X113797619Y-102440476D01*
X113892857Y-102392857D01*
X114035714Y-102392857D01*
X114130952Y-102440476D01*
X114178571Y-102488095D01*
X114226190Y-102583333D01*
X114226190Y-102964286D01*
X114702381Y-101440476D02*
X114702381Y-102011905D01*
X114702381Y-101726191D02*
X113702381Y-101726191D01*
X113845238Y-101821429D01*
X113940476Y-101916667D01*
X113988095Y-102011905D01*
X114130952Y-100869048D02*
X114083333Y-100964286D01*
X114035714Y-101011905D01*
X113940476Y-101059524D01*
X113892857Y-101059524D01*
X113797619Y-101011905D01*
X113750000Y-100964286D01*
X113702381Y-100869048D01*
X113702381Y-100678571D01*
X113750000Y-100583333D01*
X113797619Y-100535714D01*
X113892857Y-100488095D01*
X113940476Y-100488095D01*
X114035714Y-100535714D01*
X114083333Y-100583333D01*
X114130952Y-100678571D01*
X114130952Y-100869048D01*
X114178571Y-100964286D01*
X114226190Y-101011905D01*
X114321429Y-101059524D01*
X114511905Y-101059524D01*
X114607143Y-101011905D01*
X114654762Y-100964286D01*
X114702381Y-100869048D01*
X114702381Y-100678571D01*
X114654762Y-100583333D01*
X114607143Y-100535714D01*
X114511905Y-100488095D01*
X114321429Y-100488095D01*
X114226190Y-100535714D01*
X114178571Y-100583333D01*
X114130952Y-100678571D01*
X118107143Y-109952381D02*
X117773809Y-109476190D01*
X117535714Y-109952381D02*
X117535714Y-108952381D01*
X117916667Y-108952381D01*
X118011905Y-109000000D01*
X118059524Y-109047619D01*
X118107143Y-109142857D01*
X118107143Y-109285714D01*
X118059524Y-109380952D01*
X118011905Y-109428571D01*
X117916667Y-109476190D01*
X117535714Y-109476190D01*
X119059524Y-109952381D02*
X118488095Y-109952381D01*
X118773809Y-109952381D02*
X118773809Y-108952381D01*
X118678571Y-109095238D01*
X118583333Y-109190476D01*
X118488095Y-109238095D01*
X119535714Y-109952381D02*
X119726190Y-109952381D01*
X119821429Y-109904762D01*
X119869048Y-109857143D01*
X119964286Y-109714286D01*
X120011905Y-109523810D01*
X120011905Y-109142857D01*
X119964286Y-109047619D01*
X119916667Y-109000000D01*
X119821429Y-108952381D01*
X119630952Y-108952381D01*
X119535714Y-109000000D01*
X119488095Y-109047619D01*
X119440476Y-109142857D01*
X119440476Y-109380952D01*
X119488095Y-109476190D01*
X119535714Y-109523810D01*
X119630952Y-109571429D01*
X119821429Y-109571429D01*
X119916667Y-109523810D01*
X119964286Y-109476190D01*
X120011905Y-109380952D01*
X120857143Y-106952381D02*
X120523809Y-106476190D01*
X120285714Y-106952381D02*
X120285714Y-105952381D01*
X120666667Y-105952381D01*
X120761905Y-106000000D01*
X120809524Y-106047619D01*
X120857143Y-106142857D01*
X120857143Y-106285714D01*
X120809524Y-106380952D01*
X120761905Y-106428571D01*
X120666667Y-106476190D01*
X120285714Y-106476190D01*
X121238095Y-106047619D02*
X121285714Y-106000000D01*
X121380952Y-105952381D01*
X121619048Y-105952381D01*
X121714286Y-106000000D01*
X121761905Y-106047619D01*
X121809524Y-106142857D01*
X121809524Y-106238095D01*
X121761905Y-106380952D01*
X121190476Y-106952381D01*
X121809524Y-106952381D01*
X122428571Y-105952381D02*
X122523810Y-105952381D01*
X122619048Y-106000000D01*
X122666667Y-106047619D01*
X122714286Y-106142857D01*
X122761905Y-106333333D01*
X122761905Y-106571429D01*
X122714286Y-106761905D01*
X122666667Y-106857143D01*
X122619048Y-106904762D01*
X122523810Y-106952381D01*
X122428571Y-106952381D01*
X122333333Y-106904762D01*
X122285714Y-106857143D01*
X122238095Y-106761905D01*
X122190476Y-106571429D01*
X122190476Y-106333333D01*
X122238095Y-106142857D01*
X122285714Y-106047619D01*
X122333333Y-106000000D01*
X122428571Y-105952381D01*
X162857143Y-108952381D02*
X162523809Y-108476190D01*
X162285714Y-108952381D02*
X162285714Y-107952381D01*
X162666667Y-107952381D01*
X162761905Y-108000000D01*
X162809524Y-108047619D01*
X162857143Y-108142857D01*
X162857143Y-108285714D01*
X162809524Y-108380952D01*
X162761905Y-108428571D01*
X162666667Y-108476190D01*
X162285714Y-108476190D01*
X163238095Y-108047619D02*
X163285714Y-108000000D01*
X163380952Y-107952381D01*
X163619048Y-107952381D01*
X163714286Y-108000000D01*
X163761905Y-108047619D01*
X163809524Y-108142857D01*
X163809524Y-108238095D01*
X163761905Y-108380952D01*
X163190476Y-108952381D01*
X163809524Y-108952381D01*
X164380952Y-108380952D02*
X164285714Y-108333333D01*
X164238095Y-108285714D01*
X164190476Y-108190476D01*
X164190476Y-108142857D01*
X164238095Y-108047619D01*
X164285714Y-108000000D01*
X164380952Y-107952381D01*
X164571429Y-107952381D01*
X164666667Y-108000000D01*
X164714286Y-108047619D01*
X164761905Y-108142857D01*
X164761905Y-108190476D01*
X164714286Y-108285714D01*
X164666667Y-108333333D01*
X164571429Y-108380952D01*
X164380952Y-108380952D01*
X164285714Y-108428571D01*
X164238095Y-108476190D01*
X164190476Y-108571429D01*
X164190476Y-108761905D01*
X164238095Y-108857143D01*
X164285714Y-108904762D01*
X164380952Y-108952381D01*
X164571429Y-108952381D01*
X164666667Y-108904762D01*
X164714286Y-108857143D01*
X164761905Y-108761905D01*
X164761905Y-108571429D01*
X164714286Y-108476190D01*
X164666667Y-108428571D01*
X164571429Y-108380952D01*
X143357143Y-108952381D02*
X143023809Y-108476190D01*
X142785714Y-108952381D02*
X142785714Y-107952381D01*
X143166667Y-107952381D01*
X143261905Y-108000000D01*
X143309524Y-108047619D01*
X143357143Y-108142857D01*
X143357143Y-108285714D01*
X143309524Y-108380952D01*
X143261905Y-108428571D01*
X143166667Y-108476190D01*
X142785714Y-108476190D01*
X143738095Y-108047619D02*
X143785714Y-108000000D01*
X143880952Y-107952381D01*
X144119048Y-107952381D01*
X144214286Y-108000000D01*
X144261905Y-108047619D01*
X144309524Y-108142857D01*
X144309524Y-108238095D01*
X144261905Y-108380952D01*
X143690476Y-108952381D01*
X144309524Y-108952381D01*
X144785714Y-108952381D02*
X144976190Y-108952381D01*
X145071429Y-108904762D01*
X145119048Y-108857143D01*
X145214286Y-108714286D01*
X145261905Y-108523810D01*
X145261905Y-108142857D01*
X145214286Y-108047619D01*
X145166667Y-108000000D01*
X145071429Y-107952381D01*
X144880952Y-107952381D01*
X144785714Y-108000000D01*
X144738095Y-108047619D01*
X144690476Y-108142857D01*
X144690476Y-108380952D01*
X144738095Y-108476190D01*
X144785714Y-108523810D01*
X144880952Y-108571429D01*
X145071429Y-108571429D01*
X145166667Y-108523810D01*
X145214286Y-108476190D01*
X145261905Y-108380952D01*
X155607143Y-109452381D02*
X155273809Y-108976190D01*
X155035714Y-109452381D02*
X155035714Y-108452381D01*
X155416667Y-108452381D01*
X155511905Y-108500000D01*
X155559524Y-108547619D01*
X155607143Y-108642857D01*
X155607143Y-108785714D01*
X155559524Y-108880952D01*
X155511905Y-108928571D01*
X155416667Y-108976190D01*
X155035714Y-108976190D01*
X155940476Y-108452381D02*
X156559524Y-108452381D01*
X156226190Y-108833333D01*
X156369048Y-108833333D01*
X156464286Y-108880952D01*
X156511905Y-108928571D01*
X156559524Y-109023810D01*
X156559524Y-109261905D01*
X156511905Y-109357143D01*
X156464286Y-109404762D01*
X156369048Y-109452381D01*
X156083333Y-109452381D01*
X155988095Y-109404762D01*
X155940476Y-109357143D01*
X157178571Y-108452381D02*
X157273810Y-108452381D01*
X157369048Y-108500000D01*
X157416667Y-108547619D01*
X157464286Y-108642857D01*
X157511905Y-108833333D01*
X157511905Y-109071429D01*
X157464286Y-109261905D01*
X157416667Y-109357143D01*
X157369048Y-109404762D01*
X157273810Y-109452381D01*
X157178571Y-109452381D01*
X157083333Y-109404762D01*
X157035714Y-109357143D01*
X156988095Y-109261905D01*
X156940476Y-109071429D01*
X156940476Y-108833333D01*
X156988095Y-108642857D01*
X157035714Y-108547619D01*
X157083333Y-108500000D01*
X157178571Y-108452381D01*
X136357143Y-109202381D02*
X136023809Y-108726190D01*
X135785714Y-109202381D02*
X135785714Y-108202381D01*
X136166667Y-108202381D01*
X136261905Y-108250000D01*
X136309524Y-108297619D01*
X136357143Y-108392857D01*
X136357143Y-108535714D01*
X136309524Y-108630952D01*
X136261905Y-108678571D01*
X136166667Y-108726190D01*
X135785714Y-108726190D01*
X136690476Y-108202381D02*
X137309524Y-108202381D01*
X136976190Y-108583333D01*
X137119048Y-108583333D01*
X137214286Y-108630952D01*
X137261905Y-108678571D01*
X137309524Y-108773810D01*
X137309524Y-109011905D01*
X137261905Y-109107143D01*
X137214286Y-109154762D01*
X137119048Y-109202381D01*
X136833333Y-109202381D01*
X136738095Y-109154762D01*
X136690476Y-109107143D01*
X138261905Y-109202381D02*
X137690476Y-109202381D01*
X137976190Y-109202381D02*
X137976190Y-108202381D01*
X137880952Y-108345238D01*
X137785714Y-108440476D01*
X137690476Y-108488095D01*
X181702381Y-69142857D02*
X181226190Y-69476191D01*
X181702381Y-69714286D02*
X180702381Y-69714286D01*
X180702381Y-69333333D01*
X180750000Y-69238095D01*
X180797619Y-69190476D01*
X180892857Y-69142857D01*
X181035714Y-69142857D01*
X181130952Y-69190476D01*
X181178571Y-69238095D01*
X181226190Y-69333333D01*
X181226190Y-69714286D01*
X180702381Y-68809524D02*
X180702381Y-68190476D01*
X181083333Y-68523810D01*
X181083333Y-68380952D01*
X181130952Y-68285714D01*
X181178571Y-68238095D01*
X181273810Y-68190476D01*
X181511905Y-68190476D01*
X181607143Y-68238095D01*
X181654762Y-68285714D01*
X181702381Y-68380952D01*
X181702381Y-68666667D01*
X181654762Y-68761905D01*
X181607143Y-68809524D01*
X180797619Y-67809524D02*
X180750000Y-67761905D01*
X180702381Y-67666667D01*
X180702381Y-67428571D01*
X180750000Y-67333333D01*
X180797619Y-67285714D01*
X180892857Y-67238095D01*
X180988095Y-67238095D01*
X181130952Y-67285714D01*
X181702381Y-67857143D01*
X181702381Y-67238095D01*
X76238095Y-94654762D02*
X76380952Y-94702381D01*
X76619048Y-94702381D01*
X76714286Y-94654762D01*
X76761905Y-94607143D01*
X76809524Y-94511905D01*
X76809524Y-94416667D01*
X76761905Y-94321429D01*
X76714286Y-94273810D01*
X76619048Y-94226190D01*
X76428571Y-94178571D01*
X76333333Y-94130952D01*
X76285714Y-94083333D01*
X76238095Y-93988095D01*
X76238095Y-93892857D01*
X76285714Y-93797619D01*
X76333333Y-93750000D01*
X76428571Y-93702381D01*
X76666667Y-93702381D01*
X76809524Y-93750000D01*
X77761905Y-94702381D02*
X77190476Y-94702381D01*
X77476190Y-94702381D02*
X77476190Y-93702381D01*
X77380952Y-93845238D01*
X77285714Y-93940476D01*
X77190476Y-93988095D01*
X125190476Y-119202381D02*
X125523809Y-120202381D01*
X125857143Y-119202381D01*
X126190476Y-120202381D02*
X126190476Y-119202381D01*
X126428571Y-119202381D01*
X126571429Y-119250000D01*
X126666667Y-119345238D01*
X126714286Y-119440476D01*
X126761905Y-119630952D01*
X126761905Y-119773810D01*
X126714286Y-119964286D01*
X126666667Y-120059524D01*
X126571429Y-120154762D01*
X126428571Y-120202381D01*
X126190476Y-120202381D01*
X127714286Y-120202381D02*
X127142857Y-120202381D01*
X127428571Y-120202381D02*
X127428571Y-119202381D01*
X127333333Y-119345238D01*
X127238095Y-119440476D01*
X127142857Y-119488095D01*
X165952381Y-56809524D02*
X166952381Y-56476191D01*
X165952381Y-56142857D01*
X166952381Y-55809524D02*
X165952381Y-55809524D01*
X165952381Y-55571429D01*
X166000000Y-55428571D01*
X166095238Y-55333333D01*
X166190476Y-55285714D01*
X166380952Y-55238095D01*
X166523810Y-55238095D01*
X166714286Y-55285714D01*
X166809524Y-55333333D01*
X166904762Y-55428571D01*
X166952381Y-55571429D01*
X166952381Y-55809524D01*
X166285714Y-54380952D02*
X166952381Y-54380952D01*
X165904762Y-54619048D02*
X166619048Y-54857143D01*
X166619048Y-54238095D01*
X194190476Y-67702381D02*
X194523809Y-68702381D01*
X194857143Y-67702381D01*
X195190476Y-68702381D02*
X195190476Y-67702381D01*
X195428571Y-67702381D01*
X195571429Y-67750000D01*
X195666667Y-67845238D01*
X195714286Y-67940476D01*
X195761905Y-68130952D01*
X195761905Y-68273810D01*
X195714286Y-68464286D01*
X195666667Y-68559524D01*
X195571429Y-68654762D01*
X195428571Y-68702381D01*
X195190476Y-68702381D01*
X196666667Y-67702381D02*
X196190476Y-67702381D01*
X196142857Y-68178571D01*
X196190476Y-68130952D01*
X196285714Y-68083333D01*
X196523810Y-68083333D01*
X196619048Y-68130952D01*
X196666667Y-68178571D01*
X196714286Y-68273810D01*
X196714286Y-68511905D01*
X196666667Y-68607143D01*
X196619048Y-68654762D01*
X196523810Y-68702381D01*
X196285714Y-68702381D01*
X196190476Y-68654762D01*
X196142857Y-68607143D01*
X76190476Y-85452381D02*
X76857143Y-86452381D01*
X76857143Y-85452381D02*
X76190476Y-86452381D01*
X77761905Y-86452381D02*
X77190476Y-86452381D01*
X77476190Y-86452381D02*
X77476190Y-85452381D01*
X77380952Y-85595238D01*
X77285714Y-85690476D01*
X77190476Y-85738095D01*
X76190476Y-56452381D02*
X76857143Y-57452381D01*
X76857143Y-56452381D02*
X76190476Y-57452381D01*
X77190476Y-56547619D02*
X77238095Y-56500000D01*
X77333333Y-56452381D01*
X77571429Y-56452381D01*
X77666667Y-56500000D01*
X77714286Y-56547619D01*
X77761905Y-56642857D01*
X77761905Y-56738095D01*
X77714286Y-56880952D01*
X77142857Y-57452381D01*
X77761905Y-57452381D01*
X196011905Y-99702381D02*
X196011905Y-98702381D01*
X196250000Y-98702381D01*
X196392858Y-98750000D01*
X196488096Y-98845238D01*
X196535715Y-98940476D01*
X196583334Y-99130952D01*
X196583334Y-99273810D01*
X196535715Y-99464286D01*
X196488096Y-99559524D01*
X196392858Y-99654762D01*
X196250000Y-99702381D01*
X196011905Y-99702381D01*
X197154762Y-99130952D02*
X197059524Y-99083333D01*
X197011905Y-99035714D01*
X196964286Y-98940476D01*
X196964286Y-98892857D01*
X197011905Y-98797619D01*
X197059524Y-98750000D01*
X197154762Y-98702381D01*
X197345239Y-98702381D01*
X197440477Y-98750000D01*
X197488096Y-98797619D01*
X197535715Y-98892857D01*
X197535715Y-98940476D01*
X197488096Y-99035714D01*
X197440477Y-99083333D01*
X197345239Y-99130952D01*
X197154762Y-99130952D01*
X197059524Y-99178571D01*
X197011905Y-99226190D01*
X196964286Y-99321429D01*
X196964286Y-99511905D01*
X197011905Y-99607143D01*
X197059524Y-99654762D01*
X197154762Y-99702381D01*
X197345239Y-99702381D01*
X197440477Y-99654762D01*
X197488096Y-99607143D01*
X197535715Y-99511905D01*
X197535715Y-99321429D01*
X197488096Y-99226190D01*
X197440477Y-99178571D01*
X197345239Y-99130952D01*
X160577381Y-116238095D02*
X159577381Y-116238095D01*
X159577381Y-116000000D01*
X159625000Y-115857142D01*
X159720238Y-115761904D01*
X159815476Y-115714285D01*
X160005952Y-115666666D01*
X160148810Y-115666666D01*
X160339286Y-115714285D01*
X160434524Y-115761904D01*
X160529762Y-115857142D01*
X160577381Y-116000000D01*
X160577381Y-116238095D01*
X159577381Y-114761904D02*
X159577381Y-115238095D01*
X160053571Y-115285714D01*
X160005952Y-115238095D01*
X159958333Y-115142857D01*
X159958333Y-114904761D01*
X160005952Y-114809523D01*
X160053571Y-114761904D01*
X160148810Y-114714285D01*
X160386905Y-114714285D01*
X160482143Y-114761904D01*
X160529762Y-114809523D01*
X160577381Y-114904761D01*
X160577381Y-115142857D01*
X160529762Y-115238095D01*
X160482143Y-115285714D01*
X141077381Y-116238095D02*
X140077381Y-116238095D01*
X140077381Y-116000000D01*
X140125000Y-115857142D01*
X140220238Y-115761904D01*
X140315476Y-115714285D01*
X140505952Y-115666666D01*
X140648810Y-115666666D01*
X140839286Y-115714285D01*
X140934524Y-115761904D01*
X141029762Y-115857142D01*
X141077381Y-116000000D01*
X141077381Y-116238095D01*
X140077381Y-114809523D02*
X140077381Y-115000000D01*
X140125000Y-115095238D01*
X140172619Y-115142857D01*
X140315476Y-115238095D01*
X140505952Y-115285714D01*
X140886905Y-115285714D01*
X140982143Y-115238095D01*
X141029762Y-115190476D01*
X141077381Y-115095238D01*
X141077381Y-114904761D01*
X141029762Y-114809523D01*
X140982143Y-114761904D01*
X140886905Y-114714285D01*
X140648810Y-114714285D01*
X140553571Y-114761904D01*
X140505952Y-114809523D01*
X140458333Y-114904761D01*
X140458333Y-115095238D01*
X140505952Y-115190476D01*
X140553571Y-115238095D01*
X140648810Y-115285714D01*
X109357143Y-68357143D02*
X109309524Y-68404762D01*
X109166667Y-68452381D01*
X109071429Y-68452381D01*
X108928571Y-68404762D01*
X108833333Y-68309524D01*
X108785714Y-68214286D01*
X108738095Y-68023810D01*
X108738095Y-67880952D01*
X108785714Y-67690476D01*
X108833333Y-67595238D01*
X108928571Y-67500000D01*
X109071429Y-67452381D01*
X109166667Y-67452381D01*
X109309524Y-67500000D01*
X109357143Y-67547619D01*
X110309524Y-68452381D02*
X109738095Y-68452381D01*
X110023809Y-68452381D02*
X110023809Y-67452381D01*
X109928571Y-67595238D01*
X109833333Y-67690476D01*
X109738095Y-67738095D01*
X111166667Y-67785714D02*
X111166667Y-68452381D01*
X110928571Y-67404762D02*
X110690476Y-68119048D01*
X111309524Y-68119048D01*
X109357143Y-70357143D02*
X109309524Y-70404762D01*
X109166667Y-70452381D01*
X109071429Y-70452381D01*
X108928571Y-70404762D01*
X108833333Y-70309524D01*
X108785714Y-70214286D01*
X108738095Y-70023810D01*
X108738095Y-69880952D01*
X108785714Y-69690476D01*
X108833333Y-69595238D01*
X108928571Y-69500000D01*
X109071429Y-69452381D01*
X109166667Y-69452381D01*
X109309524Y-69500000D01*
X109357143Y-69547619D01*
X110309524Y-70452381D02*
X109738095Y-70452381D01*
X110023809Y-70452381D02*
X110023809Y-69452381D01*
X109928571Y-69595238D01*
X109833333Y-69690476D01*
X109738095Y-69738095D01*
X111214286Y-69452381D02*
X110738095Y-69452381D01*
X110690476Y-69928571D01*
X110738095Y-69880952D01*
X110833333Y-69833333D01*
X111071429Y-69833333D01*
X111166667Y-69880952D01*
X111214286Y-69928571D01*
X111261905Y-70023810D01*
X111261905Y-70261905D01*
X111214286Y-70357143D01*
X111166667Y-70404762D01*
X111071429Y-70452381D01*
X110833333Y-70452381D01*
X110738095Y-70404762D01*
X110690476Y-70357143D01*
X109357143Y-72107143D02*
X109309524Y-72154762D01*
X109166667Y-72202381D01*
X109071429Y-72202381D01*
X108928571Y-72154762D01*
X108833333Y-72059524D01*
X108785714Y-71964286D01*
X108738095Y-71773810D01*
X108738095Y-71630952D01*
X108785714Y-71440476D01*
X108833333Y-71345238D01*
X108928571Y-71250000D01*
X109071429Y-71202381D01*
X109166667Y-71202381D01*
X109309524Y-71250000D01*
X109357143Y-71297619D01*
X110309524Y-72202381D02*
X109738095Y-72202381D01*
X110023809Y-72202381D02*
X110023809Y-71202381D01*
X109928571Y-71345238D01*
X109833333Y-71440476D01*
X109738095Y-71488095D01*
X111166667Y-71202381D02*
X110976190Y-71202381D01*
X110880952Y-71250000D01*
X110833333Y-71297619D01*
X110738095Y-71440476D01*
X110690476Y-71630952D01*
X110690476Y-72011905D01*
X110738095Y-72107143D01*
X110785714Y-72154762D01*
X110880952Y-72202381D01*
X111071429Y-72202381D01*
X111166667Y-72154762D01*
X111214286Y-72107143D01*
X111261905Y-72011905D01*
X111261905Y-71773810D01*
X111214286Y-71678571D01*
X111166667Y-71630952D01*
X111071429Y-71583333D01*
X110880952Y-71583333D01*
X110785714Y-71630952D01*
X110738095Y-71678571D01*
X110690476Y-71773810D01*
X109357143Y-74107143D02*
X109309524Y-74154762D01*
X109166667Y-74202381D01*
X109071429Y-74202381D01*
X108928571Y-74154762D01*
X108833333Y-74059524D01*
X108785714Y-73964286D01*
X108738095Y-73773810D01*
X108738095Y-73630952D01*
X108785714Y-73440476D01*
X108833333Y-73345238D01*
X108928571Y-73250000D01*
X109071429Y-73202381D01*
X109166667Y-73202381D01*
X109309524Y-73250000D01*
X109357143Y-73297619D01*
X110309524Y-74202381D02*
X109738095Y-74202381D01*
X110023809Y-74202381D02*
X110023809Y-73202381D01*
X109928571Y-73345238D01*
X109833333Y-73440476D01*
X109738095Y-73488095D01*
X110642857Y-73202381D02*
X111309524Y-73202381D01*
X110880952Y-74202381D01*
X109357143Y-76607143D02*
X109309524Y-76654762D01*
X109166667Y-76702381D01*
X109071429Y-76702381D01*
X108928571Y-76654762D01*
X108833333Y-76559524D01*
X108785714Y-76464286D01*
X108738095Y-76273810D01*
X108738095Y-76130952D01*
X108785714Y-75940476D01*
X108833333Y-75845238D01*
X108928571Y-75750000D01*
X109071429Y-75702381D01*
X109166667Y-75702381D01*
X109309524Y-75750000D01*
X109357143Y-75797619D01*
X110309524Y-76702381D02*
X109738095Y-76702381D01*
X110023809Y-76702381D02*
X110023809Y-75702381D01*
X109928571Y-75845238D01*
X109833333Y-75940476D01*
X109738095Y-75988095D01*
X110880952Y-76130952D02*
X110785714Y-76083333D01*
X110738095Y-76035714D01*
X110690476Y-75940476D01*
X110690476Y-75892857D01*
X110738095Y-75797619D01*
X110785714Y-75750000D01*
X110880952Y-75702381D01*
X111071429Y-75702381D01*
X111166667Y-75750000D01*
X111214286Y-75797619D01*
X111261905Y-75892857D01*
X111261905Y-75940476D01*
X111214286Y-76035714D01*
X111166667Y-76083333D01*
X111071429Y-76130952D01*
X110880952Y-76130952D01*
X110785714Y-76178571D01*
X110738095Y-76226190D01*
X110690476Y-76321429D01*
X110690476Y-76511905D01*
X110738095Y-76607143D01*
X110785714Y-76654762D01*
X110880952Y-76702381D01*
X111071429Y-76702381D01*
X111166667Y-76654762D01*
X111214286Y-76607143D01*
X111261905Y-76511905D01*
X111261905Y-76321429D01*
X111214286Y-76226190D01*
X111166667Y-76178571D01*
X111071429Y-76130952D01*
X109357143Y-78607143D02*
X109309524Y-78654762D01*
X109166667Y-78702381D01*
X109071429Y-78702381D01*
X108928571Y-78654762D01*
X108833333Y-78559524D01*
X108785714Y-78464286D01*
X108738095Y-78273810D01*
X108738095Y-78130952D01*
X108785714Y-77940476D01*
X108833333Y-77845238D01*
X108928571Y-77750000D01*
X109071429Y-77702381D01*
X109166667Y-77702381D01*
X109309524Y-77750000D01*
X109357143Y-77797619D01*
X110309524Y-78702381D02*
X109738095Y-78702381D01*
X110023809Y-78702381D02*
X110023809Y-77702381D01*
X109928571Y-77845238D01*
X109833333Y-77940476D01*
X109738095Y-77988095D01*
X110785714Y-78702381D02*
X110976190Y-78702381D01*
X111071429Y-78654762D01*
X111119048Y-78607143D01*
X111214286Y-78464286D01*
X111261905Y-78273810D01*
X111261905Y-77892857D01*
X111214286Y-77797619D01*
X111166667Y-77750000D01*
X111071429Y-77702381D01*
X110880952Y-77702381D01*
X110785714Y-77750000D01*
X110738095Y-77797619D01*
X110690476Y-77892857D01*
X110690476Y-78130952D01*
X110738095Y-78226190D01*
X110785714Y-78273810D01*
X110880952Y-78321429D01*
X111071429Y-78321429D01*
X111166667Y-78273810D01*
X111214286Y-78226190D01*
X111261905Y-78130952D01*
X109357143Y-80357143D02*
X109309524Y-80404762D01*
X109166667Y-80452381D01*
X109071429Y-80452381D01*
X108928571Y-80404762D01*
X108833333Y-80309524D01*
X108785714Y-80214286D01*
X108738095Y-80023810D01*
X108738095Y-79880952D01*
X108785714Y-79690476D01*
X108833333Y-79595238D01*
X108928571Y-79500000D01*
X109071429Y-79452381D01*
X109166667Y-79452381D01*
X109309524Y-79500000D01*
X109357143Y-79547619D01*
X109738095Y-79547619D02*
X109785714Y-79500000D01*
X109880952Y-79452381D01*
X110119048Y-79452381D01*
X110214286Y-79500000D01*
X110261905Y-79547619D01*
X110309524Y-79642857D01*
X110309524Y-79738095D01*
X110261905Y-79880952D01*
X109690476Y-80452381D01*
X110309524Y-80452381D01*
X110928571Y-79452381D02*
X111023810Y-79452381D01*
X111119048Y-79500000D01*
X111166667Y-79547619D01*
X111214286Y-79642857D01*
X111261905Y-79833333D01*
X111261905Y-80071429D01*
X111214286Y-80261905D01*
X111166667Y-80357143D01*
X111119048Y-80404762D01*
X111023810Y-80452381D01*
X110928571Y-80452381D01*
X110833333Y-80404762D01*
X110785714Y-80357143D01*
X110738095Y-80261905D01*
X110690476Y-80071429D01*
X110690476Y-79833333D01*
X110738095Y-79642857D01*
X110785714Y-79547619D01*
X110833333Y-79500000D01*
X110928571Y-79452381D01*
X109357143Y-82357143D02*
X109309524Y-82404762D01*
X109166667Y-82452381D01*
X109071429Y-82452381D01*
X108928571Y-82404762D01*
X108833333Y-82309524D01*
X108785714Y-82214286D01*
X108738095Y-82023810D01*
X108738095Y-81880952D01*
X108785714Y-81690476D01*
X108833333Y-81595238D01*
X108928571Y-81500000D01*
X109071429Y-81452381D01*
X109166667Y-81452381D01*
X109309524Y-81500000D01*
X109357143Y-81547619D01*
X109738095Y-81547619D02*
X109785714Y-81500000D01*
X109880952Y-81452381D01*
X110119048Y-81452381D01*
X110214286Y-81500000D01*
X110261905Y-81547619D01*
X110309524Y-81642857D01*
X110309524Y-81738095D01*
X110261905Y-81880952D01*
X109690476Y-82452381D01*
X110309524Y-82452381D01*
X111261905Y-82452381D02*
X110690476Y-82452381D01*
X110976190Y-82452381D02*
X110976190Y-81452381D01*
X110880952Y-81595238D01*
X110785714Y-81690476D01*
X110690476Y-81738095D01*
X75940476Y-100452381D02*
X76607143Y-100452381D01*
X75940476Y-101452381D01*
X76607143Y-101452381D01*
X77511905Y-101452381D02*
X76940476Y-101452381D01*
X77226190Y-101452381D02*
X77226190Y-100452381D01*
X77130952Y-100595238D01*
X77035714Y-100690476D01*
X76940476Y-100738095D01*
X175190476Y-107702381D02*
X175857143Y-108702381D01*
X175857143Y-107702381D02*
X175190476Y-108702381D01*
X176142857Y-107702381D02*
X176761905Y-107702381D01*
X176428571Y-108083333D01*
X176571429Y-108083333D01*
X176666667Y-108130952D01*
X176714286Y-108178571D01*
X176761905Y-108273810D01*
X176761905Y-108511905D01*
X176714286Y-108607143D01*
X176666667Y-108654762D01*
X176571429Y-108702381D01*
X176285714Y-108702381D01*
X176190476Y-108654762D01*
X176142857Y-108607143D01*
X97083334Y-78357143D02*
X97035715Y-78404762D01*
X96892858Y-78452381D01*
X96797620Y-78452381D01*
X96654762Y-78404762D01*
X96559524Y-78309524D01*
X96511905Y-78214286D01*
X96464286Y-78023810D01*
X96464286Y-77880952D01*
X96511905Y-77690476D01*
X96559524Y-77595238D01*
X96654762Y-77500000D01*
X96797620Y-77452381D01*
X96892858Y-77452381D01*
X97035715Y-77500000D01*
X97083334Y-77547619D01*
X97654762Y-77880952D02*
X97559524Y-77833333D01*
X97511905Y-77785714D01*
X97464286Y-77690476D01*
X97464286Y-77642857D01*
X97511905Y-77547619D01*
X97559524Y-77500000D01*
X97654762Y-77452381D01*
X97845239Y-77452381D01*
X97940477Y-77500000D01*
X97988096Y-77547619D01*
X98035715Y-77642857D01*
X98035715Y-77690476D01*
X97988096Y-77785714D01*
X97940477Y-77833333D01*
X97845239Y-77880952D01*
X97654762Y-77880952D01*
X97559524Y-77928571D01*
X97511905Y-77976190D01*
X97464286Y-78071429D01*
X97464286Y-78261905D01*
X97511905Y-78357143D01*
X97559524Y-78404762D01*
X97654762Y-78452381D01*
X97845239Y-78452381D01*
X97940477Y-78404762D01*
X97988096Y-78357143D01*
X98035715Y-78261905D01*
X98035715Y-78071429D01*
X97988096Y-77976190D01*
X97940477Y-77928571D01*
X97845239Y-77880952D01*
M02*
