G04 #@! TF.FileFunction,Soldermask,Top*
%FSLAX46Y46*%
G04 Gerber Fmt 4.6, Leading zero omitted, Abs format (unit mm)*
G04 Created by KiCad (PCBNEW 4.0.7-e2-6376~58~ubuntu16.04.1) date Mon Jun 18 09:55:01 2018*
%MOMM*%
%LPD*%
G01*
G04 APERTURE LIST*
%ADD10C,0.100000*%
%ADD11R,0.580000X1.200000*%
%ADD12R,1.200000X0.580000*%
%ADD13R,4.000000X4.000000*%
%ADD14C,3.500000*%
%ADD15R,1.300000X2.800000*%
%ADD16R,1.100000X1.050000*%
%ADD17R,1.550000X1.300000*%
%ADD18R,1.050000X1.100000*%
%ADD19R,2.250000X2.800000*%
%ADD20R,1.300000X1.900000*%
%ADD21R,4.300000X2.800000*%
%ADD22R,2.850000X3.000000*%
%ADD23R,1.800000X0.580000*%
%ADD24R,0.580000X1.800000*%
%ADD25R,1.850000X0.900000*%
%ADD26R,1.475000X1.475000*%
%ADD27R,3.000000X3.900000*%
%ADD28R,1.000000X1.600000*%
%ADD29R,1.600000X1.000000*%
%ADD30R,2.000000X2.200000*%
%ADD31R,5.700000X3.200000*%
%ADD32R,3.200000X5.700000*%
%ADD33R,0.800000X1.200000*%
%ADD34R,1.200000X0.800000*%
%ADD35R,1.300000X1.300000*%
%ADD36O,1.300000X1.300000*%
%ADD37R,1.200000X1.100000*%
%ADD38R,2.100000X2.800000*%
%ADD39R,2.000000X2.000000*%
%ADD40O,2.000000X2.000000*%
%ADD41R,2.300000X4.100000*%
%ADD42R,2.300000X1.800000*%
%ADD43R,0.900000X1.800000*%
%ADD44C,5.900000*%
%ADD45R,1.500000X2.100000*%
%ADD46C,1.900000*%
%ADD47C,3.700000*%
%ADD48C,2.100000*%
G04 APERTURE END LIST*
D10*
D11*
X109000000Y-118325000D03*
X109500000Y-118325000D03*
X110000000Y-118325000D03*
X110500000Y-118325000D03*
X111000000Y-118325000D03*
X111500000Y-118325000D03*
X112000000Y-118325000D03*
X112500000Y-118325000D03*
X113000000Y-118325000D03*
D12*
X113825000Y-117500000D03*
X113825000Y-117000000D03*
X113825000Y-116500000D03*
X113825000Y-116000000D03*
X113825000Y-115500000D03*
X113825000Y-115000000D03*
X113825000Y-114500000D03*
X113825000Y-114000000D03*
X113825000Y-113500000D03*
D11*
X113000000Y-112675000D03*
X112500000Y-112675000D03*
X112000000Y-112675000D03*
X111500000Y-112675000D03*
X111000000Y-112675000D03*
X110500000Y-112675000D03*
X110000000Y-112675000D03*
X109500000Y-112675000D03*
X109000000Y-112675000D03*
D12*
X108175000Y-113500000D03*
X108175000Y-114000000D03*
X108175000Y-114500000D03*
X108175000Y-115000000D03*
X108175000Y-115500000D03*
X108175000Y-116000000D03*
X108175000Y-116500000D03*
X108175000Y-117000000D03*
X108175000Y-117500000D03*
D13*
X111000000Y-115500000D03*
D14*
X79000000Y-75000000D03*
D15*
X103500000Y-65500000D03*
X100500000Y-65500000D03*
D16*
X101250000Y-68250000D03*
X102750000Y-68250000D03*
D15*
X103500000Y-75000000D03*
X100500000Y-75000000D03*
D16*
X101250000Y-72250000D03*
X102750000Y-72250000D03*
D15*
X103500000Y-84500000D03*
X100500000Y-84500000D03*
D16*
X101250000Y-81750000D03*
X102750000Y-81750000D03*
D17*
X127500000Y-61000000D03*
X127500000Y-63000000D03*
X127500000Y-73000000D03*
X127500000Y-75000000D03*
X127500000Y-85000000D03*
X127500000Y-87000000D03*
X127500000Y-97000000D03*
X127500000Y-99000000D03*
D18*
X127500000Y-55750000D03*
X127500000Y-57250000D03*
X127500000Y-67750000D03*
X127500000Y-69250000D03*
X127500000Y-79750000D03*
X127500000Y-81250000D03*
X127500000Y-91750000D03*
X127500000Y-93250000D03*
D16*
X77500000Y-116500000D03*
X76000000Y-116500000D03*
X76000000Y-118500000D03*
X77500000Y-118500000D03*
X96250000Y-117500000D03*
X97750000Y-117500000D03*
D18*
X103750000Y-100500000D03*
X103750000Y-102000000D03*
D16*
X81750000Y-110000000D03*
X80250000Y-110000000D03*
D18*
X80500000Y-104250000D03*
X80500000Y-105750000D03*
D16*
X80250000Y-116500000D03*
X81750000Y-116500000D03*
D18*
X81500000Y-100250000D03*
X81500000Y-101750000D03*
D16*
X196000000Y-117250000D03*
X194500000Y-117250000D03*
D19*
X186775000Y-115250000D03*
X183725000Y-115250000D03*
X186775000Y-110750000D03*
X183725000Y-110750000D03*
D16*
X101250000Y-117500000D03*
X99750000Y-117500000D03*
X88000000Y-96250000D03*
X86500000Y-96250000D03*
D18*
X130750000Y-119500000D03*
X130750000Y-118000000D03*
X116250000Y-109250000D03*
X116250000Y-110750000D03*
X114250000Y-109250000D03*
X114250000Y-110750000D03*
X108000000Y-108750000D03*
X108000000Y-110250000D03*
X116000000Y-119250000D03*
X116000000Y-117750000D03*
D16*
X117500000Y-114500000D03*
X116000000Y-114500000D03*
D18*
X125500000Y-105000000D03*
X125500000Y-106500000D03*
X127750000Y-105000000D03*
X127750000Y-106500000D03*
D16*
X168250000Y-110000000D03*
X166750000Y-110000000D03*
X148750000Y-110000000D03*
X147250000Y-110000000D03*
D20*
X161000000Y-61500000D03*
X164000000Y-61500000D03*
D18*
X160500000Y-55250000D03*
X160500000Y-56750000D03*
D17*
X182500000Y-53500000D03*
X182500000Y-55500000D03*
D21*
X142500000Y-57500000D03*
X134500000Y-57500000D03*
X178500000Y-57500000D03*
X170500000Y-57500000D03*
D18*
X182750000Y-71500000D03*
X182750000Y-73000000D03*
D16*
X192500000Y-76750000D03*
X191000000Y-76750000D03*
D18*
X185750000Y-103750000D03*
X185750000Y-105250000D03*
D22*
X185575000Y-96000000D03*
X191925000Y-96000000D03*
D18*
X196250000Y-95250000D03*
X196250000Y-96750000D03*
D23*
X85100000Y-101000000D03*
X85100000Y-101500000D03*
X85100000Y-102000000D03*
X85100000Y-102500000D03*
X85100000Y-103000000D03*
X85100000Y-103500000D03*
X85100000Y-104000000D03*
X85100000Y-104500000D03*
X85100000Y-105000000D03*
X85100000Y-105500000D03*
X85100000Y-106000000D03*
X85100000Y-106500000D03*
X85100000Y-107000000D03*
X85100000Y-107500000D03*
X85100000Y-108000000D03*
X85100000Y-108500000D03*
X85100000Y-109000000D03*
X85100000Y-109500000D03*
X85100000Y-110000000D03*
X85100000Y-110500000D03*
X85100000Y-111000000D03*
X85100000Y-111500000D03*
X85100000Y-112000000D03*
X85100000Y-112500000D03*
X85100000Y-113000000D03*
D24*
X87000000Y-114900000D03*
X87500000Y-114900000D03*
X88000000Y-114900000D03*
X88500000Y-114900000D03*
X89000000Y-114900000D03*
X89500000Y-114900000D03*
X90000000Y-114900000D03*
X90500000Y-114900000D03*
X91000000Y-114900000D03*
X91500000Y-114900000D03*
X92000000Y-114900000D03*
X92500000Y-114900000D03*
X93000000Y-114900000D03*
X93500000Y-114900000D03*
X94000000Y-114900000D03*
X94500000Y-114900000D03*
X95000000Y-114900000D03*
X95500000Y-114900000D03*
X96000000Y-114900000D03*
X96500000Y-114900000D03*
X97000000Y-114900000D03*
X97500000Y-114900000D03*
X98000000Y-114900000D03*
X98500000Y-114900000D03*
X99000000Y-114900000D03*
D23*
X100900000Y-113000000D03*
X100900000Y-112500000D03*
X100900000Y-112000000D03*
X100900000Y-111500000D03*
X100900000Y-111000000D03*
X100900000Y-110500000D03*
X100900000Y-110000000D03*
X100900000Y-109500000D03*
X100900000Y-109000000D03*
X100900000Y-108500000D03*
X100900000Y-108000000D03*
X100900000Y-107500000D03*
X100900000Y-107000000D03*
X100900000Y-106500000D03*
X100900000Y-106000000D03*
X100900000Y-105500000D03*
X100900000Y-105000000D03*
X100900000Y-104500000D03*
X100900000Y-104000000D03*
X100900000Y-103500000D03*
X100900000Y-103000000D03*
X100900000Y-102500000D03*
X100900000Y-102000000D03*
X100900000Y-101500000D03*
X100900000Y-101000000D03*
D24*
X99000000Y-99100000D03*
X98500000Y-99100000D03*
X98000000Y-99100000D03*
X97500000Y-99100000D03*
X97000000Y-99100000D03*
X96500000Y-99100000D03*
X96000000Y-99100000D03*
X95500000Y-99100000D03*
X95000000Y-99100000D03*
X94500000Y-99100000D03*
X94000000Y-99100000D03*
X93500000Y-99100000D03*
X93000000Y-99100000D03*
X92500000Y-99100000D03*
X92000000Y-99100000D03*
X91500000Y-99100000D03*
X91000000Y-99100000D03*
X90500000Y-99100000D03*
X90000000Y-99100000D03*
X89500000Y-99100000D03*
X89000000Y-99100000D03*
X88500000Y-99100000D03*
X88000000Y-99100000D03*
X87500000Y-99100000D03*
X87000000Y-99100000D03*
D25*
X196450000Y-114655000D03*
X196450000Y-113385000D03*
X196450000Y-112115000D03*
X196450000Y-110845000D03*
X191050000Y-110845000D03*
X191050000Y-112115000D03*
X191050000Y-113385000D03*
X191050000Y-114655000D03*
X185550000Y-70595000D03*
X185550000Y-71865000D03*
X185550000Y-73135000D03*
X185550000Y-74405000D03*
X190950000Y-74405000D03*
X190950000Y-73135000D03*
X190950000Y-71865000D03*
X190950000Y-70595000D03*
D26*
X188837500Y-73087500D03*
X188837500Y-71912500D03*
X187662500Y-73087500D03*
X187662500Y-71912500D03*
D27*
X114850000Y-59000000D03*
X123150000Y-59000000D03*
X114850000Y-71000000D03*
X123150000Y-71000000D03*
X114850000Y-83000000D03*
X123150000Y-83000000D03*
X114850000Y-95000000D03*
X123150000Y-95000000D03*
D28*
X77950000Y-112750000D03*
X76050000Y-112750000D03*
X120300000Y-115750000D03*
X122200000Y-115750000D03*
X120300000Y-118250000D03*
X122200000Y-118250000D03*
D29*
X130750000Y-115950000D03*
X130750000Y-114050000D03*
D28*
X120300000Y-112750000D03*
X122200000Y-112750000D03*
D29*
X117750000Y-107200000D03*
X117750000Y-105300000D03*
D30*
X125300000Y-113000000D03*
X125300000Y-109000000D03*
X127700000Y-113000000D03*
X127700000Y-109000000D03*
X155050000Y-117500000D03*
X155050000Y-113500000D03*
X157450000Y-117500000D03*
X157450000Y-113500000D03*
X135800000Y-117500000D03*
X135800000Y-113500000D03*
X138200000Y-117500000D03*
X138200000Y-113500000D03*
D27*
X156650000Y-57500000D03*
X148350000Y-57500000D03*
D31*
X191000000Y-54050000D03*
X191000000Y-63950000D03*
D32*
X195450000Y-85000000D03*
X185550000Y-85000000D03*
D33*
X81750000Y-108000000D03*
X80250000Y-108000000D03*
D34*
X103750000Y-116000000D03*
X103750000Y-117500000D03*
D33*
X81750000Y-118500000D03*
X80250000Y-118500000D03*
X86750000Y-85000000D03*
X88250000Y-85000000D03*
X86750000Y-83000000D03*
X88250000Y-83000000D03*
D34*
X84500000Y-118250000D03*
X84500000Y-116750000D03*
D33*
X86750000Y-72000000D03*
X88250000Y-72000000D03*
X86750000Y-70000000D03*
X88250000Y-70000000D03*
D34*
X80000000Y-97000000D03*
X80000000Y-98500000D03*
X108250000Y-105500000D03*
X108250000Y-104000000D03*
D33*
X89750000Y-117500000D03*
X91250000Y-117500000D03*
D34*
X110250000Y-105500000D03*
X110250000Y-104000000D03*
X112250000Y-105500000D03*
X112250000Y-104000000D03*
X114250000Y-105500000D03*
X114250000Y-104000000D03*
D33*
X120750000Y-110000000D03*
X122250000Y-110000000D03*
X120750000Y-108250000D03*
X122250000Y-108250000D03*
X164250000Y-110000000D03*
X162750000Y-110000000D03*
X144750000Y-110000000D03*
X143250000Y-110000000D03*
X157000000Y-110500000D03*
X155500000Y-110500000D03*
X137750000Y-110500000D03*
X136250000Y-110500000D03*
D34*
X182750000Y-68000000D03*
X182750000Y-69500000D03*
D35*
X77500000Y-97000000D03*
D36*
X76230000Y-97000000D03*
D37*
X125500000Y-116050000D03*
X125500000Y-117950000D03*
X127500000Y-117000000D03*
D38*
X164000000Y-53500000D03*
X164000000Y-57500000D03*
X195500000Y-74750000D03*
X195500000Y-70750000D03*
D39*
X77000000Y-89000000D03*
D40*
X79540000Y-89000000D03*
X82080000Y-89000000D03*
X84620000Y-89000000D03*
X87160000Y-89000000D03*
X89700000Y-89000000D03*
X92240000Y-89000000D03*
X94780000Y-89000000D03*
D39*
X77000000Y-54000000D03*
D40*
X79540000Y-54000000D03*
X82080000Y-54000000D03*
X84620000Y-54000000D03*
X87160000Y-54000000D03*
X89700000Y-54000000D03*
X92240000Y-54000000D03*
X94780000Y-54000000D03*
D41*
X196150000Y-103000000D03*
D42*
X189850000Y-103000000D03*
X189850000Y-105300000D03*
X189850000Y-100700000D03*
D43*
X161690000Y-118200000D03*
X162960000Y-118200000D03*
X164230000Y-118200000D03*
X165500000Y-118200000D03*
X166770000Y-118200000D03*
X168040000Y-118200000D03*
X169310000Y-118200000D03*
X169310000Y-112800000D03*
X168040000Y-112800000D03*
X166770000Y-112800000D03*
X165500000Y-112800000D03*
X164230000Y-112800000D03*
X162960000Y-112800000D03*
X161690000Y-112800000D03*
X142190000Y-118200000D03*
X143460000Y-118200000D03*
X144730000Y-118200000D03*
X146000000Y-118200000D03*
X147270000Y-118200000D03*
X148540000Y-118200000D03*
X149810000Y-118200000D03*
X149810000Y-112800000D03*
X148540000Y-112800000D03*
X147270000Y-112800000D03*
X146000000Y-112800000D03*
X144730000Y-112800000D03*
X143460000Y-112800000D03*
X142190000Y-112800000D03*
D16*
X107500000Y-68000000D03*
X106000000Y-68000000D03*
X107500000Y-70000000D03*
X106000000Y-70000000D03*
X107500000Y-71750000D03*
X106000000Y-71750000D03*
X107500000Y-73750000D03*
X106000000Y-73750000D03*
X107500000Y-76250000D03*
X106000000Y-76250000D03*
X107500000Y-78250000D03*
X106000000Y-78250000D03*
X107500000Y-80000000D03*
X106000000Y-80000000D03*
X107500000Y-82000000D03*
X106000000Y-82000000D03*
D44*
X102000000Y-90000000D03*
X102000000Y-60000000D03*
D14*
X175000000Y-116000000D03*
D45*
X77950000Y-108250000D03*
X77950000Y-104250000D03*
X75550000Y-104250000D03*
X75550000Y-108250000D03*
D46*
X138780000Y-98450000D03*
X141320000Y-98450000D03*
X143860000Y-98450000D03*
X146400000Y-98450000D03*
X148940000Y-98450000D03*
X151480000Y-98450000D03*
X138780000Y-100990000D03*
X141320000Y-100990000D03*
X143860000Y-100990000D03*
X146400000Y-100990000D03*
X148940000Y-100990000D03*
X151480000Y-100990000D03*
X158520000Y-98450000D03*
X161060000Y-98450000D03*
X163600000Y-98450000D03*
X166140000Y-98450000D03*
X168680000Y-98450000D03*
X171220000Y-98450000D03*
X158520000Y-100990000D03*
X161060000Y-100990000D03*
X163600000Y-100990000D03*
X166140000Y-100990000D03*
X168680000Y-100990000D03*
X171220000Y-100990000D03*
X138980000Y-69400000D03*
X138980000Y-74480000D03*
X138980000Y-79560000D03*
X138980000Y-84640000D03*
X144480000Y-69400000D03*
X144480000Y-74480000D03*
X144480000Y-79560000D03*
X144480000Y-84640000D03*
X151980000Y-69400000D03*
X151980000Y-74480000D03*
X151980000Y-79560000D03*
X151980000Y-84640000D03*
X157480000Y-69400000D03*
X157480000Y-74480000D03*
X157480000Y-79560000D03*
X157480000Y-84640000D03*
X138980000Y-71940000D03*
X138980000Y-77020000D03*
X138980000Y-82100000D03*
X138980000Y-87180000D03*
X144480000Y-71940000D03*
X144480000Y-77020000D03*
X144480000Y-82100000D03*
X144480000Y-87180000D03*
X151980000Y-71940000D03*
X151980000Y-77020000D03*
X151980000Y-82100000D03*
X151980000Y-87180000D03*
X157480000Y-71940000D03*
X157480000Y-77020000D03*
X157480000Y-82100000D03*
X157480000Y-87180000D03*
D47*
X135000000Y-91000000D03*
X175000000Y-91000000D03*
X133500000Y-70700000D03*
D48*
X164000000Y-84600000D03*
X172100000Y-84600000D03*
D16*
X98000000Y-79500000D03*
X96500000Y-79500000D03*
M02*
