G04 #@! TF.FileFunction,Copper,L1,Top,Signal*
%FSLAX46Y46*%
G04 Gerber Fmt 4.6, Leading zero omitted, Abs format (unit mm)*
G04 Created by KiCad (PCBNEW 4.0.7-e2-6376~58~ubuntu16.04.1) date Mon Jun 18 09:51:27 2018*
%MOMM*%
%LPD*%
G01*
G04 APERTURE LIST*
%ADD10C,0.100000*%
%ADD11R,1.727200X2.032000*%
%ADD12O,1.727200X2.032000*%
%ADD13C,1.800000*%
%ADD14C,2.600000*%
%ADD15C,0.250000*%
G04 APERTURE END LIST*
D10*
D11*
X136000000Y-123000000D03*
D12*
X138540000Y-123000000D03*
X141080000Y-123000000D03*
X143620000Y-123000000D03*
X146160000Y-123000000D03*
X148700000Y-123000000D03*
X151240000Y-123000000D03*
X153780000Y-123000000D03*
D11*
X136000000Y-88000000D03*
D12*
X138540000Y-88000000D03*
X141080000Y-88000000D03*
X143620000Y-88000000D03*
X146160000Y-88000000D03*
X148700000Y-88000000D03*
X151240000Y-88000000D03*
X153780000Y-88000000D03*
D13*
X145000000Y-98000000D03*
D14*
X141000000Y-94000000D03*
X149000000Y-94000000D03*
X149000000Y-102000000D03*
X141000000Y-102000000D03*
D15*
G36*
X160875000Y-125875000D02*
X133125000Y-125875000D01*
X133125000Y-121984000D01*
X134754054Y-121984000D01*
X134754054Y-124016000D01*
X134780202Y-124154966D01*
X134862331Y-124282599D01*
X134987646Y-124368223D01*
X135136400Y-124398346D01*
X136863600Y-124398346D01*
X137002566Y-124372198D01*
X137130199Y-124290069D01*
X137215823Y-124164754D01*
X137245946Y-124016000D01*
X137245946Y-122820349D01*
X137301400Y-122820349D01*
X137301400Y-123179651D01*
X137395683Y-123653643D01*
X137664178Y-124055473D01*
X138066008Y-124323968D01*
X138540000Y-124418251D01*
X139013992Y-124323968D01*
X139415822Y-124055473D01*
X139684317Y-123653643D01*
X139778600Y-123179651D01*
X139778600Y-122820349D01*
X139841400Y-122820349D01*
X139841400Y-123179651D01*
X139935683Y-123653643D01*
X140204178Y-124055473D01*
X140606008Y-124323968D01*
X141080000Y-124418251D01*
X141553992Y-124323968D01*
X141955822Y-124055473D01*
X142224317Y-123653643D01*
X142318600Y-123179651D01*
X142318600Y-122820349D01*
X142381400Y-122820349D01*
X142381400Y-123179651D01*
X142475683Y-123653643D01*
X142744178Y-124055473D01*
X143146008Y-124323968D01*
X143620000Y-124418251D01*
X144093992Y-124323968D01*
X144495822Y-124055473D01*
X144764317Y-123653643D01*
X144858600Y-123179651D01*
X144858600Y-122820349D01*
X144921400Y-122820349D01*
X144921400Y-123179651D01*
X145015683Y-123653643D01*
X145284178Y-124055473D01*
X145686008Y-124323968D01*
X146160000Y-124418251D01*
X146633992Y-124323968D01*
X147035822Y-124055473D01*
X147304317Y-123653643D01*
X147309650Y-123626834D01*
X147410854Y-123914945D01*
X147800798Y-124350235D01*
X148327637Y-124603165D01*
X148339340Y-124604893D01*
X148571000Y-124484519D01*
X148571000Y-123129000D01*
X148551000Y-123129000D01*
X148551000Y-122871000D01*
X148571000Y-122871000D01*
X148571000Y-121515481D01*
X148829000Y-121515481D01*
X148829000Y-122871000D01*
X148849000Y-122871000D01*
X148849000Y-123129000D01*
X148829000Y-123129000D01*
X148829000Y-124484519D01*
X149060660Y-124604893D01*
X149072363Y-124603165D01*
X149599202Y-124350235D01*
X149989146Y-123914945D01*
X150090350Y-123626834D01*
X150095683Y-123653643D01*
X150364178Y-124055473D01*
X150766008Y-124323968D01*
X151240000Y-124418251D01*
X151713992Y-124323968D01*
X152115822Y-124055473D01*
X152384317Y-123653643D01*
X152478600Y-123179651D01*
X152478600Y-122820349D01*
X152541400Y-122820349D01*
X152541400Y-123179651D01*
X152635683Y-123653643D01*
X152904178Y-124055473D01*
X153306008Y-124323968D01*
X153780000Y-124418251D01*
X154253992Y-124323968D01*
X154655822Y-124055473D01*
X154924317Y-123653643D01*
X155018600Y-123179651D01*
X155018600Y-122820349D01*
X154924317Y-122346357D01*
X154655822Y-121944527D01*
X154253992Y-121676032D01*
X153780000Y-121581749D01*
X153306008Y-121676032D01*
X152904178Y-121944527D01*
X152635683Y-122346357D01*
X152541400Y-122820349D01*
X152478600Y-122820349D01*
X152384317Y-122346357D01*
X152115822Y-121944527D01*
X151713992Y-121676032D01*
X151240000Y-121581749D01*
X150766008Y-121676032D01*
X150364178Y-121944527D01*
X150095683Y-122346357D01*
X150090350Y-122373166D01*
X149989146Y-122085055D01*
X149599202Y-121649765D01*
X149072363Y-121396835D01*
X149060660Y-121395107D01*
X148829000Y-121515481D01*
X148571000Y-121515481D01*
X148339340Y-121395107D01*
X148327637Y-121396835D01*
X147800798Y-121649765D01*
X147410854Y-122085055D01*
X147309650Y-122373166D01*
X147304317Y-122346357D01*
X147035822Y-121944527D01*
X146633992Y-121676032D01*
X146160000Y-121581749D01*
X145686008Y-121676032D01*
X145284178Y-121944527D01*
X145015683Y-122346357D01*
X144921400Y-122820349D01*
X144858600Y-122820349D01*
X144764317Y-122346357D01*
X144495822Y-121944527D01*
X144093992Y-121676032D01*
X143620000Y-121581749D01*
X143146008Y-121676032D01*
X142744178Y-121944527D01*
X142475683Y-122346357D01*
X142381400Y-122820349D01*
X142318600Y-122820349D01*
X142224317Y-122346357D01*
X141955822Y-121944527D01*
X141553992Y-121676032D01*
X141080000Y-121581749D01*
X140606008Y-121676032D01*
X140204178Y-121944527D01*
X139935683Y-122346357D01*
X139841400Y-122820349D01*
X139778600Y-122820349D01*
X139684317Y-122346357D01*
X139415822Y-121944527D01*
X139013992Y-121676032D01*
X138540000Y-121581749D01*
X138066008Y-121676032D01*
X137664178Y-121944527D01*
X137395683Y-122346357D01*
X137301400Y-122820349D01*
X137245946Y-122820349D01*
X137245946Y-121984000D01*
X137219798Y-121845034D01*
X137137669Y-121717401D01*
X137012354Y-121631777D01*
X136863600Y-121601654D01*
X135136400Y-121601654D01*
X134997434Y-121627802D01*
X134869801Y-121709931D01*
X134784177Y-121835246D01*
X134754054Y-121984000D01*
X133125000Y-121984000D01*
X133125000Y-103369683D01*
X139812751Y-103369683D01*
X139948399Y-103666873D01*
X140666332Y-103942419D01*
X141435062Y-103922251D01*
X142051601Y-103666873D01*
X142187249Y-103369683D01*
X147812751Y-103369683D01*
X147948399Y-103666873D01*
X148666332Y-103942419D01*
X149435062Y-103922251D01*
X150051601Y-103666873D01*
X150187249Y-103369683D01*
X149000000Y-102182434D01*
X147812751Y-103369683D01*
X142187249Y-103369683D01*
X141000000Y-102182434D01*
X139812751Y-103369683D01*
X133125000Y-103369683D01*
X133125000Y-101666332D01*
X139057581Y-101666332D01*
X139077749Y-102435062D01*
X139333127Y-103051601D01*
X139630317Y-103187249D01*
X140817566Y-102000000D01*
X141182434Y-102000000D01*
X142369683Y-103187249D01*
X142666873Y-103051601D01*
X142942419Y-102333668D01*
X142924912Y-101666332D01*
X147057581Y-101666332D01*
X147077749Y-102435062D01*
X147333127Y-103051601D01*
X147630317Y-103187249D01*
X148817566Y-102000000D01*
X149182434Y-102000000D01*
X150369683Y-103187249D01*
X150666873Y-103051601D01*
X150942419Y-102333668D01*
X150922251Y-101564938D01*
X150666873Y-100948399D01*
X150369683Y-100812751D01*
X149182434Y-102000000D01*
X148817566Y-102000000D01*
X147630317Y-100812751D01*
X147333127Y-100948399D01*
X147057581Y-101666332D01*
X142924912Y-101666332D01*
X142922251Y-101564938D01*
X142666873Y-100948399D01*
X142369683Y-100812751D01*
X141182434Y-102000000D01*
X140817566Y-102000000D01*
X139630317Y-100812751D01*
X139333127Y-100948399D01*
X139057581Y-101666332D01*
X133125000Y-101666332D01*
X133125000Y-100630317D01*
X139812751Y-100630317D01*
X141000000Y-101817566D01*
X142187249Y-100630317D01*
X147812751Y-100630317D01*
X149000000Y-101817566D01*
X150187249Y-100630317D01*
X150051601Y-100333127D01*
X149333668Y-100057581D01*
X148564938Y-100077749D01*
X147948399Y-100333127D01*
X147812751Y-100630317D01*
X142187249Y-100630317D01*
X142051601Y-100333127D01*
X141333668Y-100057581D01*
X140564938Y-100077749D01*
X139948399Y-100333127D01*
X139812751Y-100630317D01*
X133125000Y-100630317D01*
X133125000Y-98252501D01*
X143724779Y-98252501D01*
X143918477Y-98721286D01*
X144276827Y-99080262D01*
X144745274Y-99274778D01*
X145252501Y-99275221D01*
X145721286Y-99081523D01*
X146080262Y-98723173D01*
X146274778Y-98254726D01*
X146275221Y-97747499D01*
X146081523Y-97278714D01*
X145723173Y-96919738D01*
X145254726Y-96725222D01*
X144747499Y-96724779D01*
X144278714Y-96918477D01*
X143919738Y-97276827D01*
X143725222Y-97745274D01*
X143724779Y-98252501D01*
X133125000Y-98252501D01*
X133125000Y-95369683D01*
X139812751Y-95369683D01*
X139948399Y-95666873D01*
X140666332Y-95942419D01*
X141435062Y-95922251D01*
X142051601Y-95666873D01*
X142187249Y-95369683D01*
X147812751Y-95369683D01*
X147948399Y-95666873D01*
X148666332Y-95942419D01*
X149435062Y-95922251D01*
X150051601Y-95666873D01*
X150187249Y-95369683D01*
X149000000Y-94182434D01*
X147812751Y-95369683D01*
X142187249Y-95369683D01*
X141000000Y-94182434D01*
X139812751Y-95369683D01*
X133125000Y-95369683D01*
X133125000Y-93666332D01*
X139057581Y-93666332D01*
X139077749Y-94435062D01*
X139333127Y-95051601D01*
X139630317Y-95187249D01*
X140817566Y-94000000D01*
X141182434Y-94000000D01*
X142369683Y-95187249D01*
X142666873Y-95051601D01*
X142942419Y-94333668D01*
X142924912Y-93666332D01*
X147057581Y-93666332D01*
X147077749Y-94435062D01*
X147333127Y-95051601D01*
X147630317Y-95187249D01*
X148817566Y-94000000D01*
X149182434Y-94000000D01*
X150369683Y-95187249D01*
X150666873Y-95051601D01*
X150942419Y-94333668D01*
X150922251Y-93564938D01*
X150666873Y-92948399D01*
X150369683Y-92812751D01*
X149182434Y-94000000D01*
X148817566Y-94000000D01*
X147630317Y-92812751D01*
X147333127Y-92948399D01*
X147057581Y-93666332D01*
X142924912Y-93666332D01*
X142922251Y-93564938D01*
X142666873Y-92948399D01*
X142369683Y-92812751D01*
X141182434Y-94000000D01*
X140817566Y-94000000D01*
X139630317Y-92812751D01*
X139333127Y-92948399D01*
X139057581Y-93666332D01*
X133125000Y-93666332D01*
X133125000Y-92630317D01*
X139812751Y-92630317D01*
X141000000Y-93817566D01*
X142187249Y-92630317D01*
X147812751Y-92630317D01*
X149000000Y-93817566D01*
X150187249Y-92630317D01*
X150051601Y-92333127D01*
X149333668Y-92057581D01*
X148564938Y-92077749D01*
X147948399Y-92333127D01*
X147812751Y-92630317D01*
X142187249Y-92630317D01*
X142051601Y-92333127D01*
X141333668Y-92057581D01*
X140564938Y-92077749D01*
X139948399Y-92333127D01*
X139812751Y-92630317D01*
X133125000Y-92630317D01*
X133125000Y-86984000D01*
X134754054Y-86984000D01*
X134754054Y-89016000D01*
X134780202Y-89154966D01*
X134862331Y-89282599D01*
X134987646Y-89368223D01*
X135136400Y-89398346D01*
X136863600Y-89398346D01*
X137002566Y-89372198D01*
X137130199Y-89290069D01*
X137215823Y-89164754D01*
X137245946Y-89016000D01*
X137245946Y-88900973D01*
X137250854Y-88914945D01*
X137640798Y-89350235D01*
X138167637Y-89603165D01*
X138179340Y-89604893D01*
X138411000Y-89484519D01*
X138411000Y-88129000D01*
X138391000Y-88129000D01*
X138391000Y-87871000D01*
X138411000Y-87871000D01*
X138411000Y-86515481D01*
X138669000Y-86515481D01*
X138669000Y-87871000D01*
X138689000Y-87871000D01*
X138689000Y-88129000D01*
X138669000Y-88129000D01*
X138669000Y-89484519D01*
X138900660Y-89604893D01*
X138912363Y-89603165D01*
X139439202Y-89350235D01*
X139829146Y-88914945D01*
X139930350Y-88626834D01*
X139935683Y-88653643D01*
X140204178Y-89055473D01*
X140606008Y-89323968D01*
X141080000Y-89418251D01*
X141553992Y-89323968D01*
X141955822Y-89055473D01*
X142224317Y-88653643D01*
X142318600Y-88179651D01*
X142318600Y-87820349D01*
X142381400Y-87820349D01*
X142381400Y-88179651D01*
X142475683Y-88653643D01*
X142744178Y-89055473D01*
X143146008Y-89323968D01*
X143620000Y-89418251D01*
X144093992Y-89323968D01*
X144495822Y-89055473D01*
X144764317Y-88653643D01*
X144858600Y-88179651D01*
X144858600Y-87820349D01*
X144921400Y-87820349D01*
X144921400Y-88179651D01*
X145015683Y-88653643D01*
X145284178Y-89055473D01*
X145686008Y-89323968D01*
X146160000Y-89418251D01*
X146633992Y-89323968D01*
X147035822Y-89055473D01*
X147304317Y-88653643D01*
X147309650Y-88626834D01*
X147410854Y-88914945D01*
X147800798Y-89350235D01*
X148327637Y-89603165D01*
X148339340Y-89604893D01*
X148571000Y-89484519D01*
X148571000Y-88129000D01*
X148551000Y-88129000D01*
X148551000Y-87871000D01*
X148571000Y-87871000D01*
X148571000Y-86515481D01*
X148829000Y-86515481D01*
X148829000Y-87871000D01*
X148849000Y-87871000D01*
X148849000Y-88129000D01*
X148829000Y-88129000D01*
X148829000Y-89484519D01*
X149060660Y-89604893D01*
X149072363Y-89603165D01*
X149599202Y-89350235D01*
X149989146Y-88914945D01*
X150090350Y-88626834D01*
X150095683Y-88653643D01*
X150364178Y-89055473D01*
X150766008Y-89323968D01*
X151240000Y-89418251D01*
X151713992Y-89323968D01*
X152115822Y-89055473D01*
X152384317Y-88653643D01*
X152478600Y-88179651D01*
X152478600Y-87820349D01*
X152541400Y-87820349D01*
X152541400Y-88179651D01*
X152635683Y-88653643D01*
X152904178Y-89055473D01*
X153306008Y-89323968D01*
X153780000Y-89418251D01*
X154253992Y-89323968D01*
X154655822Y-89055473D01*
X154924317Y-88653643D01*
X155018600Y-88179651D01*
X155018600Y-87820349D01*
X154924317Y-87346357D01*
X154655822Y-86944527D01*
X154253992Y-86676032D01*
X153780000Y-86581749D01*
X153306008Y-86676032D01*
X152904178Y-86944527D01*
X152635683Y-87346357D01*
X152541400Y-87820349D01*
X152478600Y-87820349D01*
X152384317Y-87346357D01*
X152115822Y-86944527D01*
X151713992Y-86676032D01*
X151240000Y-86581749D01*
X150766008Y-86676032D01*
X150364178Y-86944527D01*
X150095683Y-87346357D01*
X150090350Y-87373166D01*
X149989146Y-87085055D01*
X149599202Y-86649765D01*
X149072363Y-86396835D01*
X149060660Y-86395107D01*
X148829000Y-86515481D01*
X148571000Y-86515481D01*
X148339340Y-86395107D01*
X148327637Y-86396835D01*
X147800798Y-86649765D01*
X147410854Y-87085055D01*
X147309650Y-87373166D01*
X147304317Y-87346357D01*
X147035822Y-86944527D01*
X146633992Y-86676032D01*
X146160000Y-86581749D01*
X145686008Y-86676032D01*
X145284178Y-86944527D01*
X145015683Y-87346357D01*
X144921400Y-87820349D01*
X144858600Y-87820349D01*
X144764317Y-87346357D01*
X144495822Y-86944527D01*
X144093992Y-86676032D01*
X143620000Y-86581749D01*
X143146008Y-86676032D01*
X142744178Y-86944527D01*
X142475683Y-87346357D01*
X142381400Y-87820349D01*
X142318600Y-87820349D01*
X142224317Y-87346357D01*
X141955822Y-86944527D01*
X141553992Y-86676032D01*
X141080000Y-86581749D01*
X140606008Y-86676032D01*
X140204178Y-86944527D01*
X139935683Y-87346357D01*
X139930350Y-87373166D01*
X139829146Y-87085055D01*
X139439202Y-86649765D01*
X138912363Y-86396835D01*
X138900660Y-86395107D01*
X138669000Y-86515481D01*
X138411000Y-86515481D01*
X138179340Y-86395107D01*
X138167637Y-86396835D01*
X137640798Y-86649765D01*
X137250854Y-87085055D01*
X137245946Y-87099027D01*
X137245946Y-86984000D01*
X137219798Y-86845034D01*
X137137669Y-86717401D01*
X137012354Y-86631777D01*
X136863600Y-86601654D01*
X135136400Y-86601654D01*
X134997434Y-86627802D01*
X134869801Y-86709931D01*
X134784177Y-86835246D01*
X134754054Y-86984000D01*
X133125000Y-86984000D01*
X133125000Y-85125000D01*
X160875000Y-85125000D01*
X160875000Y-125875000D01*
X160875000Y-125875000D01*
G37*
X160875000Y-125875000D02*
X133125000Y-125875000D01*
X133125000Y-121984000D01*
X134754054Y-121984000D01*
X134754054Y-124016000D01*
X134780202Y-124154966D01*
X134862331Y-124282599D01*
X134987646Y-124368223D01*
X135136400Y-124398346D01*
X136863600Y-124398346D01*
X137002566Y-124372198D01*
X137130199Y-124290069D01*
X137215823Y-124164754D01*
X137245946Y-124016000D01*
X137245946Y-122820349D01*
X137301400Y-122820349D01*
X137301400Y-123179651D01*
X137395683Y-123653643D01*
X137664178Y-124055473D01*
X138066008Y-124323968D01*
X138540000Y-124418251D01*
X139013992Y-124323968D01*
X139415822Y-124055473D01*
X139684317Y-123653643D01*
X139778600Y-123179651D01*
X139778600Y-122820349D01*
X139841400Y-122820349D01*
X139841400Y-123179651D01*
X139935683Y-123653643D01*
X140204178Y-124055473D01*
X140606008Y-124323968D01*
X141080000Y-124418251D01*
X141553992Y-124323968D01*
X141955822Y-124055473D01*
X142224317Y-123653643D01*
X142318600Y-123179651D01*
X142318600Y-122820349D01*
X142381400Y-122820349D01*
X142381400Y-123179651D01*
X142475683Y-123653643D01*
X142744178Y-124055473D01*
X143146008Y-124323968D01*
X143620000Y-124418251D01*
X144093992Y-124323968D01*
X144495822Y-124055473D01*
X144764317Y-123653643D01*
X144858600Y-123179651D01*
X144858600Y-122820349D01*
X144921400Y-122820349D01*
X144921400Y-123179651D01*
X145015683Y-123653643D01*
X145284178Y-124055473D01*
X145686008Y-124323968D01*
X146160000Y-124418251D01*
X146633992Y-124323968D01*
X147035822Y-124055473D01*
X147304317Y-123653643D01*
X147309650Y-123626834D01*
X147410854Y-123914945D01*
X147800798Y-124350235D01*
X148327637Y-124603165D01*
X148339340Y-124604893D01*
X148571000Y-124484519D01*
X148571000Y-123129000D01*
X148551000Y-123129000D01*
X148551000Y-122871000D01*
X148571000Y-122871000D01*
X148571000Y-121515481D01*
X148829000Y-121515481D01*
X148829000Y-122871000D01*
X148849000Y-122871000D01*
X148849000Y-123129000D01*
X148829000Y-123129000D01*
X148829000Y-124484519D01*
X149060660Y-124604893D01*
X149072363Y-124603165D01*
X149599202Y-124350235D01*
X149989146Y-123914945D01*
X150090350Y-123626834D01*
X150095683Y-123653643D01*
X150364178Y-124055473D01*
X150766008Y-124323968D01*
X151240000Y-124418251D01*
X151713992Y-124323968D01*
X152115822Y-124055473D01*
X152384317Y-123653643D01*
X152478600Y-123179651D01*
X152478600Y-122820349D01*
X152541400Y-122820349D01*
X152541400Y-123179651D01*
X152635683Y-123653643D01*
X152904178Y-124055473D01*
X153306008Y-124323968D01*
X153780000Y-124418251D01*
X154253992Y-124323968D01*
X154655822Y-124055473D01*
X154924317Y-123653643D01*
X155018600Y-123179651D01*
X155018600Y-122820349D01*
X154924317Y-122346357D01*
X154655822Y-121944527D01*
X154253992Y-121676032D01*
X153780000Y-121581749D01*
X153306008Y-121676032D01*
X152904178Y-121944527D01*
X152635683Y-122346357D01*
X152541400Y-122820349D01*
X152478600Y-122820349D01*
X152384317Y-122346357D01*
X152115822Y-121944527D01*
X151713992Y-121676032D01*
X151240000Y-121581749D01*
X150766008Y-121676032D01*
X150364178Y-121944527D01*
X150095683Y-122346357D01*
X150090350Y-122373166D01*
X149989146Y-122085055D01*
X149599202Y-121649765D01*
X149072363Y-121396835D01*
X149060660Y-121395107D01*
X148829000Y-121515481D01*
X148571000Y-121515481D01*
X148339340Y-121395107D01*
X148327637Y-121396835D01*
X147800798Y-121649765D01*
X147410854Y-122085055D01*
X147309650Y-122373166D01*
X147304317Y-122346357D01*
X147035822Y-121944527D01*
X146633992Y-121676032D01*
X146160000Y-121581749D01*
X145686008Y-121676032D01*
X145284178Y-121944527D01*
X145015683Y-122346357D01*
X144921400Y-122820349D01*
X144858600Y-122820349D01*
X144764317Y-122346357D01*
X144495822Y-121944527D01*
X144093992Y-121676032D01*
X143620000Y-121581749D01*
X143146008Y-121676032D01*
X142744178Y-121944527D01*
X142475683Y-122346357D01*
X142381400Y-122820349D01*
X142318600Y-122820349D01*
X142224317Y-122346357D01*
X141955822Y-121944527D01*
X141553992Y-121676032D01*
X141080000Y-121581749D01*
X140606008Y-121676032D01*
X140204178Y-121944527D01*
X139935683Y-122346357D01*
X139841400Y-122820349D01*
X139778600Y-122820349D01*
X139684317Y-122346357D01*
X139415822Y-121944527D01*
X139013992Y-121676032D01*
X138540000Y-121581749D01*
X138066008Y-121676032D01*
X137664178Y-121944527D01*
X137395683Y-122346357D01*
X137301400Y-122820349D01*
X137245946Y-122820349D01*
X137245946Y-121984000D01*
X137219798Y-121845034D01*
X137137669Y-121717401D01*
X137012354Y-121631777D01*
X136863600Y-121601654D01*
X135136400Y-121601654D01*
X134997434Y-121627802D01*
X134869801Y-121709931D01*
X134784177Y-121835246D01*
X134754054Y-121984000D01*
X133125000Y-121984000D01*
X133125000Y-103369683D01*
X139812751Y-103369683D01*
X139948399Y-103666873D01*
X140666332Y-103942419D01*
X141435062Y-103922251D01*
X142051601Y-103666873D01*
X142187249Y-103369683D01*
X147812751Y-103369683D01*
X147948399Y-103666873D01*
X148666332Y-103942419D01*
X149435062Y-103922251D01*
X150051601Y-103666873D01*
X150187249Y-103369683D01*
X149000000Y-102182434D01*
X147812751Y-103369683D01*
X142187249Y-103369683D01*
X141000000Y-102182434D01*
X139812751Y-103369683D01*
X133125000Y-103369683D01*
X133125000Y-101666332D01*
X139057581Y-101666332D01*
X139077749Y-102435062D01*
X139333127Y-103051601D01*
X139630317Y-103187249D01*
X140817566Y-102000000D01*
X141182434Y-102000000D01*
X142369683Y-103187249D01*
X142666873Y-103051601D01*
X142942419Y-102333668D01*
X142924912Y-101666332D01*
X147057581Y-101666332D01*
X147077749Y-102435062D01*
X147333127Y-103051601D01*
X147630317Y-103187249D01*
X148817566Y-102000000D01*
X149182434Y-102000000D01*
X150369683Y-103187249D01*
X150666873Y-103051601D01*
X150942419Y-102333668D01*
X150922251Y-101564938D01*
X150666873Y-100948399D01*
X150369683Y-100812751D01*
X149182434Y-102000000D01*
X148817566Y-102000000D01*
X147630317Y-100812751D01*
X147333127Y-100948399D01*
X147057581Y-101666332D01*
X142924912Y-101666332D01*
X142922251Y-101564938D01*
X142666873Y-100948399D01*
X142369683Y-100812751D01*
X141182434Y-102000000D01*
X140817566Y-102000000D01*
X139630317Y-100812751D01*
X139333127Y-100948399D01*
X139057581Y-101666332D01*
X133125000Y-101666332D01*
X133125000Y-100630317D01*
X139812751Y-100630317D01*
X141000000Y-101817566D01*
X142187249Y-100630317D01*
X147812751Y-100630317D01*
X149000000Y-101817566D01*
X150187249Y-100630317D01*
X150051601Y-100333127D01*
X149333668Y-100057581D01*
X148564938Y-100077749D01*
X147948399Y-100333127D01*
X147812751Y-100630317D01*
X142187249Y-100630317D01*
X142051601Y-100333127D01*
X141333668Y-100057581D01*
X140564938Y-100077749D01*
X139948399Y-100333127D01*
X139812751Y-100630317D01*
X133125000Y-100630317D01*
X133125000Y-98252501D01*
X143724779Y-98252501D01*
X143918477Y-98721286D01*
X144276827Y-99080262D01*
X144745274Y-99274778D01*
X145252501Y-99275221D01*
X145721286Y-99081523D01*
X146080262Y-98723173D01*
X146274778Y-98254726D01*
X146275221Y-97747499D01*
X146081523Y-97278714D01*
X145723173Y-96919738D01*
X145254726Y-96725222D01*
X144747499Y-96724779D01*
X144278714Y-96918477D01*
X143919738Y-97276827D01*
X143725222Y-97745274D01*
X143724779Y-98252501D01*
X133125000Y-98252501D01*
X133125000Y-95369683D01*
X139812751Y-95369683D01*
X139948399Y-95666873D01*
X140666332Y-95942419D01*
X141435062Y-95922251D01*
X142051601Y-95666873D01*
X142187249Y-95369683D01*
X147812751Y-95369683D01*
X147948399Y-95666873D01*
X148666332Y-95942419D01*
X149435062Y-95922251D01*
X150051601Y-95666873D01*
X150187249Y-95369683D01*
X149000000Y-94182434D01*
X147812751Y-95369683D01*
X142187249Y-95369683D01*
X141000000Y-94182434D01*
X139812751Y-95369683D01*
X133125000Y-95369683D01*
X133125000Y-93666332D01*
X139057581Y-93666332D01*
X139077749Y-94435062D01*
X139333127Y-95051601D01*
X139630317Y-95187249D01*
X140817566Y-94000000D01*
X141182434Y-94000000D01*
X142369683Y-95187249D01*
X142666873Y-95051601D01*
X142942419Y-94333668D01*
X142924912Y-93666332D01*
X147057581Y-93666332D01*
X147077749Y-94435062D01*
X147333127Y-95051601D01*
X147630317Y-95187249D01*
X148817566Y-94000000D01*
X149182434Y-94000000D01*
X150369683Y-95187249D01*
X150666873Y-95051601D01*
X150942419Y-94333668D01*
X150922251Y-93564938D01*
X150666873Y-92948399D01*
X150369683Y-92812751D01*
X149182434Y-94000000D01*
X148817566Y-94000000D01*
X147630317Y-92812751D01*
X147333127Y-92948399D01*
X147057581Y-93666332D01*
X142924912Y-93666332D01*
X142922251Y-93564938D01*
X142666873Y-92948399D01*
X142369683Y-92812751D01*
X141182434Y-94000000D01*
X140817566Y-94000000D01*
X139630317Y-92812751D01*
X139333127Y-92948399D01*
X139057581Y-93666332D01*
X133125000Y-93666332D01*
X133125000Y-92630317D01*
X139812751Y-92630317D01*
X141000000Y-93817566D01*
X142187249Y-92630317D01*
X147812751Y-92630317D01*
X149000000Y-93817566D01*
X150187249Y-92630317D01*
X150051601Y-92333127D01*
X149333668Y-92057581D01*
X148564938Y-92077749D01*
X147948399Y-92333127D01*
X147812751Y-92630317D01*
X142187249Y-92630317D01*
X142051601Y-92333127D01*
X141333668Y-92057581D01*
X140564938Y-92077749D01*
X139948399Y-92333127D01*
X139812751Y-92630317D01*
X133125000Y-92630317D01*
X133125000Y-86984000D01*
X134754054Y-86984000D01*
X134754054Y-89016000D01*
X134780202Y-89154966D01*
X134862331Y-89282599D01*
X134987646Y-89368223D01*
X135136400Y-89398346D01*
X136863600Y-89398346D01*
X137002566Y-89372198D01*
X137130199Y-89290069D01*
X137215823Y-89164754D01*
X137245946Y-89016000D01*
X137245946Y-88900973D01*
X137250854Y-88914945D01*
X137640798Y-89350235D01*
X138167637Y-89603165D01*
X138179340Y-89604893D01*
X138411000Y-89484519D01*
X138411000Y-88129000D01*
X138391000Y-88129000D01*
X138391000Y-87871000D01*
X138411000Y-87871000D01*
X138411000Y-86515481D01*
X138669000Y-86515481D01*
X138669000Y-87871000D01*
X138689000Y-87871000D01*
X138689000Y-88129000D01*
X138669000Y-88129000D01*
X138669000Y-89484519D01*
X138900660Y-89604893D01*
X138912363Y-89603165D01*
X139439202Y-89350235D01*
X139829146Y-88914945D01*
X139930350Y-88626834D01*
X139935683Y-88653643D01*
X140204178Y-89055473D01*
X140606008Y-89323968D01*
X141080000Y-89418251D01*
X141553992Y-89323968D01*
X141955822Y-89055473D01*
X142224317Y-88653643D01*
X142318600Y-88179651D01*
X142318600Y-87820349D01*
X142381400Y-87820349D01*
X142381400Y-88179651D01*
X142475683Y-88653643D01*
X142744178Y-89055473D01*
X143146008Y-89323968D01*
X143620000Y-89418251D01*
X144093992Y-89323968D01*
X144495822Y-89055473D01*
X144764317Y-88653643D01*
X144858600Y-88179651D01*
X144858600Y-87820349D01*
X144921400Y-87820349D01*
X144921400Y-88179651D01*
X145015683Y-88653643D01*
X145284178Y-89055473D01*
X145686008Y-89323968D01*
X146160000Y-89418251D01*
X146633992Y-89323968D01*
X147035822Y-89055473D01*
X147304317Y-88653643D01*
X147309650Y-88626834D01*
X147410854Y-88914945D01*
X147800798Y-89350235D01*
X148327637Y-89603165D01*
X148339340Y-89604893D01*
X148571000Y-89484519D01*
X148571000Y-88129000D01*
X148551000Y-88129000D01*
X148551000Y-87871000D01*
X148571000Y-87871000D01*
X148571000Y-86515481D01*
X148829000Y-86515481D01*
X148829000Y-87871000D01*
X148849000Y-87871000D01*
X148849000Y-88129000D01*
X148829000Y-88129000D01*
X148829000Y-89484519D01*
X149060660Y-89604893D01*
X149072363Y-89603165D01*
X149599202Y-89350235D01*
X149989146Y-88914945D01*
X150090350Y-88626834D01*
X150095683Y-88653643D01*
X150364178Y-89055473D01*
X150766008Y-89323968D01*
X151240000Y-89418251D01*
X151713992Y-89323968D01*
X152115822Y-89055473D01*
X152384317Y-88653643D01*
X152478600Y-88179651D01*
X152478600Y-87820349D01*
X152541400Y-87820349D01*
X152541400Y-88179651D01*
X152635683Y-88653643D01*
X152904178Y-89055473D01*
X153306008Y-89323968D01*
X153780000Y-89418251D01*
X154253992Y-89323968D01*
X154655822Y-89055473D01*
X154924317Y-88653643D01*
X155018600Y-88179651D01*
X155018600Y-87820349D01*
X154924317Y-87346357D01*
X154655822Y-86944527D01*
X154253992Y-86676032D01*
X153780000Y-86581749D01*
X153306008Y-86676032D01*
X152904178Y-86944527D01*
X152635683Y-87346357D01*
X152541400Y-87820349D01*
X152478600Y-87820349D01*
X152384317Y-87346357D01*
X152115822Y-86944527D01*
X151713992Y-86676032D01*
X151240000Y-86581749D01*
X150766008Y-86676032D01*
X150364178Y-86944527D01*
X150095683Y-87346357D01*
X150090350Y-87373166D01*
X149989146Y-87085055D01*
X149599202Y-86649765D01*
X149072363Y-86396835D01*
X149060660Y-86395107D01*
X148829000Y-86515481D01*
X148571000Y-86515481D01*
X148339340Y-86395107D01*
X148327637Y-86396835D01*
X147800798Y-86649765D01*
X147410854Y-87085055D01*
X147309650Y-87373166D01*
X147304317Y-87346357D01*
X147035822Y-86944527D01*
X146633992Y-86676032D01*
X146160000Y-86581749D01*
X145686008Y-86676032D01*
X145284178Y-86944527D01*
X145015683Y-87346357D01*
X144921400Y-87820349D01*
X144858600Y-87820349D01*
X144764317Y-87346357D01*
X144495822Y-86944527D01*
X144093992Y-86676032D01*
X143620000Y-86581749D01*
X143146008Y-86676032D01*
X142744178Y-86944527D01*
X142475683Y-87346357D01*
X142381400Y-87820349D01*
X142318600Y-87820349D01*
X142224317Y-87346357D01*
X141955822Y-86944527D01*
X141553992Y-86676032D01*
X141080000Y-86581749D01*
X140606008Y-86676032D01*
X140204178Y-86944527D01*
X139935683Y-87346357D01*
X139930350Y-87373166D01*
X139829146Y-87085055D01*
X139439202Y-86649765D01*
X138912363Y-86396835D01*
X138900660Y-86395107D01*
X138669000Y-86515481D01*
X138411000Y-86515481D01*
X138179340Y-86395107D01*
X138167637Y-86396835D01*
X137640798Y-86649765D01*
X137250854Y-87085055D01*
X137245946Y-87099027D01*
X137245946Y-86984000D01*
X137219798Y-86845034D01*
X137137669Y-86717401D01*
X137012354Y-86631777D01*
X136863600Y-86601654D01*
X135136400Y-86601654D01*
X134997434Y-86627802D01*
X134869801Y-86709931D01*
X134784177Y-86835246D01*
X134754054Y-86984000D01*
X133125000Y-86984000D01*
X133125000Y-85125000D01*
X160875000Y-85125000D01*
X160875000Y-125875000D01*
M02*
