M48
;DRILL file {KiCad 4.0.7-e2-6376~58~ubuntu16.04.1} date Mon Jun 18 09:51:41 2018
;FORMAT={-:-/ absolute / metric / decimal}
FMAT,2
METRIC,TZ
T1C1.016
T2C1.200
T3C2.000
%
G90
G05
M71
T1
X136.Y-88.
X136.Y-123.
X138.54Y-88.
X138.54Y-123.
X141.08Y-88.
X141.08Y-123.
X143.62Y-88.
X143.62Y-123.
X146.16Y-88.
X146.16Y-123.
X148.7Y-88.
X148.7Y-123.
X151.24Y-88.
X151.24Y-123.
X153.78Y-88.
X153.78Y-123.
T2
X145.Y-98.
T3
X141.Y-94.
X141.Y-102.
X149.Y-94.
X149.Y-102.
T0
M30
