G04 #@! TF.FileFunction,Copper,L2,Bot,Signal*
%FSLAX46Y46*%
G04 Gerber Fmt 4.6, Leading zero omitted, Abs format (unit mm)*
G04 Created by KiCad (PCBNEW 4.0.7-e2-6376~58~ubuntu16.04.1) date Mon Jun 18 09:51:27 2018*
%MOMM*%
%LPD*%
G01*
G04 APERTURE LIST*
%ADD10C,0.100000*%
%ADD11R,0.800000X0.750000*%
%ADD12R,0.750000X0.800000*%
%ADD13R,1.200000X0.400000*%
%ADD14R,0.600000X1.550000*%
%ADD15R,0.900000X0.500000*%
%ADD16R,0.500000X0.900000*%
%ADD17R,1.727200X2.032000*%
%ADD18O,1.727200X2.032000*%
%ADD19C,1.800000*%
%ADD20C,2.600000*%
%ADD21C,0.250000*%
G04 APERTURE END LIST*
D10*
D11*
X146750000Y-115500000D03*
X148250000Y-115500000D03*
D12*
X150250000Y-115500000D03*
X150250000Y-117000000D03*
X145000000Y-102750000D03*
X145000000Y-101250000D03*
D13*
X143900000Y-112492500D03*
X143900000Y-111857500D03*
X143900000Y-111222500D03*
X143900000Y-110587500D03*
X143900000Y-109952500D03*
X143900000Y-109317500D03*
X143900000Y-108682500D03*
X143900000Y-108047500D03*
X143900000Y-107412500D03*
X143900000Y-106777500D03*
X143900000Y-106142500D03*
X143900000Y-105507500D03*
X149100000Y-105507500D03*
X149100000Y-106142500D03*
X149100000Y-106777500D03*
X149100000Y-107412500D03*
X149100000Y-108047500D03*
X149100000Y-108682500D03*
X149100000Y-109317500D03*
X149100000Y-109952500D03*
X149100000Y-110587500D03*
X149100000Y-111222500D03*
X149100000Y-111857500D03*
X149100000Y-112492500D03*
D14*
X156905000Y-116700000D03*
X155635000Y-116700000D03*
X154365000Y-116700000D03*
X153095000Y-116700000D03*
X153095000Y-111300000D03*
X154365000Y-111300000D03*
X155635000Y-111300000D03*
X156905000Y-111300000D03*
D15*
X141000000Y-106500000D03*
X141000000Y-108000000D03*
X142000000Y-117750000D03*
X142000000Y-116250000D03*
X140000000Y-117750000D03*
X140000000Y-116250000D03*
X138000000Y-117750000D03*
X138000000Y-116250000D03*
D16*
X154250000Y-107000000D03*
X155750000Y-107000000D03*
D17*
X136000000Y-123000000D03*
D18*
X138540000Y-123000000D03*
X141080000Y-123000000D03*
X143620000Y-123000000D03*
X146160000Y-123000000D03*
X148700000Y-123000000D03*
X151240000Y-123000000D03*
X153780000Y-123000000D03*
D17*
X136000000Y-88000000D03*
D18*
X138540000Y-88000000D03*
X141080000Y-88000000D03*
X143620000Y-88000000D03*
X146160000Y-88000000D03*
X148700000Y-88000000D03*
X151240000Y-88000000D03*
X153780000Y-88000000D03*
D19*
X145000000Y-98000000D03*
D20*
X141000000Y-94000000D03*
X149000000Y-94000000D03*
X149000000Y-102000000D03*
X141000000Y-102000000D03*
D21*
X146750000Y-115500000D02*
X146750000Y-115000000D01*
X148027500Y-111222500D02*
X149100000Y-111222500D01*
X147500000Y-111750000D02*
X148027500Y-111222500D01*
X147500000Y-114250000D02*
X147500000Y-111750000D01*
X146750000Y-115000000D02*
X147500000Y-114250000D01*
X150250000Y-115500000D02*
X148250000Y-115500000D01*
X150750000Y-113500000D02*
X150750000Y-115000000D01*
X150750000Y-115000000D02*
X150250000Y-115500000D01*
X156905000Y-107250000D02*
X156905000Y-86155000D01*
X136000000Y-86250000D02*
X136000000Y-88000000D01*
X136750000Y-85500000D02*
X136000000Y-86250000D01*
X156250000Y-85500000D02*
X136750000Y-85500000D01*
X156905000Y-86155000D02*
X156250000Y-85500000D01*
X156905000Y-111300000D02*
X156905000Y-107250000D01*
X156905000Y-107250000D02*
X156905000Y-107155000D01*
X156750000Y-107000000D02*
X155750000Y-107000000D01*
X156905000Y-107155000D02*
X156750000Y-107000000D01*
X149100000Y-110587500D02*
X150750000Y-110587500D01*
X150750000Y-110587500D02*
X150750000Y-110750000D01*
X150750000Y-113500000D02*
X156500000Y-113500000D01*
X156905000Y-113095000D02*
X156905000Y-111300000D01*
X156500000Y-113500000D02*
X156905000Y-113095000D01*
X149100000Y-109952500D02*
X150452500Y-109952500D01*
X150750000Y-110250000D02*
X150750000Y-110750000D01*
X150750000Y-110750000D02*
X150750000Y-113500000D01*
X150452500Y-109952500D02*
X150750000Y-110250000D01*
X138540000Y-88000000D02*
X138540000Y-86710000D01*
X148700000Y-86450000D02*
X148700000Y-88000000D01*
X148240002Y-85990002D02*
X148700000Y-86450000D01*
X139259998Y-85990002D02*
X148240002Y-85990002D01*
X138540000Y-86710000D02*
X139259998Y-85990002D01*
X148700000Y-123000000D02*
X148700000Y-124200000D01*
X157000000Y-124500000D02*
X157000000Y-118250000D01*
X156500000Y-125000000D02*
X157000000Y-124500000D01*
X149500000Y-125000000D02*
X156500000Y-125000000D01*
X148700000Y-124200000D02*
X149500000Y-125000000D01*
X153250000Y-118250000D02*
X151500000Y-118250000D01*
X151500000Y-118250000D02*
X150250000Y-117000000D01*
X150500000Y-105500000D02*
X154750000Y-105500000D01*
X155635000Y-109385000D02*
X155635000Y-111300000D01*
X155000000Y-108750000D02*
X155635000Y-109385000D01*
X155000000Y-105750000D02*
X155000000Y-108750000D01*
X154750000Y-105500000D02*
X155000000Y-105750000D01*
X150500000Y-105500000D02*
X149107500Y-105500000D01*
X149107500Y-105500000D02*
X149100000Y-105507500D01*
X149100000Y-106142500D02*
X150357500Y-106142500D01*
X150500000Y-103500000D02*
X149000000Y-102000000D01*
X150500000Y-106000000D02*
X150500000Y-105500000D01*
X150500000Y-105500000D02*
X150500000Y-103500000D01*
X150357500Y-106142500D02*
X150500000Y-106000000D01*
X154500000Y-118250000D02*
X154500000Y-116835000D01*
X154500000Y-116835000D02*
X154365000Y-116700000D01*
X155750000Y-118250000D02*
X155750000Y-116815000D01*
X155750000Y-116815000D02*
X155635000Y-116700000D01*
X153095000Y-116700000D02*
X153095000Y-118095000D01*
X156905000Y-118155000D02*
X156905000Y-116700000D01*
X157000000Y-118250000D02*
X156905000Y-118155000D01*
X153250000Y-118250000D02*
X154500000Y-118250000D01*
X154500000Y-118250000D02*
X155750000Y-118250000D01*
X155750000Y-118250000D02*
X157000000Y-118250000D01*
X153095000Y-118095000D02*
X153250000Y-118250000D01*
X148700000Y-88000000D02*
X148700000Y-93700000D01*
X148700000Y-93700000D02*
X149000000Y-94000000D01*
X138540000Y-88000000D02*
X138540000Y-91540000D01*
X138540000Y-91540000D02*
X141000000Y-94000000D01*
X149000000Y-102000000D02*
X149000000Y-94000000D01*
X141000000Y-102000000D02*
X141000000Y-94000000D01*
X141000000Y-106500000D02*
X141000000Y-102000000D01*
X143900000Y-107412500D02*
X142662500Y-107412500D01*
X141750000Y-106500000D02*
X141000000Y-106500000D01*
X142662500Y-107412500D02*
X141750000Y-106500000D01*
X143900000Y-108047500D02*
X145202500Y-108047500D01*
X145500000Y-103250000D02*
X145000000Y-102750000D01*
X145500000Y-107750000D02*
X145500000Y-103250000D01*
X145202500Y-108047500D02*
X145500000Y-107750000D01*
X143900000Y-108047500D02*
X141047500Y-108047500D01*
X141047500Y-108047500D02*
X141000000Y-108000000D01*
X145000000Y-98000000D02*
X145000000Y-101250000D01*
X142000000Y-116250000D02*
X142000000Y-114392500D01*
X142000000Y-114392500D02*
X143900000Y-112492500D01*
X140000000Y-116250000D02*
X140000000Y-114500000D01*
X142642500Y-111857500D02*
X143900000Y-111857500D01*
X140000000Y-114500000D02*
X142642500Y-111857500D01*
X138000000Y-116250000D02*
X138000000Y-114750000D01*
X141527500Y-111222500D02*
X143900000Y-111222500D01*
X138000000Y-114750000D02*
X141527500Y-111222500D01*
X149100000Y-106777500D02*
X148027500Y-106777500D01*
X141080000Y-89080000D02*
X141080000Y-88000000D01*
X148000000Y-96000000D02*
X141080000Y-89080000D01*
X148000000Y-99000000D02*
X148000000Y-96000000D01*
X147000000Y-100000000D02*
X148000000Y-99000000D01*
X147000000Y-105750000D02*
X147000000Y-100000000D01*
X148027500Y-106777500D02*
X147000000Y-105750000D01*
X149100000Y-107412500D02*
X153837500Y-107412500D01*
X153837500Y-107412500D02*
X154250000Y-107000000D01*
X145250000Y-111750000D02*
X145250000Y-111000000D01*
X145250000Y-118250000D02*
X146500000Y-119500000D01*
X146500000Y-119500000D02*
X150250000Y-119500000D01*
X150250000Y-119500000D02*
X151240000Y-120490000D01*
X151240000Y-123000000D02*
X151240000Y-120490000D01*
X145250000Y-111750000D02*
X145250000Y-118000000D01*
X145250000Y-118000000D02*
X145250000Y-118250000D01*
X148202500Y-108047500D02*
X149100000Y-108047500D01*
X145250000Y-111000000D02*
X148202500Y-108047500D01*
X149100000Y-108047500D02*
X152797500Y-108047500D01*
X154365000Y-109615000D02*
X154365000Y-111300000D01*
X152797500Y-108047500D02*
X154365000Y-109615000D01*
X145750000Y-111750000D02*
X145750000Y-111250000D01*
X146750000Y-119000000D02*
X153000000Y-119000000D01*
X153000000Y-119000000D02*
X153780000Y-119780000D01*
X153780000Y-123000000D02*
X153780000Y-119780000D01*
X145750000Y-111750000D02*
X145750000Y-118000000D01*
X145750000Y-118000000D02*
X146750000Y-119000000D01*
X148317500Y-108682500D02*
X149100000Y-108682500D01*
X145750000Y-111250000D02*
X148317500Y-108682500D01*
X149100000Y-108682500D02*
X152182500Y-108682500D01*
X153095000Y-109595000D02*
X153095000Y-111300000D01*
X152182500Y-108682500D02*
X153095000Y-109595000D01*
X143620000Y-123000000D02*
X143620000Y-119370000D01*
X143620000Y-119370000D02*
X142000000Y-117750000D01*
X141080000Y-123000000D02*
X141080000Y-118830000D01*
X141080000Y-118830000D02*
X140000000Y-117750000D01*
X138540000Y-123000000D02*
X138540000Y-118290000D01*
X138540000Y-118290000D02*
X138000000Y-117750000D01*
G36*
X136396446Y-85146447D02*
X135646447Y-85896447D01*
X135538060Y-86058658D01*
X135500000Y-86250000D01*
X135500000Y-86601654D01*
X135136400Y-86601654D01*
X134997434Y-86627802D01*
X134869801Y-86709931D01*
X134784177Y-86835246D01*
X134754054Y-86984000D01*
X134754054Y-89016000D01*
X134780202Y-89154966D01*
X134862331Y-89282599D01*
X134987646Y-89368223D01*
X135136400Y-89398346D01*
X136863600Y-89398346D01*
X137002566Y-89372198D01*
X137130199Y-89290069D01*
X137215823Y-89164754D01*
X137245946Y-89016000D01*
X137245946Y-88900973D01*
X137250854Y-88914945D01*
X137640798Y-89350235D01*
X138167637Y-89603165D01*
X138179340Y-89604893D01*
X138411000Y-89484519D01*
X138411000Y-88129000D01*
X138391000Y-88129000D01*
X138391000Y-87871000D01*
X138411000Y-87871000D01*
X138411000Y-86515481D01*
X138179340Y-86395107D01*
X138167637Y-86396835D01*
X137640798Y-86649765D01*
X137250854Y-87085055D01*
X137245946Y-87099027D01*
X137245946Y-86984000D01*
X137219798Y-86845034D01*
X137137669Y-86717401D01*
X137012354Y-86631777D01*
X136863600Y-86601654D01*
X136500000Y-86601654D01*
X136500000Y-86457106D01*
X136957107Y-86000000D01*
X156042894Y-86000000D01*
X156405000Y-86362106D01*
X156405000Y-106500000D01*
X156372938Y-106500000D01*
X156356198Y-106411034D01*
X156274069Y-106283401D01*
X156148754Y-106197777D01*
X156000000Y-106167654D01*
X155500000Y-106167654D01*
X155361034Y-106193802D01*
X155233401Y-106275931D01*
X155147777Y-106401246D01*
X155117654Y-106550000D01*
X155117654Y-107450000D01*
X155143802Y-107588966D01*
X155225931Y-107716599D01*
X155351246Y-107802223D01*
X155500000Y-107832346D01*
X156000000Y-107832346D01*
X156138966Y-107806198D01*
X156266599Y-107724069D01*
X156352223Y-107598754D01*
X156372221Y-107500000D01*
X156405000Y-107500000D01*
X156405000Y-110099803D01*
X156293566Y-109988369D01*
X156060912Y-109892000D01*
X155922250Y-109892000D01*
X155764000Y-110050250D01*
X155764000Y-111171000D01*
X155784000Y-111171000D01*
X155784000Y-111429000D01*
X155764000Y-111429000D01*
X155764000Y-112549750D01*
X155922250Y-112708000D01*
X156060912Y-112708000D01*
X156293566Y-112611631D01*
X156405000Y-112500197D01*
X156405000Y-112887893D01*
X156292894Y-113000000D01*
X151250000Y-113000000D01*
X151250000Y-110250000D01*
X151211940Y-110058658D01*
X151141007Y-109952500D01*
X151103554Y-109896447D01*
X150806053Y-109598947D01*
X150643842Y-109490560D01*
X150620419Y-109485901D01*
X150452500Y-109452500D01*
X150082346Y-109452500D01*
X150082346Y-109182500D01*
X151975394Y-109182500D01*
X152595000Y-109802106D01*
X152595000Y-110208076D01*
X152528401Y-110250931D01*
X152442777Y-110376246D01*
X152412654Y-110525000D01*
X152412654Y-112075000D01*
X152438802Y-112213966D01*
X152520931Y-112341599D01*
X152646246Y-112427223D01*
X152795000Y-112457346D01*
X153395000Y-112457346D01*
X153533966Y-112431198D01*
X153661599Y-112349069D01*
X153730680Y-112247966D01*
X153790931Y-112341599D01*
X153916246Y-112427223D01*
X154065000Y-112457346D01*
X154665000Y-112457346D01*
X154797863Y-112432346D01*
X154798368Y-112433565D01*
X154976434Y-112611631D01*
X155209088Y-112708000D01*
X155347750Y-112708000D01*
X155506000Y-112549750D01*
X155506000Y-111429000D01*
X155486000Y-111429000D01*
X155486000Y-111171000D01*
X155506000Y-111171000D01*
X155506000Y-110050250D01*
X155347750Y-109892000D01*
X155209088Y-109892000D01*
X154976434Y-109988369D01*
X154865000Y-110099803D01*
X154865000Y-109615000D01*
X154826940Y-109423658D01*
X154808661Y-109396302D01*
X154718554Y-109261447D01*
X153369606Y-107912500D01*
X153837500Y-107912500D01*
X154028842Y-107874440D01*
X154091839Y-107832346D01*
X154500000Y-107832346D01*
X154638966Y-107806198D01*
X154766599Y-107724069D01*
X154852223Y-107598754D01*
X154882346Y-107450000D01*
X154882346Y-106550000D01*
X154856198Y-106411034D01*
X154774069Y-106283401D01*
X154648754Y-106197777D01*
X154500000Y-106167654D01*
X154000000Y-106167654D01*
X153861034Y-106193802D01*
X153733401Y-106275931D01*
X153647777Y-106401246D01*
X153617654Y-106550000D01*
X153617654Y-106912500D01*
X150082346Y-106912500D01*
X150082346Y-106855351D01*
X150236631Y-106701066D01*
X150333000Y-106468412D01*
X150333000Y-106400750D01*
X150174750Y-106242500D01*
X150060197Y-106242500D01*
X150236631Y-106066066D01*
X150297052Y-105920198D01*
X150333000Y-105884250D01*
X150333000Y-105765750D01*
X150297052Y-105729802D01*
X150236631Y-105583934D01*
X150060197Y-105407500D01*
X150174750Y-105407500D01*
X150333000Y-105249250D01*
X150333000Y-105181588D01*
X150236631Y-104948934D01*
X150058565Y-104770868D01*
X149825911Y-104674500D01*
X149387250Y-104674500D01*
X149229000Y-104832750D01*
X149229000Y-105407500D01*
X149289250Y-105407500D01*
X149229000Y-105467750D01*
X149229000Y-105656500D01*
X148971000Y-105656500D01*
X148971000Y-105467750D01*
X148910750Y-105407500D01*
X148971000Y-105407500D01*
X148971000Y-104832750D01*
X148812750Y-104674500D01*
X148374089Y-104674500D01*
X148141435Y-104770868D01*
X147963369Y-104948934D01*
X147867000Y-105181588D01*
X147867000Y-105249250D01*
X148025250Y-105407500D01*
X148139803Y-105407500D01*
X147963369Y-105583934D01*
X147902948Y-105729802D01*
X147867000Y-105765750D01*
X147867000Y-105884250D01*
X147902948Y-105920198D01*
X147921081Y-105963975D01*
X147500000Y-105542894D01*
X147500000Y-103369683D01*
X147812751Y-103369683D01*
X147948399Y-103666873D01*
X148666332Y-103942419D01*
X149435062Y-103922251D01*
X150051601Y-103666873D01*
X150187249Y-103369683D01*
X149000000Y-102182434D01*
X147812751Y-103369683D01*
X147500000Y-103369683D01*
X147500000Y-103127768D01*
X147630317Y-103187249D01*
X148817566Y-102000000D01*
X149182434Y-102000000D01*
X150369683Y-103187249D01*
X150666873Y-103051601D01*
X150942419Y-102333668D01*
X150922251Y-101564938D01*
X150666873Y-100948399D01*
X150369683Y-100812751D01*
X149182434Y-102000000D01*
X148817566Y-102000000D01*
X147630317Y-100812751D01*
X147500000Y-100872232D01*
X147500000Y-100630317D01*
X147812751Y-100630317D01*
X149000000Y-101817566D01*
X150187249Y-100630317D01*
X150051601Y-100333127D01*
X149333668Y-100057581D01*
X148564938Y-100077749D01*
X147948399Y-100333127D01*
X147812751Y-100630317D01*
X147500000Y-100630317D01*
X147500000Y-100207106D01*
X148353554Y-99353553D01*
X148418526Y-99256314D01*
X148461940Y-99191342D01*
X148500000Y-99000000D01*
X148500000Y-96000000D01*
X148473852Y-95868544D01*
X148666332Y-95942419D01*
X149435062Y-95922251D01*
X150051601Y-95666873D01*
X150187249Y-95369683D01*
X149000000Y-94182434D01*
X148985858Y-94196576D01*
X148803424Y-94014142D01*
X148817566Y-94000000D01*
X149182434Y-94000000D01*
X150369683Y-95187249D01*
X150666873Y-95051601D01*
X150942419Y-94333668D01*
X150922251Y-93564938D01*
X150666873Y-92948399D01*
X150369683Y-92812751D01*
X149182434Y-94000000D01*
X148817566Y-94000000D01*
X147630317Y-92812751D01*
X147333127Y-92948399D01*
X147057581Y-93666332D01*
X147076013Y-94368907D01*
X145337423Y-92630317D01*
X147812751Y-92630317D01*
X149000000Y-93817566D01*
X150187249Y-92630317D01*
X150051601Y-92333127D01*
X149333668Y-92057581D01*
X148564938Y-92077749D01*
X147948399Y-92333127D01*
X147812751Y-92630317D01*
X145337423Y-92630317D01*
X141839981Y-89132875D01*
X141955822Y-89055473D01*
X142224317Y-88653643D01*
X142318600Y-88179651D01*
X142318600Y-87820349D01*
X142381400Y-87820349D01*
X142381400Y-88179651D01*
X142475683Y-88653643D01*
X142744178Y-89055473D01*
X143146008Y-89323968D01*
X143620000Y-89418251D01*
X144093992Y-89323968D01*
X144495822Y-89055473D01*
X144764317Y-88653643D01*
X144858600Y-88179651D01*
X144858600Y-87820349D01*
X144921400Y-87820349D01*
X144921400Y-88179651D01*
X145015683Y-88653643D01*
X145284178Y-89055473D01*
X145686008Y-89323968D01*
X146160000Y-89418251D01*
X146633992Y-89323968D01*
X147035822Y-89055473D01*
X147304317Y-88653643D01*
X147309650Y-88626834D01*
X147410854Y-88914945D01*
X147800798Y-89350235D01*
X148327637Y-89603165D01*
X148339340Y-89604893D01*
X148571000Y-89484519D01*
X148571000Y-88129000D01*
X148551000Y-88129000D01*
X148551000Y-87871000D01*
X148571000Y-87871000D01*
X148571000Y-86515481D01*
X148829000Y-86515481D01*
X148829000Y-87871000D01*
X148849000Y-87871000D01*
X148849000Y-88129000D01*
X148829000Y-88129000D01*
X148829000Y-89484519D01*
X149060660Y-89604893D01*
X149072363Y-89603165D01*
X149599202Y-89350235D01*
X149989146Y-88914945D01*
X150090350Y-88626834D01*
X150095683Y-88653643D01*
X150364178Y-89055473D01*
X150766008Y-89323968D01*
X151240000Y-89418251D01*
X151713992Y-89323968D01*
X152115822Y-89055473D01*
X152384317Y-88653643D01*
X152478600Y-88179651D01*
X152478600Y-87820349D01*
X152541400Y-87820349D01*
X152541400Y-88179651D01*
X152635683Y-88653643D01*
X152904178Y-89055473D01*
X153306008Y-89323968D01*
X153780000Y-89418251D01*
X154253992Y-89323968D01*
X154655822Y-89055473D01*
X154924317Y-88653643D01*
X155018600Y-88179651D01*
X155018600Y-87820349D01*
X154924317Y-87346357D01*
X154655822Y-86944527D01*
X154253992Y-86676032D01*
X153780000Y-86581749D01*
X153306008Y-86676032D01*
X152904178Y-86944527D01*
X152635683Y-87346357D01*
X152541400Y-87820349D01*
X152478600Y-87820349D01*
X152384317Y-87346357D01*
X152115822Y-86944527D01*
X151713992Y-86676032D01*
X151240000Y-86581749D01*
X150766008Y-86676032D01*
X150364178Y-86944527D01*
X150095683Y-87346357D01*
X150090350Y-87373166D01*
X149989146Y-87085055D01*
X149599202Y-86649765D01*
X149072363Y-86396835D01*
X149060660Y-86395107D01*
X148829000Y-86515481D01*
X148571000Y-86515481D01*
X148339340Y-86395107D01*
X148327637Y-86396835D01*
X147800798Y-86649765D01*
X147410854Y-87085055D01*
X147309650Y-87373166D01*
X147304317Y-87346357D01*
X147035822Y-86944527D01*
X146633992Y-86676032D01*
X146160000Y-86581749D01*
X145686008Y-86676032D01*
X145284178Y-86944527D01*
X145015683Y-87346357D01*
X144921400Y-87820349D01*
X144858600Y-87820349D01*
X144764317Y-87346357D01*
X144495822Y-86944527D01*
X144093992Y-86676032D01*
X143620000Y-86581749D01*
X143146008Y-86676032D01*
X142744178Y-86944527D01*
X142475683Y-87346357D01*
X142381400Y-87820349D01*
X142318600Y-87820349D01*
X142224317Y-87346357D01*
X141955822Y-86944527D01*
X141553992Y-86676032D01*
X141080000Y-86581749D01*
X140606008Y-86676032D01*
X140204178Y-86944527D01*
X139935683Y-87346357D01*
X139930350Y-87373166D01*
X139829146Y-87085055D01*
X139439202Y-86649765D01*
X138912363Y-86396835D01*
X138900660Y-86395107D01*
X138669000Y-86515481D01*
X138669000Y-87871000D01*
X138689000Y-87871000D01*
X138689000Y-88129000D01*
X138669000Y-88129000D01*
X138669000Y-89484519D01*
X138900660Y-89604893D01*
X138912363Y-89603165D01*
X139439202Y-89350235D01*
X139829146Y-88914945D01*
X139930350Y-88626834D01*
X139935683Y-88653643D01*
X140204178Y-89055473D01*
X140606008Y-89323968D01*
X140660461Y-89334799D01*
X140726447Y-89433553D01*
X147500000Y-96207106D01*
X147500000Y-98792893D01*
X146646447Y-99646447D01*
X146538060Y-99808658D01*
X146500000Y-100000000D01*
X146500000Y-105750000D01*
X146526704Y-105884250D01*
X146538060Y-105941342D01*
X146646447Y-106103553D01*
X147673946Y-107131053D01*
X147764175Y-107191342D01*
X147836158Y-107239440D01*
X148027500Y-107277500D01*
X148117654Y-107277500D01*
X148117654Y-107564377D01*
X148011158Y-107585560D01*
X147973034Y-107611034D01*
X147848947Y-107693946D01*
X144896447Y-110646447D01*
X144882346Y-110667550D01*
X144882346Y-110387500D01*
X144859425Y-110265687D01*
X144882346Y-110152500D01*
X144882346Y-109752500D01*
X144859425Y-109630687D01*
X144882346Y-109517500D01*
X144882346Y-109117500D01*
X144859425Y-108995687D01*
X144882346Y-108882500D01*
X144882346Y-108547500D01*
X145202500Y-108547500D01*
X145393842Y-108509440D01*
X145556053Y-108401053D01*
X145853554Y-108103553D01*
X145926189Y-107994846D01*
X145961940Y-107941342D01*
X146000000Y-107750000D01*
X146000000Y-103250000D01*
X145961940Y-103058658D01*
X145957225Y-103051601D01*
X145853554Y-102896447D01*
X145757346Y-102800239D01*
X145757346Y-102350000D01*
X145731198Y-102211034D01*
X145649069Y-102083401D01*
X145525354Y-101998870D01*
X145641599Y-101924069D01*
X145727223Y-101798754D01*
X145757346Y-101650000D01*
X145757346Y-100850000D01*
X145731198Y-100711034D01*
X145649069Y-100583401D01*
X145523754Y-100497777D01*
X145500000Y-100492967D01*
X145500000Y-99172957D01*
X145721286Y-99081523D01*
X146080262Y-98723173D01*
X146274778Y-98254726D01*
X146275221Y-97747499D01*
X146081523Y-97278714D01*
X145723173Y-96919738D01*
X145254726Y-96725222D01*
X144747499Y-96724779D01*
X144278714Y-96918477D01*
X143919738Y-97276827D01*
X143725222Y-97745274D01*
X143724779Y-98252501D01*
X143918477Y-98721286D01*
X144276827Y-99080262D01*
X144500000Y-99172931D01*
X144500000Y-100491174D01*
X144486034Y-100493802D01*
X144358401Y-100575931D01*
X144272777Y-100701246D01*
X144242654Y-100850000D01*
X144242654Y-101650000D01*
X144268802Y-101788966D01*
X144350931Y-101916599D01*
X144474646Y-102001130D01*
X144358401Y-102075931D01*
X144272777Y-102201246D01*
X144242654Y-102350000D01*
X144242654Y-103150000D01*
X144268802Y-103288966D01*
X144350931Y-103416599D01*
X144476246Y-103502223D01*
X144625000Y-103532346D01*
X145000000Y-103532346D01*
X145000000Y-106817303D01*
X144882346Y-106699649D01*
X144882346Y-106577500D01*
X144859425Y-106455687D01*
X144882346Y-106342500D01*
X144882346Y-105942500D01*
X144859425Y-105820687D01*
X144882346Y-105707500D01*
X144882346Y-105307500D01*
X144856198Y-105168534D01*
X144774069Y-105040901D01*
X144648754Y-104955277D01*
X144500000Y-104925154D01*
X143300000Y-104925154D01*
X143161034Y-104951302D01*
X143033401Y-105033431D01*
X142947777Y-105158746D01*
X142917654Y-105307500D01*
X142917654Y-105707500D01*
X142940575Y-105829313D01*
X142917654Y-105942500D01*
X142917654Y-106342500D01*
X142940575Y-106464313D01*
X142917654Y-106577500D01*
X142917654Y-106699649D01*
X142763369Y-106853934D01*
X142667000Y-107086588D01*
X142667000Y-107154250D01*
X142825250Y-107312500D01*
X143126039Y-107312500D01*
X143151246Y-107329723D01*
X143300000Y-107359846D01*
X144049000Y-107359846D01*
X144049000Y-107465154D01*
X143300000Y-107465154D01*
X143161034Y-107491302D01*
X143128091Y-107512500D01*
X142825250Y-107512500D01*
X142790250Y-107547500D01*
X141765315Y-107547500D01*
X141724069Y-107483401D01*
X141598754Y-107397777D01*
X141525782Y-107383000D01*
X141575912Y-107383000D01*
X141808566Y-107286631D01*
X141986632Y-107108565D01*
X142083000Y-106875911D01*
X142083000Y-106783250D01*
X141924750Y-106625000D01*
X141129000Y-106625000D01*
X141129000Y-106649000D01*
X140871000Y-106649000D01*
X140871000Y-106625000D01*
X140075250Y-106625000D01*
X139917000Y-106783250D01*
X139917000Y-106875911D01*
X140013368Y-107108565D01*
X140191434Y-107286631D01*
X140424088Y-107383000D01*
X140468442Y-107383000D01*
X140411034Y-107393802D01*
X140283401Y-107475931D01*
X140197777Y-107601246D01*
X140167654Y-107750000D01*
X140167654Y-108250000D01*
X140193802Y-108388966D01*
X140275931Y-108516599D01*
X140401246Y-108602223D01*
X140550000Y-108632346D01*
X141450000Y-108632346D01*
X141588966Y-108606198D01*
X141680186Y-108547500D01*
X142917654Y-108547500D01*
X142917654Y-108882500D01*
X142940575Y-109004313D01*
X142917654Y-109117500D01*
X142917654Y-109517500D01*
X142940575Y-109639313D01*
X142917654Y-109752500D01*
X142917654Y-110152500D01*
X142940575Y-110274313D01*
X142917654Y-110387500D01*
X142917654Y-110722500D01*
X141527500Y-110722500D01*
X141359581Y-110755901D01*
X141336158Y-110760560D01*
X141173946Y-110868947D01*
X137646447Y-114396447D01*
X137538060Y-114558658D01*
X137500000Y-114750000D01*
X137500000Y-115627062D01*
X137411034Y-115643802D01*
X137283401Y-115725931D01*
X137197777Y-115851246D01*
X137167654Y-116000000D01*
X137167654Y-116500000D01*
X137193802Y-116638966D01*
X137275931Y-116766599D01*
X137401246Y-116852223D01*
X137550000Y-116882346D01*
X138450000Y-116882346D01*
X138588966Y-116856198D01*
X138716599Y-116774069D01*
X138802223Y-116648754D01*
X138832346Y-116500000D01*
X138832346Y-116000000D01*
X138806198Y-115861034D01*
X138724069Y-115733401D01*
X138598754Y-115647777D01*
X138500000Y-115627779D01*
X138500000Y-114957106D01*
X141734607Y-111722500D01*
X142070393Y-111722500D01*
X139646447Y-114146447D01*
X139538060Y-114308658D01*
X139500000Y-114500000D01*
X139500000Y-115627062D01*
X139411034Y-115643802D01*
X139283401Y-115725931D01*
X139197777Y-115851246D01*
X139167654Y-116000000D01*
X139167654Y-116500000D01*
X139193802Y-116638966D01*
X139275931Y-116766599D01*
X139401246Y-116852223D01*
X139550000Y-116882346D01*
X140450000Y-116882346D01*
X140588966Y-116856198D01*
X140716599Y-116774069D01*
X140802223Y-116648754D01*
X140832346Y-116500000D01*
X140832346Y-116000000D01*
X140806198Y-115861034D01*
X140724069Y-115733401D01*
X140598754Y-115647777D01*
X140500000Y-115627779D01*
X140500000Y-114707106D01*
X142849607Y-112357500D01*
X142917654Y-112357500D01*
X142917654Y-112692500D01*
X142929569Y-112755824D01*
X141646447Y-114038947D01*
X141538060Y-114201158D01*
X141500000Y-114392500D01*
X141500000Y-115627062D01*
X141411034Y-115643802D01*
X141283401Y-115725931D01*
X141197777Y-115851246D01*
X141167654Y-116000000D01*
X141167654Y-116500000D01*
X141193802Y-116638966D01*
X141275931Y-116766599D01*
X141401246Y-116852223D01*
X141550000Y-116882346D01*
X142450000Y-116882346D01*
X142588966Y-116856198D01*
X142716599Y-116774069D01*
X142802223Y-116648754D01*
X142832346Y-116500000D01*
X142832346Y-116000000D01*
X142806198Y-115861034D01*
X142724069Y-115733401D01*
X142598754Y-115647777D01*
X142500000Y-115627779D01*
X142500000Y-114599606D01*
X144024761Y-113074846D01*
X144500000Y-113074846D01*
X144638966Y-113048698D01*
X144750000Y-112977250D01*
X144750000Y-118250000D01*
X144776325Y-118382346D01*
X144788060Y-118441342D01*
X144896447Y-118603553D01*
X146146447Y-119853553D01*
X146308658Y-119961940D01*
X146500000Y-120000000D01*
X150042894Y-120000000D01*
X150740000Y-120697107D01*
X150740000Y-121693410D01*
X150364178Y-121944527D01*
X150095683Y-122346357D01*
X150090350Y-122373166D01*
X149989146Y-122085055D01*
X149599202Y-121649765D01*
X149072363Y-121396835D01*
X149060660Y-121395107D01*
X148829000Y-121515481D01*
X148829000Y-122871000D01*
X148849000Y-122871000D01*
X148849000Y-123129000D01*
X148829000Y-123129000D01*
X148829000Y-124484519D01*
X149060660Y-124604893D01*
X149072363Y-124603165D01*
X149599202Y-124350235D01*
X149989146Y-123914945D01*
X150090350Y-123626834D01*
X150095683Y-123653643D01*
X150364178Y-124055473D01*
X150766008Y-124323968D01*
X151240000Y-124418251D01*
X151713992Y-124323968D01*
X152115822Y-124055473D01*
X152384317Y-123653643D01*
X152478600Y-123179651D01*
X152478600Y-122820349D01*
X152384317Y-122346357D01*
X152115822Y-121944527D01*
X151740000Y-121693410D01*
X151740000Y-120490000D01*
X151701940Y-120298658D01*
X151664042Y-120241940D01*
X151593553Y-120136446D01*
X150957106Y-119500000D01*
X152792894Y-119500000D01*
X153280000Y-119987107D01*
X153280000Y-121693410D01*
X152904178Y-121944527D01*
X152635683Y-122346357D01*
X152541400Y-122820349D01*
X152541400Y-123179651D01*
X152635683Y-123653643D01*
X152904178Y-124055473D01*
X153306008Y-124323968D01*
X153780000Y-124418251D01*
X154253992Y-124323968D01*
X154655822Y-124055473D01*
X154924317Y-123653643D01*
X155018600Y-123179651D01*
X155018600Y-122820349D01*
X154924317Y-122346357D01*
X154655822Y-121944527D01*
X154280000Y-121693410D01*
X154280000Y-119780000D01*
X154241940Y-119588658D01*
X154182700Y-119500000D01*
X154133554Y-119426447D01*
X153353553Y-118646447D01*
X153191342Y-118538060D01*
X153000000Y-118500000D01*
X146957107Y-118500000D01*
X146250000Y-117792894D01*
X146250000Y-117287250D01*
X149242000Y-117287250D01*
X149242000Y-117525911D01*
X149338368Y-117758565D01*
X149516434Y-117936631D01*
X149749088Y-118033000D01*
X149962750Y-118033000D01*
X150121000Y-117874750D01*
X150121000Y-117129000D01*
X150379000Y-117129000D01*
X150379000Y-117874750D01*
X150537250Y-118033000D01*
X150750912Y-118033000D01*
X150983566Y-117936631D01*
X151161632Y-117758565D01*
X151258000Y-117525911D01*
X151258000Y-117287250D01*
X151099750Y-117129000D01*
X150379000Y-117129000D01*
X150121000Y-117129000D01*
X149400250Y-117129000D01*
X149242000Y-117287250D01*
X146250000Y-117287250D01*
X146250000Y-116987250D01*
X152162000Y-116987250D01*
X152162000Y-117600911D01*
X152258368Y-117833565D01*
X152436434Y-118011631D01*
X152669088Y-118108000D01*
X152807750Y-118108000D01*
X152966000Y-117949750D01*
X152966000Y-116829000D01*
X153224000Y-116829000D01*
X153224000Y-117949750D01*
X153382250Y-118108000D01*
X153520912Y-118108000D01*
X153730000Y-118021392D01*
X153939088Y-118108000D01*
X154077750Y-118108000D01*
X154236000Y-117949750D01*
X154236000Y-116829000D01*
X154494000Y-116829000D01*
X154494000Y-117949750D01*
X154652250Y-118108000D01*
X154790912Y-118108000D01*
X155000000Y-118021392D01*
X155209088Y-118108000D01*
X155347750Y-118108000D01*
X155506000Y-117949750D01*
X155506000Y-116829000D01*
X155764000Y-116829000D01*
X155764000Y-117949750D01*
X155922250Y-118108000D01*
X156060912Y-118108000D01*
X156270000Y-118021392D01*
X156479088Y-118108000D01*
X156617750Y-118108000D01*
X156776000Y-117949750D01*
X156776000Y-116829000D01*
X157034000Y-116829000D01*
X157034000Y-117949750D01*
X157192250Y-118108000D01*
X157330912Y-118108000D01*
X157563566Y-118011631D01*
X157741632Y-117833565D01*
X157838000Y-117600911D01*
X157838000Y-116987250D01*
X157679750Y-116829000D01*
X157034000Y-116829000D01*
X156776000Y-116829000D01*
X155764000Y-116829000D01*
X155506000Y-116829000D01*
X154494000Y-116829000D01*
X154236000Y-116829000D01*
X153224000Y-116829000D01*
X152966000Y-116829000D01*
X152320250Y-116829000D01*
X152162000Y-116987250D01*
X146250000Y-116987250D01*
X146250000Y-116237096D01*
X146350000Y-116257346D01*
X147150000Y-116257346D01*
X147288966Y-116231198D01*
X147416599Y-116149069D01*
X147501130Y-116025354D01*
X147575931Y-116141599D01*
X147701246Y-116227223D01*
X147850000Y-116257346D01*
X148650000Y-116257346D01*
X148788966Y-116231198D01*
X148916599Y-116149069D01*
X149002223Y-116023754D01*
X149007033Y-116000000D01*
X149511470Y-116000000D01*
X149518802Y-116038966D01*
X149530702Y-116057459D01*
X149516434Y-116063369D01*
X149338368Y-116241435D01*
X149242000Y-116474089D01*
X149242000Y-116712750D01*
X149400250Y-116871000D01*
X150121000Y-116871000D01*
X150121000Y-116851000D01*
X150379000Y-116851000D01*
X150379000Y-116871000D01*
X151099750Y-116871000D01*
X151258000Y-116712750D01*
X151258000Y-116474089D01*
X151161632Y-116241435D01*
X150983566Y-116063369D01*
X150970839Y-116058097D01*
X150977223Y-116048754D01*
X151007346Y-115900000D01*
X151007346Y-115799089D01*
X152162000Y-115799089D01*
X152162000Y-116412750D01*
X152320250Y-116571000D01*
X152966000Y-116571000D01*
X152966000Y-115450250D01*
X153224000Y-115450250D01*
X153224000Y-116571000D01*
X154236000Y-116571000D01*
X154236000Y-115450250D01*
X154494000Y-115450250D01*
X154494000Y-116571000D01*
X155506000Y-116571000D01*
X155506000Y-115450250D01*
X155764000Y-115450250D01*
X155764000Y-116571000D01*
X156776000Y-116571000D01*
X156776000Y-115450250D01*
X157034000Y-115450250D01*
X157034000Y-116571000D01*
X157679750Y-116571000D01*
X157838000Y-116412750D01*
X157838000Y-115799089D01*
X157741632Y-115566435D01*
X157563566Y-115388369D01*
X157330912Y-115292000D01*
X157192250Y-115292000D01*
X157034000Y-115450250D01*
X156776000Y-115450250D01*
X156617750Y-115292000D01*
X156479088Y-115292000D01*
X156270000Y-115378608D01*
X156060912Y-115292000D01*
X155922250Y-115292000D01*
X155764000Y-115450250D01*
X155506000Y-115450250D01*
X155347750Y-115292000D01*
X155209088Y-115292000D01*
X155000000Y-115378608D01*
X154790912Y-115292000D01*
X154652250Y-115292000D01*
X154494000Y-115450250D01*
X154236000Y-115450250D01*
X154077750Y-115292000D01*
X153939088Y-115292000D01*
X153730000Y-115378608D01*
X153520912Y-115292000D01*
X153382250Y-115292000D01*
X153224000Y-115450250D01*
X152966000Y-115450250D01*
X152807750Y-115292000D01*
X152669088Y-115292000D01*
X152436434Y-115388369D01*
X152258368Y-115566435D01*
X152162000Y-115799089D01*
X151007346Y-115799089D01*
X151007346Y-115449761D01*
X151103554Y-115353553D01*
X151211940Y-115191342D01*
X151250000Y-115000000D01*
X151250000Y-114000000D01*
X156500000Y-114000000D01*
X156691342Y-113961940D01*
X156853553Y-113853553D01*
X157258553Y-113448554D01*
X157366940Y-113286342D01*
X157405000Y-113095000D01*
X157405000Y-112391924D01*
X157471599Y-112349069D01*
X157557223Y-112223754D01*
X157587346Y-112075000D01*
X157587346Y-110525000D01*
X157561198Y-110386034D01*
X157479069Y-110258401D01*
X157405000Y-110207792D01*
X157405000Y-86155000D01*
X157366940Y-85963658D01*
X157258553Y-85801447D01*
X156603553Y-85146447D01*
X156571456Y-85125000D01*
X160875000Y-85125000D01*
X160875000Y-125875000D01*
X133125000Y-125875000D01*
X133125000Y-121984000D01*
X134754054Y-121984000D01*
X134754054Y-124016000D01*
X134780202Y-124154966D01*
X134862331Y-124282599D01*
X134987646Y-124368223D01*
X135136400Y-124398346D01*
X136863600Y-124398346D01*
X137002566Y-124372198D01*
X137130199Y-124290069D01*
X137215823Y-124164754D01*
X137245946Y-124016000D01*
X137245946Y-121984000D01*
X137219798Y-121845034D01*
X137137669Y-121717401D01*
X137012354Y-121631777D01*
X136863600Y-121601654D01*
X135136400Y-121601654D01*
X134997434Y-121627802D01*
X134869801Y-121709931D01*
X134784177Y-121835246D01*
X134754054Y-121984000D01*
X133125000Y-121984000D01*
X133125000Y-117500000D01*
X137167654Y-117500000D01*
X137167654Y-118000000D01*
X137193802Y-118138966D01*
X137275931Y-118266599D01*
X137401246Y-118352223D01*
X137550000Y-118382346D01*
X137925239Y-118382346D01*
X138040000Y-118497107D01*
X138040000Y-121693410D01*
X137664178Y-121944527D01*
X137395683Y-122346357D01*
X137301400Y-122820349D01*
X137301400Y-123179651D01*
X137395683Y-123653643D01*
X137664178Y-124055473D01*
X138066008Y-124323968D01*
X138540000Y-124418251D01*
X139013992Y-124323968D01*
X139415822Y-124055473D01*
X139684317Y-123653643D01*
X139778600Y-123179651D01*
X139778600Y-122820349D01*
X139684317Y-122346357D01*
X139415822Y-121944527D01*
X139040000Y-121693410D01*
X139040000Y-118290000D01*
X139001940Y-118098658D01*
X138975213Y-118058658D01*
X138893553Y-117936446D01*
X138832346Y-117875239D01*
X138832346Y-117500000D01*
X139167654Y-117500000D01*
X139167654Y-118000000D01*
X139193802Y-118138966D01*
X139275931Y-118266599D01*
X139401246Y-118352223D01*
X139550000Y-118382346D01*
X139925240Y-118382346D01*
X140580000Y-119037107D01*
X140580000Y-121693410D01*
X140204178Y-121944527D01*
X139935683Y-122346357D01*
X139841400Y-122820349D01*
X139841400Y-123179651D01*
X139935683Y-123653643D01*
X140204178Y-124055473D01*
X140606008Y-124323968D01*
X141080000Y-124418251D01*
X141553992Y-124323968D01*
X141955822Y-124055473D01*
X142224317Y-123653643D01*
X142318600Y-123179651D01*
X142318600Y-122820349D01*
X142224317Y-122346357D01*
X141955822Y-121944527D01*
X141580000Y-121693410D01*
X141580000Y-118830000D01*
X141541940Y-118638658D01*
X141474722Y-118538060D01*
X141433554Y-118476447D01*
X140832346Y-117875240D01*
X140832346Y-117500000D01*
X141167654Y-117500000D01*
X141167654Y-118000000D01*
X141193802Y-118138966D01*
X141275931Y-118266599D01*
X141401246Y-118352223D01*
X141550000Y-118382346D01*
X141925240Y-118382346D01*
X143120000Y-119577106D01*
X143120000Y-121693410D01*
X142744178Y-121944527D01*
X142475683Y-122346357D01*
X142381400Y-122820349D01*
X142381400Y-123179651D01*
X142475683Y-123653643D01*
X142744178Y-124055473D01*
X143146008Y-124323968D01*
X143620000Y-124418251D01*
X144093992Y-124323968D01*
X144495822Y-124055473D01*
X144764317Y-123653643D01*
X144858600Y-123179651D01*
X144858600Y-122820349D01*
X144921400Y-122820349D01*
X144921400Y-123179651D01*
X145015683Y-123653643D01*
X145284178Y-124055473D01*
X145686008Y-124323968D01*
X146160000Y-124418251D01*
X146633992Y-124323968D01*
X147035822Y-124055473D01*
X147304317Y-123653643D01*
X147309650Y-123626834D01*
X147410854Y-123914945D01*
X147800798Y-124350235D01*
X148327637Y-124603165D01*
X148339340Y-124604893D01*
X148571000Y-124484519D01*
X148571000Y-123129000D01*
X148551000Y-123129000D01*
X148551000Y-122871000D01*
X148571000Y-122871000D01*
X148571000Y-121515481D01*
X148339340Y-121395107D01*
X148327637Y-121396835D01*
X147800798Y-121649765D01*
X147410854Y-122085055D01*
X147309650Y-122373166D01*
X147304317Y-122346357D01*
X147035822Y-121944527D01*
X146633992Y-121676032D01*
X146160000Y-121581749D01*
X145686008Y-121676032D01*
X145284178Y-121944527D01*
X145015683Y-122346357D01*
X144921400Y-122820349D01*
X144858600Y-122820349D01*
X144764317Y-122346357D01*
X144495822Y-121944527D01*
X144120000Y-121693410D01*
X144120000Y-119370000D01*
X144081940Y-119178658D01*
X143973553Y-119016447D01*
X142832346Y-117875240D01*
X142832346Y-117500000D01*
X142806198Y-117361034D01*
X142724069Y-117233401D01*
X142598754Y-117147777D01*
X142450000Y-117117654D01*
X141550000Y-117117654D01*
X141411034Y-117143802D01*
X141283401Y-117225931D01*
X141197777Y-117351246D01*
X141167654Y-117500000D01*
X140832346Y-117500000D01*
X140806198Y-117361034D01*
X140724069Y-117233401D01*
X140598754Y-117147777D01*
X140450000Y-117117654D01*
X139550000Y-117117654D01*
X139411034Y-117143802D01*
X139283401Y-117225931D01*
X139197777Y-117351246D01*
X139167654Y-117500000D01*
X138832346Y-117500000D01*
X138806198Y-117361034D01*
X138724069Y-117233401D01*
X138598754Y-117147777D01*
X138450000Y-117117654D01*
X137550000Y-117117654D01*
X137411034Y-117143802D01*
X137283401Y-117225931D01*
X137197777Y-117351246D01*
X137167654Y-117500000D01*
X133125000Y-117500000D01*
X133125000Y-106124089D01*
X139917000Y-106124089D01*
X139917000Y-106216750D01*
X140075250Y-106375000D01*
X140871000Y-106375000D01*
X140871000Y-105775250D01*
X141129000Y-105775250D01*
X141129000Y-106375000D01*
X141924750Y-106375000D01*
X142083000Y-106216750D01*
X142083000Y-106124089D01*
X141986632Y-105891435D01*
X141808566Y-105713369D01*
X141575912Y-105617000D01*
X141287250Y-105617000D01*
X141129000Y-105775250D01*
X140871000Y-105775250D01*
X140712750Y-105617000D01*
X140424088Y-105617000D01*
X140191434Y-105713369D01*
X140013368Y-105891435D01*
X139917000Y-106124089D01*
X133125000Y-106124089D01*
X133125000Y-103369683D01*
X139812751Y-103369683D01*
X139948399Y-103666873D01*
X140666332Y-103942419D01*
X141435062Y-103922251D01*
X142051601Y-103666873D01*
X142187249Y-103369683D01*
X141000000Y-102182434D01*
X139812751Y-103369683D01*
X133125000Y-103369683D01*
X133125000Y-101666332D01*
X139057581Y-101666332D01*
X139077749Y-102435062D01*
X139333127Y-103051601D01*
X139630317Y-103187249D01*
X140817566Y-102000000D01*
X141182434Y-102000000D01*
X142369683Y-103187249D01*
X142666873Y-103051601D01*
X142942419Y-102333668D01*
X142922251Y-101564938D01*
X142666873Y-100948399D01*
X142369683Y-100812751D01*
X141182434Y-102000000D01*
X140817566Y-102000000D01*
X139630317Y-100812751D01*
X139333127Y-100948399D01*
X139057581Y-101666332D01*
X133125000Y-101666332D01*
X133125000Y-100630317D01*
X139812751Y-100630317D01*
X141000000Y-101817566D01*
X142187249Y-100630317D01*
X142051601Y-100333127D01*
X141333668Y-100057581D01*
X140564938Y-100077749D01*
X139948399Y-100333127D01*
X139812751Y-100630317D01*
X133125000Y-100630317D01*
X133125000Y-95369683D01*
X139812751Y-95369683D01*
X139948399Y-95666873D01*
X140666332Y-95942419D01*
X141435062Y-95922251D01*
X142051601Y-95666873D01*
X142187249Y-95369683D01*
X141000000Y-94182434D01*
X139812751Y-95369683D01*
X133125000Y-95369683D01*
X133125000Y-93666332D01*
X139057581Y-93666332D01*
X139077749Y-94435062D01*
X139333127Y-95051601D01*
X139630317Y-95187249D01*
X140817566Y-94000000D01*
X141182434Y-94000000D01*
X142369683Y-95187249D01*
X142666873Y-95051601D01*
X142942419Y-94333668D01*
X142922251Y-93564938D01*
X142666873Y-92948399D01*
X142369683Y-92812751D01*
X141182434Y-94000000D01*
X140817566Y-94000000D01*
X139630317Y-92812751D01*
X139333127Y-92948399D01*
X139057581Y-93666332D01*
X133125000Y-93666332D01*
X133125000Y-92630317D01*
X139812751Y-92630317D01*
X141000000Y-93817566D01*
X142187249Y-92630317D01*
X142051601Y-92333127D01*
X141333668Y-92057581D01*
X140564938Y-92077749D01*
X139948399Y-92333127D01*
X139812751Y-92630317D01*
X133125000Y-92630317D01*
X133125000Y-85125000D01*
X136428544Y-85125000D01*
X136396446Y-85146447D01*
X136396446Y-85146447D01*
G37*
X136396446Y-85146447D02*
X135646447Y-85896447D01*
X135538060Y-86058658D01*
X135500000Y-86250000D01*
X135500000Y-86601654D01*
X135136400Y-86601654D01*
X134997434Y-86627802D01*
X134869801Y-86709931D01*
X134784177Y-86835246D01*
X134754054Y-86984000D01*
X134754054Y-89016000D01*
X134780202Y-89154966D01*
X134862331Y-89282599D01*
X134987646Y-89368223D01*
X135136400Y-89398346D01*
X136863600Y-89398346D01*
X137002566Y-89372198D01*
X137130199Y-89290069D01*
X137215823Y-89164754D01*
X137245946Y-89016000D01*
X137245946Y-88900973D01*
X137250854Y-88914945D01*
X137640798Y-89350235D01*
X138167637Y-89603165D01*
X138179340Y-89604893D01*
X138411000Y-89484519D01*
X138411000Y-88129000D01*
X138391000Y-88129000D01*
X138391000Y-87871000D01*
X138411000Y-87871000D01*
X138411000Y-86515481D01*
X138179340Y-86395107D01*
X138167637Y-86396835D01*
X137640798Y-86649765D01*
X137250854Y-87085055D01*
X137245946Y-87099027D01*
X137245946Y-86984000D01*
X137219798Y-86845034D01*
X137137669Y-86717401D01*
X137012354Y-86631777D01*
X136863600Y-86601654D01*
X136500000Y-86601654D01*
X136500000Y-86457106D01*
X136957107Y-86000000D01*
X156042894Y-86000000D01*
X156405000Y-86362106D01*
X156405000Y-106500000D01*
X156372938Y-106500000D01*
X156356198Y-106411034D01*
X156274069Y-106283401D01*
X156148754Y-106197777D01*
X156000000Y-106167654D01*
X155500000Y-106167654D01*
X155361034Y-106193802D01*
X155233401Y-106275931D01*
X155147777Y-106401246D01*
X155117654Y-106550000D01*
X155117654Y-107450000D01*
X155143802Y-107588966D01*
X155225931Y-107716599D01*
X155351246Y-107802223D01*
X155500000Y-107832346D01*
X156000000Y-107832346D01*
X156138966Y-107806198D01*
X156266599Y-107724069D01*
X156352223Y-107598754D01*
X156372221Y-107500000D01*
X156405000Y-107500000D01*
X156405000Y-110099803D01*
X156293566Y-109988369D01*
X156060912Y-109892000D01*
X155922250Y-109892000D01*
X155764000Y-110050250D01*
X155764000Y-111171000D01*
X155784000Y-111171000D01*
X155784000Y-111429000D01*
X155764000Y-111429000D01*
X155764000Y-112549750D01*
X155922250Y-112708000D01*
X156060912Y-112708000D01*
X156293566Y-112611631D01*
X156405000Y-112500197D01*
X156405000Y-112887893D01*
X156292894Y-113000000D01*
X151250000Y-113000000D01*
X151250000Y-110250000D01*
X151211940Y-110058658D01*
X151141007Y-109952500D01*
X151103554Y-109896447D01*
X150806053Y-109598947D01*
X150643842Y-109490560D01*
X150620419Y-109485901D01*
X150452500Y-109452500D01*
X150082346Y-109452500D01*
X150082346Y-109182500D01*
X151975394Y-109182500D01*
X152595000Y-109802106D01*
X152595000Y-110208076D01*
X152528401Y-110250931D01*
X152442777Y-110376246D01*
X152412654Y-110525000D01*
X152412654Y-112075000D01*
X152438802Y-112213966D01*
X152520931Y-112341599D01*
X152646246Y-112427223D01*
X152795000Y-112457346D01*
X153395000Y-112457346D01*
X153533966Y-112431198D01*
X153661599Y-112349069D01*
X153730680Y-112247966D01*
X153790931Y-112341599D01*
X153916246Y-112427223D01*
X154065000Y-112457346D01*
X154665000Y-112457346D01*
X154797863Y-112432346D01*
X154798368Y-112433565D01*
X154976434Y-112611631D01*
X155209088Y-112708000D01*
X155347750Y-112708000D01*
X155506000Y-112549750D01*
X155506000Y-111429000D01*
X155486000Y-111429000D01*
X155486000Y-111171000D01*
X155506000Y-111171000D01*
X155506000Y-110050250D01*
X155347750Y-109892000D01*
X155209088Y-109892000D01*
X154976434Y-109988369D01*
X154865000Y-110099803D01*
X154865000Y-109615000D01*
X154826940Y-109423658D01*
X154808661Y-109396302D01*
X154718554Y-109261447D01*
X153369606Y-107912500D01*
X153837500Y-107912500D01*
X154028842Y-107874440D01*
X154091839Y-107832346D01*
X154500000Y-107832346D01*
X154638966Y-107806198D01*
X154766599Y-107724069D01*
X154852223Y-107598754D01*
X154882346Y-107450000D01*
X154882346Y-106550000D01*
X154856198Y-106411034D01*
X154774069Y-106283401D01*
X154648754Y-106197777D01*
X154500000Y-106167654D01*
X154000000Y-106167654D01*
X153861034Y-106193802D01*
X153733401Y-106275931D01*
X153647777Y-106401246D01*
X153617654Y-106550000D01*
X153617654Y-106912500D01*
X150082346Y-106912500D01*
X150082346Y-106855351D01*
X150236631Y-106701066D01*
X150333000Y-106468412D01*
X150333000Y-106400750D01*
X150174750Y-106242500D01*
X150060197Y-106242500D01*
X150236631Y-106066066D01*
X150297052Y-105920198D01*
X150333000Y-105884250D01*
X150333000Y-105765750D01*
X150297052Y-105729802D01*
X150236631Y-105583934D01*
X150060197Y-105407500D01*
X150174750Y-105407500D01*
X150333000Y-105249250D01*
X150333000Y-105181588D01*
X150236631Y-104948934D01*
X150058565Y-104770868D01*
X149825911Y-104674500D01*
X149387250Y-104674500D01*
X149229000Y-104832750D01*
X149229000Y-105407500D01*
X149289250Y-105407500D01*
X149229000Y-105467750D01*
X149229000Y-105656500D01*
X148971000Y-105656500D01*
X148971000Y-105467750D01*
X148910750Y-105407500D01*
X148971000Y-105407500D01*
X148971000Y-104832750D01*
X148812750Y-104674500D01*
X148374089Y-104674500D01*
X148141435Y-104770868D01*
X147963369Y-104948934D01*
X147867000Y-105181588D01*
X147867000Y-105249250D01*
X148025250Y-105407500D01*
X148139803Y-105407500D01*
X147963369Y-105583934D01*
X147902948Y-105729802D01*
X147867000Y-105765750D01*
X147867000Y-105884250D01*
X147902948Y-105920198D01*
X147921081Y-105963975D01*
X147500000Y-105542894D01*
X147500000Y-103369683D01*
X147812751Y-103369683D01*
X147948399Y-103666873D01*
X148666332Y-103942419D01*
X149435062Y-103922251D01*
X150051601Y-103666873D01*
X150187249Y-103369683D01*
X149000000Y-102182434D01*
X147812751Y-103369683D01*
X147500000Y-103369683D01*
X147500000Y-103127768D01*
X147630317Y-103187249D01*
X148817566Y-102000000D01*
X149182434Y-102000000D01*
X150369683Y-103187249D01*
X150666873Y-103051601D01*
X150942419Y-102333668D01*
X150922251Y-101564938D01*
X150666873Y-100948399D01*
X150369683Y-100812751D01*
X149182434Y-102000000D01*
X148817566Y-102000000D01*
X147630317Y-100812751D01*
X147500000Y-100872232D01*
X147500000Y-100630317D01*
X147812751Y-100630317D01*
X149000000Y-101817566D01*
X150187249Y-100630317D01*
X150051601Y-100333127D01*
X149333668Y-100057581D01*
X148564938Y-100077749D01*
X147948399Y-100333127D01*
X147812751Y-100630317D01*
X147500000Y-100630317D01*
X147500000Y-100207106D01*
X148353554Y-99353553D01*
X148418526Y-99256314D01*
X148461940Y-99191342D01*
X148500000Y-99000000D01*
X148500000Y-96000000D01*
X148473852Y-95868544D01*
X148666332Y-95942419D01*
X149435062Y-95922251D01*
X150051601Y-95666873D01*
X150187249Y-95369683D01*
X149000000Y-94182434D01*
X148985858Y-94196576D01*
X148803424Y-94014142D01*
X148817566Y-94000000D01*
X149182434Y-94000000D01*
X150369683Y-95187249D01*
X150666873Y-95051601D01*
X150942419Y-94333668D01*
X150922251Y-93564938D01*
X150666873Y-92948399D01*
X150369683Y-92812751D01*
X149182434Y-94000000D01*
X148817566Y-94000000D01*
X147630317Y-92812751D01*
X147333127Y-92948399D01*
X147057581Y-93666332D01*
X147076013Y-94368907D01*
X145337423Y-92630317D01*
X147812751Y-92630317D01*
X149000000Y-93817566D01*
X150187249Y-92630317D01*
X150051601Y-92333127D01*
X149333668Y-92057581D01*
X148564938Y-92077749D01*
X147948399Y-92333127D01*
X147812751Y-92630317D01*
X145337423Y-92630317D01*
X141839981Y-89132875D01*
X141955822Y-89055473D01*
X142224317Y-88653643D01*
X142318600Y-88179651D01*
X142318600Y-87820349D01*
X142381400Y-87820349D01*
X142381400Y-88179651D01*
X142475683Y-88653643D01*
X142744178Y-89055473D01*
X143146008Y-89323968D01*
X143620000Y-89418251D01*
X144093992Y-89323968D01*
X144495822Y-89055473D01*
X144764317Y-88653643D01*
X144858600Y-88179651D01*
X144858600Y-87820349D01*
X144921400Y-87820349D01*
X144921400Y-88179651D01*
X145015683Y-88653643D01*
X145284178Y-89055473D01*
X145686008Y-89323968D01*
X146160000Y-89418251D01*
X146633992Y-89323968D01*
X147035822Y-89055473D01*
X147304317Y-88653643D01*
X147309650Y-88626834D01*
X147410854Y-88914945D01*
X147800798Y-89350235D01*
X148327637Y-89603165D01*
X148339340Y-89604893D01*
X148571000Y-89484519D01*
X148571000Y-88129000D01*
X148551000Y-88129000D01*
X148551000Y-87871000D01*
X148571000Y-87871000D01*
X148571000Y-86515481D01*
X148829000Y-86515481D01*
X148829000Y-87871000D01*
X148849000Y-87871000D01*
X148849000Y-88129000D01*
X148829000Y-88129000D01*
X148829000Y-89484519D01*
X149060660Y-89604893D01*
X149072363Y-89603165D01*
X149599202Y-89350235D01*
X149989146Y-88914945D01*
X150090350Y-88626834D01*
X150095683Y-88653643D01*
X150364178Y-89055473D01*
X150766008Y-89323968D01*
X151240000Y-89418251D01*
X151713992Y-89323968D01*
X152115822Y-89055473D01*
X152384317Y-88653643D01*
X152478600Y-88179651D01*
X152478600Y-87820349D01*
X152541400Y-87820349D01*
X152541400Y-88179651D01*
X152635683Y-88653643D01*
X152904178Y-89055473D01*
X153306008Y-89323968D01*
X153780000Y-89418251D01*
X154253992Y-89323968D01*
X154655822Y-89055473D01*
X154924317Y-88653643D01*
X155018600Y-88179651D01*
X155018600Y-87820349D01*
X154924317Y-87346357D01*
X154655822Y-86944527D01*
X154253992Y-86676032D01*
X153780000Y-86581749D01*
X153306008Y-86676032D01*
X152904178Y-86944527D01*
X152635683Y-87346357D01*
X152541400Y-87820349D01*
X152478600Y-87820349D01*
X152384317Y-87346357D01*
X152115822Y-86944527D01*
X151713992Y-86676032D01*
X151240000Y-86581749D01*
X150766008Y-86676032D01*
X150364178Y-86944527D01*
X150095683Y-87346357D01*
X150090350Y-87373166D01*
X149989146Y-87085055D01*
X149599202Y-86649765D01*
X149072363Y-86396835D01*
X149060660Y-86395107D01*
X148829000Y-86515481D01*
X148571000Y-86515481D01*
X148339340Y-86395107D01*
X148327637Y-86396835D01*
X147800798Y-86649765D01*
X147410854Y-87085055D01*
X147309650Y-87373166D01*
X147304317Y-87346357D01*
X147035822Y-86944527D01*
X146633992Y-86676032D01*
X146160000Y-86581749D01*
X145686008Y-86676032D01*
X145284178Y-86944527D01*
X145015683Y-87346357D01*
X144921400Y-87820349D01*
X144858600Y-87820349D01*
X144764317Y-87346357D01*
X144495822Y-86944527D01*
X144093992Y-86676032D01*
X143620000Y-86581749D01*
X143146008Y-86676032D01*
X142744178Y-86944527D01*
X142475683Y-87346357D01*
X142381400Y-87820349D01*
X142318600Y-87820349D01*
X142224317Y-87346357D01*
X141955822Y-86944527D01*
X141553992Y-86676032D01*
X141080000Y-86581749D01*
X140606008Y-86676032D01*
X140204178Y-86944527D01*
X139935683Y-87346357D01*
X139930350Y-87373166D01*
X139829146Y-87085055D01*
X139439202Y-86649765D01*
X138912363Y-86396835D01*
X138900660Y-86395107D01*
X138669000Y-86515481D01*
X138669000Y-87871000D01*
X138689000Y-87871000D01*
X138689000Y-88129000D01*
X138669000Y-88129000D01*
X138669000Y-89484519D01*
X138900660Y-89604893D01*
X138912363Y-89603165D01*
X139439202Y-89350235D01*
X139829146Y-88914945D01*
X139930350Y-88626834D01*
X139935683Y-88653643D01*
X140204178Y-89055473D01*
X140606008Y-89323968D01*
X140660461Y-89334799D01*
X140726447Y-89433553D01*
X147500000Y-96207106D01*
X147500000Y-98792893D01*
X146646447Y-99646447D01*
X146538060Y-99808658D01*
X146500000Y-100000000D01*
X146500000Y-105750000D01*
X146526704Y-105884250D01*
X146538060Y-105941342D01*
X146646447Y-106103553D01*
X147673946Y-107131053D01*
X147764175Y-107191342D01*
X147836158Y-107239440D01*
X148027500Y-107277500D01*
X148117654Y-107277500D01*
X148117654Y-107564377D01*
X148011158Y-107585560D01*
X147973034Y-107611034D01*
X147848947Y-107693946D01*
X144896447Y-110646447D01*
X144882346Y-110667550D01*
X144882346Y-110387500D01*
X144859425Y-110265687D01*
X144882346Y-110152500D01*
X144882346Y-109752500D01*
X144859425Y-109630687D01*
X144882346Y-109517500D01*
X144882346Y-109117500D01*
X144859425Y-108995687D01*
X144882346Y-108882500D01*
X144882346Y-108547500D01*
X145202500Y-108547500D01*
X145393842Y-108509440D01*
X145556053Y-108401053D01*
X145853554Y-108103553D01*
X145926189Y-107994846D01*
X145961940Y-107941342D01*
X146000000Y-107750000D01*
X146000000Y-103250000D01*
X145961940Y-103058658D01*
X145957225Y-103051601D01*
X145853554Y-102896447D01*
X145757346Y-102800239D01*
X145757346Y-102350000D01*
X145731198Y-102211034D01*
X145649069Y-102083401D01*
X145525354Y-101998870D01*
X145641599Y-101924069D01*
X145727223Y-101798754D01*
X145757346Y-101650000D01*
X145757346Y-100850000D01*
X145731198Y-100711034D01*
X145649069Y-100583401D01*
X145523754Y-100497777D01*
X145500000Y-100492967D01*
X145500000Y-99172957D01*
X145721286Y-99081523D01*
X146080262Y-98723173D01*
X146274778Y-98254726D01*
X146275221Y-97747499D01*
X146081523Y-97278714D01*
X145723173Y-96919738D01*
X145254726Y-96725222D01*
X144747499Y-96724779D01*
X144278714Y-96918477D01*
X143919738Y-97276827D01*
X143725222Y-97745274D01*
X143724779Y-98252501D01*
X143918477Y-98721286D01*
X144276827Y-99080262D01*
X144500000Y-99172931D01*
X144500000Y-100491174D01*
X144486034Y-100493802D01*
X144358401Y-100575931D01*
X144272777Y-100701246D01*
X144242654Y-100850000D01*
X144242654Y-101650000D01*
X144268802Y-101788966D01*
X144350931Y-101916599D01*
X144474646Y-102001130D01*
X144358401Y-102075931D01*
X144272777Y-102201246D01*
X144242654Y-102350000D01*
X144242654Y-103150000D01*
X144268802Y-103288966D01*
X144350931Y-103416599D01*
X144476246Y-103502223D01*
X144625000Y-103532346D01*
X145000000Y-103532346D01*
X145000000Y-106817303D01*
X144882346Y-106699649D01*
X144882346Y-106577500D01*
X144859425Y-106455687D01*
X144882346Y-106342500D01*
X144882346Y-105942500D01*
X144859425Y-105820687D01*
X144882346Y-105707500D01*
X144882346Y-105307500D01*
X144856198Y-105168534D01*
X144774069Y-105040901D01*
X144648754Y-104955277D01*
X144500000Y-104925154D01*
X143300000Y-104925154D01*
X143161034Y-104951302D01*
X143033401Y-105033431D01*
X142947777Y-105158746D01*
X142917654Y-105307500D01*
X142917654Y-105707500D01*
X142940575Y-105829313D01*
X142917654Y-105942500D01*
X142917654Y-106342500D01*
X142940575Y-106464313D01*
X142917654Y-106577500D01*
X142917654Y-106699649D01*
X142763369Y-106853934D01*
X142667000Y-107086588D01*
X142667000Y-107154250D01*
X142825250Y-107312500D01*
X143126039Y-107312500D01*
X143151246Y-107329723D01*
X143300000Y-107359846D01*
X144049000Y-107359846D01*
X144049000Y-107465154D01*
X143300000Y-107465154D01*
X143161034Y-107491302D01*
X143128091Y-107512500D01*
X142825250Y-107512500D01*
X142790250Y-107547500D01*
X141765315Y-107547500D01*
X141724069Y-107483401D01*
X141598754Y-107397777D01*
X141525782Y-107383000D01*
X141575912Y-107383000D01*
X141808566Y-107286631D01*
X141986632Y-107108565D01*
X142083000Y-106875911D01*
X142083000Y-106783250D01*
X141924750Y-106625000D01*
X141129000Y-106625000D01*
X141129000Y-106649000D01*
X140871000Y-106649000D01*
X140871000Y-106625000D01*
X140075250Y-106625000D01*
X139917000Y-106783250D01*
X139917000Y-106875911D01*
X140013368Y-107108565D01*
X140191434Y-107286631D01*
X140424088Y-107383000D01*
X140468442Y-107383000D01*
X140411034Y-107393802D01*
X140283401Y-107475931D01*
X140197777Y-107601246D01*
X140167654Y-107750000D01*
X140167654Y-108250000D01*
X140193802Y-108388966D01*
X140275931Y-108516599D01*
X140401246Y-108602223D01*
X140550000Y-108632346D01*
X141450000Y-108632346D01*
X141588966Y-108606198D01*
X141680186Y-108547500D01*
X142917654Y-108547500D01*
X142917654Y-108882500D01*
X142940575Y-109004313D01*
X142917654Y-109117500D01*
X142917654Y-109517500D01*
X142940575Y-109639313D01*
X142917654Y-109752500D01*
X142917654Y-110152500D01*
X142940575Y-110274313D01*
X142917654Y-110387500D01*
X142917654Y-110722500D01*
X141527500Y-110722500D01*
X141359581Y-110755901D01*
X141336158Y-110760560D01*
X141173946Y-110868947D01*
X137646447Y-114396447D01*
X137538060Y-114558658D01*
X137500000Y-114750000D01*
X137500000Y-115627062D01*
X137411034Y-115643802D01*
X137283401Y-115725931D01*
X137197777Y-115851246D01*
X137167654Y-116000000D01*
X137167654Y-116500000D01*
X137193802Y-116638966D01*
X137275931Y-116766599D01*
X137401246Y-116852223D01*
X137550000Y-116882346D01*
X138450000Y-116882346D01*
X138588966Y-116856198D01*
X138716599Y-116774069D01*
X138802223Y-116648754D01*
X138832346Y-116500000D01*
X138832346Y-116000000D01*
X138806198Y-115861034D01*
X138724069Y-115733401D01*
X138598754Y-115647777D01*
X138500000Y-115627779D01*
X138500000Y-114957106D01*
X141734607Y-111722500D01*
X142070393Y-111722500D01*
X139646447Y-114146447D01*
X139538060Y-114308658D01*
X139500000Y-114500000D01*
X139500000Y-115627062D01*
X139411034Y-115643802D01*
X139283401Y-115725931D01*
X139197777Y-115851246D01*
X139167654Y-116000000D01*
X139167654Y-116500000D01*
X139193802Y-116638966D01*
X139275931Y-116766599D01*
X139401246Y-116852223D01*
X139550000Y-116882346D01*
X140450000Y-116882346D01*
X140588966Y-116856198D01*
X140716599Y-116774069D01*
X140802223Y-116648754D01*
X140832346Y-116500000D01*
X140832346Y-116000000D01*
X140806198Y-115861034D01*
X140724069Y-115733401D01*
X140598754Y-115647777D01*
X140500000Y-115627779D01*
X140500000Y-114707106D01*
X142849607Y-112357500D01*
X142917654Y-112357500D01*
X142917654Y-112692500D01*
X142929569Y-112755824D01*
X141646447Y-114038947D01*
X141538060Y-114201158D01*
X141500000Y-114392500D01*
X141500000Y-115627062D01*
X141411034Y-115643802D01*
X141283401Y-115725931D01*
X141197777Y-115851246D01*
X141167654Y-116000000D01*
X141167654Y-116500000D01*
X141193802Y-116638966D01*
X141275931Y-116766599D01*
X141401246Y-116852223D01*
X141550000Y-116882346D01*
X142450000Y-116882346D01*
X142588966Y-116856198D01*
X142716599Y-116774069D01*
X142802223Y-116648754D01*
X142832346Y-116500000D01*
X142832346Y-116000000D01*
X142806198Y-115861034D01*
X142724069Y-115733401D01*
X142598754Y-115647777D01*
X142500000Y-115627779D01*
X142500000Y-114599606D01*
X144024761Y-113074846D01*
X144500000Y-113074846D01*
X144638966Y-113048698D01*
X144750000Y-112977250D01*
X144750000Y-118250000D01*
X144776325Y-118382346D01*
X144788060Y-118441342D01*
X144896447Y-118603553D01*
X146146447Y-119853553D01*
X146308658Y-119961940D01*
X146500000Y-120000000D01*
X150042894Y-120000000D01*
X150740000Y-120697107D01*
X150740000Y-121693410D01*
X150364178Y-121944527D01*
X150095683Y-122346357D01*
X150090350Y-122373166D01*
X149989146Y-122085055D01*
X149599202Y-121649765D01*
X149072363Y-121396835D01*
X149060660Y-121395107D01*
X148829000Y-121515481D01*
X148829000Y-122871000D01*
X148849000Y-122871000D01*
X148849000Y-123129000D01*
X148829000Y-123129000D01*
X148829000Y-124484519D01*
X149060660Y-124604893D01*
X149072363Y-124603165D01*
X149599202Y-124350235D01*
X149989146Y-123914945D01*
X150090350Y-123626834D01*
X150095683Y-123653643D01*
X150364178Y-124055473D01*
X150766008Y-124323968D01*
X151240000Y-124418251D01*
X151713992Y-124323968D01*
X152115822Y-124055473D01*
X152384317Y-123653643D01*
X152478600Y-123179651D01*
X152478600Y-122820349D01*
X152384317Y-122346357D01*
X152115822Y-121944527D01*
X151740000Y-121693410D01*
X151740000Y-120490000D01*
X151701940Y-120298658D01*
X151664042Y-120241940D01*
X151593553Y-120136446D01*
X150957106Y-119500000D01*
X152792894Y-119500000D01*
X153280000Y-119987107D01*
X153280000Y-121693410D01*
X152904178Y-121944527D01*
X152635683Y-122346357D01*
X152541400Y-122820349D01*
X152541400Y-123179651D01*
X152635683Y-123653643D01*
X152904178Y-124055473D01*
X153306008Y-124323968D01*
X153780000Y-124418251D01*
X154253992Y-124323968D01*
X154655822Y-124055473D01*
X154924317Y-123653643D01*
X155018600Y-123179651D01*
X155018600Y-122820349D01*
X154924317Y-122346357D01*
X154655822Y-121944527D01*
X154280000Y-121693410D01*
X154280000Y-119780000D01*
X154241940Y-119588658D01*
X154182700Y-119500000D01*
X154133554Y-119426447D01*
X153353553Y-118646447D01*
X153191342Y-118538060D01*
X153000000Y-118500000D01*
X146957107Y-118500000D01*
X146250000Y-117792894D01*
X146250000Y-117287250D01*
X149242000Y-117287250D01*
X149242000Y-117525911D01*
X149338368Y-117758565D01*
X149516434Y-117936631D01*
X149749088Y-118033000D01*
X149962750Y-118033000D01*
X150121000Y-117874750D01*
X150121000Y-117129000D01*
X150379000Y-117129000D01*
X150379000Y-117874750D01*
X150537250Y-118033000D01*
X150750912Y-118033000D01*
X150983566Y-117936631D01*
X151161632Y-117758565D01*
X151258000Y-117525911D01*
X151258000Y-117287250D01*
X151099750Y-117129000D01*
X150379000Y-117129000D01*
X150121000Y-117129000D01*
X149400250Y-117129000D01*
X149242000Y-117287250D01*
X146250000Y-117287250D01*
X146250000Y-116987250D01*
X152162000Y-116987250D01*
X152162000Y-117600911D01*
X152258368Y-117833565D01*
X152436434Y-118011631D01*
X152669088Y-118108000D01*
X152807750Y-118108000D01*
X152966000Y-117949750D01*
X152966000Y-116829000D01*
X153224000Y-116829000D01*
X153224000Y-117949750D01*
X153382250Y-118108000D01*
X153520912Y-118108000D01*
X153730000Y-118021392D01*
X153939088Y-118108000D01*
X154077750Y-118108000D01*
X154236000Y-117949750D01*
X154236000Y-116829000D01*
X154494000Y-116829000D01*
X154494000Y-117949750D01*
X154652250Y-118108000D01*
X154790912Y-118108000D01*
X155000000Y-118021392D01*
X155209088Y-118108000D01*
X155347750Y-118108000D01*
X155506000Y-117949750D01*
X155506000Y-116829000D01*
X155764000Y-116829000D01*
X155764000Y-117949750D01*
X155922250Y-118108000D01*
X156060912Y-118108000D01*
X156270000Y-118021392D01*
X156479088Y-118108000D01*
X156617750Y-118108000D01*
X156776000Y-117949750D01*
X156776000Y-116829000D01*
X157034000Y-116829000D01*
X157034000Y-117949750D01*
X157192250Y-118108000D01*
X157330912Y-118108000D01*
X157563566Y-118011631D01*
X157741632Y-117833565D01*
X157838000Y-117600911D01*
X157838000Y-116987250D01*
X157679750Y-116829000D01*
X157034000Y-116829000D01*
X156776000Y-116829000D01*
X155764000Y-116829000D01*
X155506000Y-116829000D01*
X154494000Y-116829000D01*
X154236000Y-116829000D01*
X153224000Y-116829000D01*
X152966000Y-116829000D01*
X152320250Y-116829000D01*
X152162000Y-116987250D01*
X146250000Y-116987250D01*
X146250000Y-116237096D01*
X146350000Y-116257346D01*
X147150000Y-116257346D01*
X147288966Y-116231198D01*
X147416599Y-116149069D01*
X147501130Y-116025354D01*
X147575931Y-116141599D01*
X147701246Y-116227223D01*
X147850000Y-116257346D01*
X148650000Y-116257346D01*
X148788966Y-116231198D01*
X148916599Y-116149069D01*
X149002223Y-116023754D01*
X149007033Y-116000000D01*
X149511470Y-116000000D01*
X149518802Y-116038966D01*
X149530702Y-116057459D01*
X149516434Y-116063369D01*
X149338368Y-116241435D01*
X149242000Y-116474089D01*
X149242000Y-116712750D01*
X149400250Y-116871000D01*
X150121000Y-116871000D01*
X150121000Y-116851000D01*
X150379000Y-116851000D01*
X150379000Y-116871000D01*
X151099750Y-116871000D01*
X151258000Y-116712750D01*
X151258000Y-116474089D01*
X151161632Y-116241435D01*
X150983566Y-116063369D01*
X150970839Y-116058097D01*
X150977223Y-116048754D01*
X151007346Y-115900000D01*
X151007346Y-115799089D01*
X152162000Y-115799089D01*
X152162000Y-116412750D01*
X152320250Y-116571000D01*
X152966000Y-116571000D01*
X152966000Y-115450250D01*
X153224000Y-115450250D01*
X153224000Y-116571000D01*
X154236000Y-116571000D01*
X154236000Y-115450250D01*
X154494000Y-115450250D01*
X154494000Y-116571000D01*
X155506000Y-116571000D01*
X155506000Y-115450250D01*
X155764000Y-115450250D01*
X155764000Y-116571000D01*
X156776000Y-116571000D01*
X156776000Y-115450250D01*
X157034000Y-115450250D01*
X157034000Y-116571000D01*
X157679750Y-116571000D01*
X157838000Y-116412750D01*
X157838000Y-115799089D01*
X157741632Y-115566435D01*
X157563566Y-115388369D01*
X157330912Y-115292000D01*
X157192250Y-115292000D01*
X157034000Y-115450250D01*
X156776000Y-115450250D01*
X156617750Y-115292000D01*
X156479088Y-115292000D01*
X156270000Y-115378608D01*
X156060912Y-115292000D01*
X155922250Y-115292000D01*
X155764000Y-115450250D01*
X155506000Y-115450250D01*
X155347750Y-115292000D01*
X155209088Y-115292000D01*
X155000000Y-115378608D01*
X154790912Y-115292000D01*
X154652250Y-115292000D01*
X154494000Y-115450250D01*
X154236000Y-115450250D01*
X154077750Y-115292000D01*
X153939088Y-115292000D01*
X153730000Y-115378608D01*
X153520912Y-115292000D01*
X153382250Y-115292000D01*
X153224000Y-115450250D01*
X152966000Y-115450250D01*
X152807750Y-115292000D01*
X152669088Y-115292000D01*
X152436434Y-115388369D01*
X152258368Y-115566435D01*
X152162000Y-115799089D01*
X151007346Y-115799089D01*
X151007346Y-115449761D01*
X151103554Y-115353553D01*
X151211940Y-115191342D01*
X151250000Y-115000000D01*
X151250000Y-114000000D01*
X156500000Y-114000000D01*
X156691342Y-113961940D01*
X156853553Y-113853553D01*
X157258553Y-113448554D01*
X157366940Y-113286342D01*
X157405000Y-113095000D01*
X157405000Y-112391924D01*
X157471599Y-112349069D01*
X157557223Y-112223754D01*
X157587346Y-112075000D01*
X157587346Y-110525000D01*
X157561198Y-110386034D01*
X157479069Y-110258401D01*
X157405000Y-110207792D01*
X157405000Y-86155000D01*
X157366940Y-85963658D01*
X157258553Y-85801447D01*
X156603553Y-85146447D01*
X156571456Y-85125000D01*
X160875000Y-85125000D01*
X160875000Y-125875000D01*
X133125000Y-125875000D01*
X133125000Y-121984000D01*
X134754054Y-121984000D01*
X134754054Y-124016000D01*
X134780202Y-124154966D01*
X134862331Y-124282599D01*
X134987646Y-124368223D01*
X135136400Y-124398346D01*
X136863600Y-124398346D01*
X137002566Y-124372198D01*
X137130199Y-124290069D01*
X137215823Y-124164754D01*
X137245946Y-124016000D01*
X137245946Y-121984000D01*
X137219798Y-121845034D01*
X137137669Y-121717401D01*
X137012354Y-121631777D01*
X136863600Y-121601654D01*
X135136400Y-121601654D01*
X134997434Y-121627802D01*
X134869801Y-121709931D01*
X134784177Y-121835246D01*
X134754054Y-121984000D01*
X133125000Y-121984000D01*
X133125000Y-117500000D01*
X137167654Y-117500000D01*
X137167654Y-118000000D01*
X137193802Y-118138966D01*
X137275931Y-118266599D01*
X137401246Y-118352223D01*
X137550000Y-118382346D01*
X137925239Y-118382346D01*
X138040000Y-118497107D01*
X138040000Y-121693410D01*
X137664178Y-121944527D01*
X137395683Y-122346357D01*
X137301400Y-122820349D01*
X137301400Y-123179651D01*
X137395683Y-123653643D01*
X137664178Y-124055473D01*
X138066008Y-124323968D01*
X138540000Y-124418251D01*
X139013992Y-124323968D01*
X139415822Y-124055473D01*
X139684317Y-123653643D01*
X139778600Y-123179651D01*
X139778600Y-122820349D01*
X139684317Y-122346357D01*
X139415822Y-121944527D01*
X139040000Y-121693410D01*
X139040000Y-118290000D01*
X139001940Y-118098658D01*
X138975213Y-118058658D01*
X138893553Y-117936446D01*
X138832346Y-117875239D01*
X138832346Y-117500000D01*
X139167654Y-117500000D01*
X139167654Y-118000000D01*
X139193802Y-118138966D01*
X139275931Y-118266599D01*
X139401246Y-118352223D01*
X139550000Y-118382346D01*
X139925240Y-118382346D01*
X140580000Y-119037107D01*
X140580000Y-121693410D01*
X140204178Y-121944527D01*
X139935683Y-122346357D01*
X139841400Y-122820349D01*
X139841400Y-123179651D01*
X139935683Y-123653643D01*
X140204178Y-124055473D01*
X140606008Y-124323968D01*
X141080000Y-124418251D01*
X141553992Y-124323968D01*
X141955822Y-124055473D01*
X142224317Y-123653643D01*
X142318600Y-123179651D01*
X142318600Y-122820349D01*
X142224317Y-122346357D01*
X141955822Y-121944527D01*
X141580000Y-121693410D01*
X141580000Y-118830000D01*
X141541940Y-118638658D01*
X141474722Y-118538060D01*
X141433554Y-118476447D01*
X140832346Y-117875240D01*
X140832346Y-117500000D01*
X141167654Y-117500000D01*
X141167654Y-118000000D01*
X141193802Y-118138966D01*
X141275931Y-118266599D01*
X141401246Y-118352223D01*
X141550000Y-118382346D01*
X141925240Y-118382346D01*
X143120000Y-119577106D01*
X143120000Y-121693410D01*
X142744178Y-121944527D01*
X142475683Y-122346357D01*
X142381400Y-122820349D01*
X142381400Y-123179651D01*
X142475683Y-123653643D01*
X142744178Y-124055473D01*
X143146008Y-124323968D01*
X143620000Y-124418251D01*
X144093992Y-124323968D01*
X144495822Y-124055473D01*
X144764317Y-123653643D01*
X144858600Y-123179651D01*
X144858600Y-122820349D01*
X144921400Y-122820349D01*
X144921400Y-123179651D01*
X145015683Y-123653643D01*
X145284178Y-124055473D01*
X145686008Y-124323968D01*
X146160000Y-124418251D01*
X146633992Y-124323968D01*
X147035822Y-124055473D01*
X147304317Y-123653643D01*
X147309650Y-123626834D01*
X147410854Y-123914945D01*
X147800798Y-124350235D01*
X148327637Y-124603165D01*
X148339340Y-124604893D01*
X148571000Y-124484519D01*
X148571000Y-123129000D01*
X148551000Y-123129000D01*
X148551000Y-122871000D01*
X148571000Y-122871000D01*
X148571000Y-121515481D01*
X148339340Y-121395107D01*
X148327637Y-121396835D01*
X147800798Y-121649765D01*
X147410854Y-122085055D01*
X147309650Y-122373166D01*
X147304317Y-122346357D01*
X147035822Y-121944527D01*
X146633992Y-121676032D01*
X146160000Y-121581749D01*
X145686008Y-121676032D01*
X145284178Y-121944527D01*
X145015683Y-122346357D01*
X144921400Y-122820349D01*
X144858600Y-122820349D01*
X144764317Y-122346357D01*
X144495822Y-121944527D01*
X144120000Y-121693410D01*
X144120000Y-119370000D01*
X144081940Y-119178658D01*
X143973553Y-119016447D01*
X142832346Y-117875240D01*
X142832346Y-117500000D01*
X142806198Y-117361034D01*
X142724069Y-117233401D01*
X142598754Y-117147777D01*
X142450000Y-117117654D01*
X141550000Y-117117654D01*
X141411034Y-117143802D01*
X141283401Y-117225931D01*
X141197777Y-117351246D01*
X141167654Y-117500000D01*
X140832346Y-117500000D01*
X140806198Y-117361034D01*
X140724069Y-117233401D01*
X140598754Y-117147777D01*
X140450000Y-117117654D01*
X139550000Y-117117654D01*
X139411034Y-117143802D01*
X139283401Y-117225931D01*
X139197777Y-117351246D01*
X139167654Y-117500000D01*
X138832346Y-117500000D01*
X138806198Y-117361034D01*
X138724069Y-117233401D01*
X138598754Y-117147777D01*
X138450000Y-117117654D01*
X137550000Y-117117654D01*
X137411034Y-117143802D01*
X137283401Y-117225931D01*
X137197777Y-117351246D01*
X137167654Y-117500000D01*
X133125000Y-117500000D01*
X133125000Y-106124089D01*
X139917000Y-106124089D01*
X139917000Y-106216750D01*
X140075250Y-106375000D01*
X140871000Y-106375000D01*
X140871000Y-105775250D01*
X141129000Y-105775250D01*
X141129000Y-106375000D01*
X141924750Y-106375000D01*
X142083000Y-106216750D01*
X142083000Y-106124089D01*
X141986632Y-105891435D01*
X141808566Y-105713369D01*
X141575912Y-105617000D01*
X141287250Y-105617000D01*
X141129000Y-105775250D01*
X140871000Y-105775250D01*
X140712750Y-105617000D01*
X140424088Y-105617000D01*
X140191434Y-105713369D01*
X140013368Y-105891435D01*
X139917000Y-106124089D01*
X133125000Y-106124089D01*
X133125000Y-103369683D01*
X139812751Y-103369683D01*
X139948399Y-103666873D01*
X140666332Y-103942419D01*
X141435062Y-103922251D01*
X142051601Y-103666873D01*
X142187249Y-103369683D01*
X141000000Y-102182434D01*
X139812751Y-103369683D01*
X133125000Y-103369683D01*
X133125000Y-101666332D01*
X139057581Y-101666332D01*
X139077749Y-102435062D01*
X139333127Y-103051601D01*
X139630317Y-103187249D01*
X140817566Y-102000000D01*
X141182434Y-102000000D01*
X142369683Y-103187249D01*
X142666873Y-103051601D01*
X142942419Y-102333668D01*
X142922251Y-101564938D01*
X142666873Y-100948399D01*
X142369683Y-100812751D01*
X141182434Y-102000000D01*
X140817566Y-102000000D01*
X139630317Y-100812751D01*
X139333127Y-100948399D01*
X139057581Y-101666332D01*
X133125000Y-101666332D01*
X133125000Y-100630317D01*
X139812751Y-100630317D01*
X141000000Y-101817566D01*
X142187249Y-100630317D01*
X142051601Y-100333127D01*
X141333668Y-100057581D01*
X140564938Y-100077749D01*
X139948399Y-100333127D01*
X139812751Y-100630317D01*
X133125000Y-100630317D01*
X133125000Y-95369683D01*
X139812751Y-95369683D01*
X139948399Y-95666873D01*
X140666332Y-95942419D01*
X141435062Y-95922251D01*
X142051601Y-95666873D01*
X142187249Y-95369683D01*
X141000000Y-94182434D01*
X139812751Y-95369683D01*
X133125000Y-95369683D01*
X133125000Y-93666332D01*
X139057581Y-93666332D01*
X139077749Y-94435062D01*
X139333127Y-95051601D01*
X139630317Y-95187249D01*
X140817566Y-94000000D01*
X141182434Y-94000000D01*
X142369683Y-95187249D01*
X142666873Y-95051601D01*
X142942419Y-94333668D01*
X142922251Y-93564938D01*
X142666873Y-92948399D01*
X142369683Y-92812751D01*
X141182434Y-94000000D01*
X140817566Y-94000000D01*
X139630317Y-92812751D01*
X139333127Y-92948399D01*
X139057581Y-93666332D01*
X133125000Y-93666332D01*
X133125000Y-92630317D01*
X139812751Y-92630317D01*
X141000000Y-93817566D01*
X142187249Y-92630317D01*
X142051601Y-92333127D01*
X141333668Y-92057581D01*
X140564938Y-92077749D01*
X139948399Y-92333127D01*
X139812751Y-92630317D01*
X133125000Y-92630317D01*
X133125000Y-85125000D01*
X136428544Y-85125000D01*
X136396446Y-85146447D01*
M02*
